<svg width="301" height="243" viewBox="0 0 301 243" fill="none" xmlns="http://www.w3.org/2000/svg">
<path d="M152.682 49.7634C133.242 39.1314 117.942 19.8894 93.0543 26.5614C73.7823 31.7274 62.6043 51.4914 62.6223 70.5654C62.6643 117.317 120.942 155.513 162.42 161.705C203.22 167.789 252.42 126.833 239.67 82.6914C234.606 65.1834 216.87 48.1854 197.718 49.4274C180.114 50.5734 171.354 59.9754 152.682 49.7634Z" fill="#FA7C56"/>
<path opacity="0.9" d="M152.682 49.7634C133.242 39.1314 117.942 19.8894 93.0543 26.5614C73.7823 31.7274 62.6043 51.4914 62.6223 70.5654C62.6643 117.317 120.942 155.513 162.42 161.705C203.22 167.789 252.42 126.833 239.67 82.6914C234.606 65.1834 216.87 48.1854 197.718 49.4274C180.114 50.5734 171.354 59.9754 152.682 49.7634Z" fill="white"/>
<path d="M189.885 55.2916L185.007 52.3756L187.845 51.8176L195.405 53.3176L189.885 55.2916Z" fill="#FA7C56"/>
<path opacity="0.3" d="M189.885 55.2916L185.007 52.3756L187.845 51.8176L195.405 53.3176L189.885 55.2916Z" fill="#263238"/>
<path d="M223.628 46.3515L217.694 38.8995L219.89 38.4735C221.671 38.1259 223.515 38.2988 225.2 38.9715L236.66 43.5735L223.628 46.3515Z" fill="#FA7C56"/>
<path opacity="0.3" d="M223.628 46.3515L217.694 38.8995L219.89 38.4735C221.671 38.1259 223.515 38.2988 225.2 38.9715L236.66 43.5735L223.628 46.3515Z" fill="#263238"/>
<path d="M254.745 41.0113L252.981 40.5733C251.272 40.1238 249.483 40.0806 247.755 40.4473L189.645 53.6473L189.099 56.1493L191.367 57.7693L250.167 46.2553C252.093 45.8781 253.888 45.0054 255.375 43.7233C255.602 43.5417 255.774 43.2993 255.87 43.0241C255.966 42.7489 255.982 42.4522 255.916 42.1684C255.85 41.8846 255.705 41.6253 255.497 41.4205C255.29 41.2157 255.029 41.0738 254.745 41.0113Z" fill="#FA7C56"/>
<path d="M219.209 59.2419L193.768 64.6497L193.834 64.9607L219.275 59.5529L219.209 59.2419Z" fill="#FA7C56"/>
<path d="M215.919 42.8946L199.34 46.4187L199.406 46.7298L215.986 43.2056L215.919 42.8946Z" fill="#FA7C56"/>
<path d="M189.017 65.6637L182.203 67.1121L182.269 67.4231L189.083 65.9748L189.017 65.6637Z" fill="#FA7C56"/>
<path opacity="0.3" d="M248.696 45.2234L191.27 57.4574C191.005 57.5091 190.751 57.6066 190.52 57.7454C190.801 57.7832 191.087 57.773 191.366 57.7154L250.166 46.2074C251.126 46.0177 252.057 45.7051 252.938 45.2774L253.154 45.1754C251.679 44.8927 250.163 44.909 248.696 45.2234Z" fill="#263238"/>
<path d="M189.098 56.1014L187.622 62.3354L190.46 61.7774L195.626 55.0334L189.098 56.1014Z" fill="#FA7C56"/>
<path d="M189.645 53.5995L186.201 47.3655L188.847 46.8435L196.485 52.2615L189.645 53.5995Z" fill="#FA7C56"/>
<path d="M224.144 48.9734L223.19 66.9734C224.536 66.7102 225.808 66.156 226.917 65.3496C228.026 64.5433 228.945 63.5043 229.61 62.3054L238.58 46.1594L224.144 48.9734Z" fill="#FA7C56"/>
<g opacity="0.5">
<path d="M209.219 51.1626L208.496 51.3109L208.767 52.6334L209.49 52.4851L209.219 51.1626Z" fill="white"/>
<path d="M210.68 50.884L209.957 51.0321L210.228 52.3546L210.951 52.2065L210.68 50.884Z" fill="white"/>
<path d="M212.144 50.5846L211.421 50.7328L211.692 52.0553L212.415 51.9072L212.144 50.5846Z" fill="white"/>
<path d="M213.608 50.2848L212.885 50.433L213.156 51.7555L213.879 51.6074L213.608 50.2848Z" fill="white"/>
<path d="M215.072 49.985L214.349 50.1332L214.62 51.4557L215.343 51.3076L215.072 49.985Z" fill="white"/>
<path d="M216.536 49.6852L215.813 49.8334L216.084 51.1559L216.807 51.0078L216.536 49.6852Z" fill="white"/>
<path d="M218.006 49.384L217.283 49.5321L217.554 50.8546L218.277 50.7065L218.006 49.384Z" fill="white"/>
<path d="M219.471 49.0616L218.748 49.2098L219.019 50.5323L219.742 50.384L219.471 49.0616Z" fill="white"/>
<path d="M220.934 48.7844L220.211 48.9325L220.482 50.255L221.205 50.1069L220.934 48.7844Z" fill="white"/>
<path d="M222.396 48.4787L221.673 48.6268L221.944 49.9494L222.667 49.8012L222.396 48.4787Z" fill="white"/>
<path d="M223.867 48.1718L223.138 48.3212L223.409 49.6437L224.138 49.4943L223.867 48.1718Z" fill="white"/>
<path d="M225.325 47.8796L224.602 48.0277L224.873 49.3502L225.596 49.2021L225.325 47.8796Z" fill="white"/>
<path d="M226.79 47.5557L226.067 47.704L226.339 49.0265L227.062 48.8782L226.79 47.5557Z" fill="white"/>
<path d="M228.265 47.2714L227.536 47.4208L227.807 48.7433L228.536 48.594L228.265 47.2714Z" fill="white"/>
<path d="M229.728 46.9775L228.999 47.1268L229.27 48.4494L229.999 48.3L229.728 46.9775Z" fill="white"/>
<path d="M231.186 46.6789L230.463 46.827L230.734 48.1495L231.457 48.0014L231.186 46.6789Z" fill="white"/>
<path d="M232.656 46.372L231.927 46.5214L232.198 47.8439L232.927 47.6945L232.656 46.372Z" fill="white"/>
<path d="M234.12 46.0786L233.392 46.2279L233.663 47.5504L234.391 47.4011L234.12 46.0786Z" fill="white"/>
<path d="M235.578 45.78L234.855 45.9281L235.126 47.2506L235.849 47.1025L235.578 45.78Z" fill="white"/>
<path d="M237.049 45.4532L236.326 45.6014L236.597 46.9239L237.32 46.7756L237.049 45.4532Z" fill="white"/>
<path d="M238.518 45.1777L237.789 45.327L238.06 46.6495L238.789 46.5002L238.518 45.1777Z" fill="white"/>
<path d="M239.982 44.8791L239.259 45.0272L239.53 46.3497L240.253 46.2016L239.982 44.8791Z" fill="white"/>
</g>
<path opacity="0.5" d="M254.744 41.0114L252.98 40.5734C252.746 40.5134 252.506 40.4534 252.26 40.4114L249.662 40.9154C249.487 40.9496 249.332 41.0519 249.233 41.1999C249.133 41.3479 249.096 41.5293 249.131 41.7044C249.165 41.8794 249.267 42.0337 249.415 42.1333C249.563 42.2329 249.745 42.2696 249.92 42.2354L255.152 41.1734C255.024 41.1001 254.887 41.0456 254.744 41.0114Z" fill="white"/>
<path d="M133.669 55.9072C126.331 71.7652 108.343 80.3932 127.069 89.1592C145.795 97.9252 147.673 73.9192 147.127 66.6052C146.581 59.2912 137.635 47.3392 133.669 55.9072Z" fill="#263238"/>
<path d="M119.695 78.4494H119.731C119.77 78.4394 119.804 78.4144 119.826 78.3796C119.847 78.3448 119.854 78.3031 119.845 78.2634C118.879 73.7034 122.245 70.3314 126.211 66.4194C129.145 63.5094 132.475 60.2094 134.227 55.9674C135.085 53.8854 136.249 52.9674 137.677 53.2794C141.511 54.0714 145.825 62.8794 145.741 68.0214C145.741 68.0627 145.757 68.1024 145.786 68.1317C145.816 68.1609 145.855 68.1774 145.897 68.1774C145.936 68.1774 145.975 68.1616 146.003 68.1334C146.031 68.1053 146.047 68.0671 146.047 68.0274C146.131 62.7774 141.685 53.7954 137.737 52.9794C136.645 52.7514 135.097 53.0694 133.945 55.8474C132.211 60.0474 128.911 63.3114 125.995 66.2034C121.999 70.1754 118.543 73.6074 119.551 78.3294C119.558 78.3627 119.575 78.3928 119.602 78.4146C119.628 78.4364 119.661 78.4487 119.695 78.4494Z" fill="#263238"/>
<path d="M147.894 61.4092C146.046 62.6632 142.878 57.8392 141.354 51.5272C145.164 48.3892 147.48 48.8752 149.004 51.6232C150.78 54.8272 150 59.9752 147.894 61.4092Z" fill="#263238"/>
<path d="M154.201 160.793C154.201 160.793 128.455 155.573 109.699 159.935C115.201 151.691 138.535 115.169 138.535 115.169L149.623 128.369L154.201 160.793Z" fill="#FA7C56"/>
<path opacity="0.2" d="M154.201 160.793C154.201 160.793 128.455 155.573 109.699 159.935C115.201 151.691 138.535 115.169 138.535 115.169L149.623 128.369L154.201 160.793Z" fill="black"/>
<path d="M146.184 81.3714C146.586 83.1354 147.036 84.7314 147.546 86.3874C148.056 88.0434 148.614 89.6574 149.238 91.2774C149.862 92.8974 150.54 94.5114 151.338 96.1194C152.143 97.7949 153.087 99.4004 154.158 100.919C154.296 101.117 154.446 101.321 154.608 101.519C154.77 101.717 154.89 101.897 155.142 102.179C155.355 102.433 155.583 102.674 155.826 102.899C156.044 103.111 156.272 103.311 156.51 103.499C157.345 104.161 158.245 104.734 159.198 105.209C160.858 106.038 162.594 106.703 164.382 107.195C166.063 107.668 167.77 108.044 169.494 108.323C171.199 108.622 172.92 108.822 174.648 108.923L175.452 104.759C172.452 103.613 169.452 102.443 166.668 101.099C165.346 100.483 164.072 99.7671 162.858 98.9574C162.371 98.6236 161.917 98.2439 161.502 97.8234C161.423 97.7477 161.351 97.6654 161.286 97.5774C161.228 97.5147 161.18 97.444 161.142 97.3674L160.938 97.0434C160.854 96.9174 160.77 96.7734 160.686 96.6294C159.985 95.3703 159.366 94.0676 158.832 92.7294C158.268 91.3254 157.728 89.8674 157.236 88.3854C156.744 86.9034 156.264 85.3854 155.808 83.8734C155.352 82.3614 154.908 80.7894 154.5 79.3494L146.184 81.3714Z" fill="#FA7C56"/>
<path d="M174.499 105.341L179.341 105.593L176.599 110.573C176.599 110.573 173.497 109.469 172.741 106.427L174.499 105.341Z" fill="#FFC3BD"/>
<path d="M182.917 108.768L178.999 111.852L176.599 110.562L179.347 105.594L182.917 108.768Z" fill="#FFC3BD"/>
<path d="M134.461 220.187L139.891 220.697L141.007 208.211L135.583 207.701L134.461 220.187Z" fill="#FFC3BD"/>
<path d="M91.9445 201.725L95.8865 205.427L104.395 196.073L100.453 192.377L91.9445 201.725Z" fill="#FFC3BD"/>
<path d="M96.9663 204.462L94.0023 199.128C93.9525 199.035 93.8708 198.964 93.7726 198.928C93.6744 198.892 93.5662 198.892 93.4683 198.93L88.9083 200.664C88.7958 200.712 88.6947 200.783 88.6115 200.873C88.5283 200.963 88.4648 201.069 88.4252 201.185C88.3857 201.301 88.3708 201.424 88.3817 201.546C88.3926 201.668 88.4289 201.786 88.4883 201.894C89.5563 203.736 90.1623 204.576 91.4883 206.922C92.2863 208.362 93.8463 211.674 94.9563 213.666C96.0663 215.658 98.0883 214.674 97.8063 213.744C96.5403 209.58 96.7803 207.258 97.1403 205.422C97.1933 205.091 97.1319 204.752 96.9663 204.462Z" fill="#263238"/>
<path d="M140.611 219.077H134.167C134.051 219.079 133.938 219.118 133.846 219.19C133.753 219.261 133.687 219.361 133.657 219.473L132.259 224.573C132.224 224.694 132.218 224.821 132.242 224.944C132.265 225.067 132.317 225.183 132.394 225.283C132.47 225.382 132.569 225.462 132.682 225.516C132.795 225.57 132.92 225.597 133.045 225.593C135.313 225.593 136.387 225.593 139.225 225.593H147.883C150.235 225.593 150.727 223.193 149.755 222.995C145.387 222.029 142.867 220.697 141.523 219.425C141.274 219.199 140.948 219.074 140.611 219.077Z" fill="#263238"/>
<path opacity="0.2" d="M141.007 208.217L140.431 214.649H134.959L135.577 207.701L141.007 208.217Z" fill="black"/>
<path opacity="0.2" d="M100.447 192.377L104.389 196.079L100.003 200.897L96.0607 197.195L100.447 192.377Z" fill="black"/>
<path d="M154.615 81.5813C154.255 85.6613 152.899 93.7553 148.843 109.781L126.865 107.879C127.921 99.6413 128.419 94.3073 126.367 78.7613C126.296 78.2334 126.334 77.6965 126.48 77.1841C126.625 76.6716 126.874 76.1945 127.212 75.7826C127.55 75.3706 127.968 75.0325 128.442 74.7894C128.916 74.5463 129.435 74.4033 129.967 74.3693C131.527 74.2853 133.375 74.2313 135.229 74.3033C138.577 74.3563 141.918 74.647 145.225 75.1733C147.217 75.5333 149.353 76.0493 151.063 76.5053C152.159 76.7955 153.117 77.4644 153.768 78.3936C154.418 79.3227 154.718 80.452 154.615 81.5813Z" fill="#263238"/>
<path d="M137.208 63.1731C137.562 66.4371 137.676 72.3771 135.246 74.3211C135.246 74.3211 135.054 77.6931 141.906 78.7971C146.706 78.3891 145.224 75.1971 145.224 75.1971C141.72 74.0331 142.044 71.3871 142.884 68.9451L137.208 63.1731Z" fill="#FFC3BD"/>
<path opacity="0.2" d="M139.518 65.5193L142.878 68.9273C142.677 69.4959 142.523 70.0798 142.416 70.6733C141.066 70.3553 139.11 68.9513 139.092 67.5113C139.116 66.8274 139.26 66.1531 139.518 65.5193Z" fill="black"/>
<path d="M134.335 58.0673C135.697 63.2873 136.165 65.5193 139.363 67.7093C144.163 70.9973 150.283 68.1833 150.505 62.6633C150.709 57.6953 148.447 50.0033 142.867 48.9173C141.638 48.6711 140.366 48.7434 139.172 49.1275C137.978 49.5116 136.903 50.1946 136.048 51.1116C135.193 52.0287 134.586 53.1492 134.287 54.3667C133.987 55.5842 134.003 56.8581 134.335 58.0673Z" fill="#FFC3BD"/>
<path d="M145.746 48.5033C147.96 50.7233 143.346 56.3453 135.654 61.3073C129.708 57.7073 131.748 52.9073 134.454 50.1473C137.16 47.3873 143.208 45.9533 145.746 48.5033Z" fill="#263238"/>
<path d="M143.67 54.2813C143.69 54.281 143.71 54.2766 143.729 54.2684C143.748 54.2601 143.764 54.2482 143.778 54.2333C146.226 51.7913 147.18 49.9373 146.616 48.7253C145.782 46.9253 142.014 47.2673 141.858 47.2793C141.823 47.2863 141.791 47.3054 141.768 47.3333C141.745 47.3612 141.733 47.3962 141.733 47.4323C141.733 47.4684 141.745 47.5034 141.768 47.5313C141.791 47.5592 141.823 47.5783 141.858 47.5853C141.9 47.5853 145.572 47.2673 146.316 48.8573C146.814 49.9253 145.854 51.7073 143.538 54.0173C143.524 54.0313 143.512 54.0481 143.504 54.0666C143.496 54.0852 143.492 54.1051 143.492 54.1253C143.492 54.1455 143.496 54.1654 143.504 54.184C143.512 54.2025 143.524 54.2193 143.538 54.2333C143.555 54.2507 143.576 54.264 143.599 54.2723C143.622 54.2807 143.646 54.2837 143.67 54.2813Z" fill="#263238"/>
<path d="M133.903 62.7773C134.391 63.6983 135.224 64.3886 136.219 64.6973C137.545 65.0993 138.235 63.9233 137.887 62.6573C137.575 61.5233 136.513 59.9453 135.175 60.1013C134.887 60.1478 134.615 60.2635 134.382 60.4384C134.149 60.6134 133.962 60.8423 133.837 61.1055C133.712 61.3687 133.652 61.6583 133.664 61.9496C133.675 62.2408 133.757 62.5248 133.903 62.7773Z" fill="#FFC3BD"/>
<path d="M148.843 109.799C148.843 109.799 155.191 142.667 150.229 165.857C146.899 181.373 142.639 212.789 142.639 212.789L133.267 212.543C133.267 212.543 135.703 179.621 137.581 166.673C140.791 144.521 132.751 108.407 132.751 108.407L148.843 109.799Z" fill="#263238"/>
<path opacity="0.2" d="M140.268 116.441L135.582 123.833C136.994 132.599 137.89 141.44 138.264 150.311C144.852 138.509 141.732 122.687 140.268 116.441Z" fill="black"/>
<path d="M143.466 213.149L132.42 213.119L132.456 209.423L144.15 209.267L143.466 213.149Z" fill="#FA7C56"/>
<path d="M144.037 109.451C144.037 109.451 139.675 144.329 130.237 163.373C122.599 178.757 102.223 200.657 102.223 200.657L97.0091 195.287C97.0091 195.287 110.779 171.491 116.455 161.273C130.369 136.217 118.999 117.095 126.883 107.873L144.037 109.451Z" fill="#263238"/>
<path d="M102.732 201.371L96.0062 194.819L98.2382 191.783L105.366 198.899L102.732 201.371Z" fill="#FA7C56"/>
<path d="M126.649 106.577L125.485 108.461C125.395 108.605 125.563 108.779 125.821 108.803L148.867 110.795C149.065 110.795 149.239 110.729 149.263 110.603L149.629 108.653C149.629 108.521 149.491 108.389 149.275 108.371L127.021 106.445C126.953 106.435 126.883 106.442 126.818 106.465C126.754 106.488 126.695 106.526 126.649 106.577Z" fill="white"/>
<path d="M129.421 109.325L128.821 109.277C128.701 109.277 128.617 109.193 128.629 109.121L129.133 106.589C129.133 106.517 129.253 106.463 129.373 106.475L129.973 106.523C130.087 106.523 130.177 106.607 130.159 106.679L129.661 109.211C129.649 109.283 129.541 109.337 129.421 109.325Z" fill="#263238"/>
<path d="M147.175 110.861L146.575 110.813C146.461 110.813 146.371 110.729 146.389 110.657L146.887 108.125C146.887 108.053 147.013 107.999 147.133 108.011L147.733 108.059C147.853 108.059 147.937 108.137 147.925 108.215L147.421 110.747C147.403 110.819 147.289 110.873 147.175 110.861Z" fill="#263238"/>
<path d="M138.295 110.093L137.695 110.045C137.575 110.045 137.491 109.961 137.509 109.889L138.007 107.357C138.007 107.285 138.133 107.231 138.247 107.243L138.847 107.291C138.967 107.291 139.051 107.375 139.033 107.447L138.535 109.979C138.499 110.051 138.415 110.105 138.295 110.093Z" fill="#263238"/>
<path d="M143.166 57.8934C143.25 58.3194 143.544 58.6254 143.826 58.5714C144.108 58.5174 144.264 58.1214 144.18 57.6894C144.096 57.2574 143.802 56.9574 143.52 57.0114C143.238 57.0654 143.082 57.4614 143.166 57.8934Z" fill="#263238"/>
<path d="M148.021 56.9333C148.111 57.3653 148.405 57.6713 148.687 57.6113C148.969 57.5513 149.125 57.1673 149.041 56.7353C148.957 56.3033 148.663 56.0033 148.381 56.0573C148.099 56.1113 147.937 56.5073 148.021 56.9333Z" fill="#263238"/>
<path d="M148.26 56.1052L149.232 55.6072C149.232 55.6072 148.86 56.5132 148.26 56.1052Z" fill="#263238"/>
<path d="M146.352 58.0071C146.926 58.9128 147.622 59.7346 148.422 60.4491C148.235 60.6512 148.006 60.8097 147.751 60.9134C147.496 61.0171 147.221 61.0634 146.946 61.0491L146.352 58.0071Z" fill="#ED847E"/>
<path d="M144.96 63.0892C144.054 63.1038 143.178 62.7685 142.512 62.1532C142.498 62.1324 142.492 62.1074 142.494 62.0824C142.497 62.0574 142.508 62.034 142.525 62.0163C142.543 61.9985 142.567 61.9875 142.592 61.9851C142.617 61.9827 142.642 61.9891 142.662 62.0032C143.074 62.3666 143.566 62.6277 144.098 62.7653C144.629 62.9029 145.186 62.9131 145.722 62.7952C145.75 62.7899 145.779 62.7957 145.803 62.8114C145.826 62.8272 145.843 62.8515 145.848 62.8792C145.852 62.8931 145.853 62.9075 145.85 62.9216C145.848 62.9356 145.842 62.949 145.834 62.9609C145.827 62.9728 145.816 62.9829 145.804 62.9905C145.792 62.9981 145.779 63.0032 145.764 63.0052C145.5 63.0613 145.231 63.0895 144.96 63.0892Z" fill="#263238"/>
<path d="M140.245 56.2251C140.21 56.2331 140.173 56.2331 140.137 56.2251C140.089 56.1953 140.055 56.1478 140.041 56.0928C140.028 56.0378 140.036 55.9798 140.065 55.9311C140.263 55.5812 140.543 55.2843 140.88 55.066C141.218 54.8476 141.603 54.7142 142.003 54.6771C142.031 54.6763 142.058 54.6809 142.084 54.6908C142.11 54.7006 142.134 54.7154 142.154 54.7343C142.174 54.7533 142.19 54.776 142.201 54.8012C142.212 54.8264 142.219 54.8535 142.219 54.8811C142.221 54.9092 142.217 54.9373 142.207 54.9638C142.198 54.9902 142.183 55.0146 142.164 55.0353C142.145 55.056 142.122 55.0726 142.097 55.0843C142.071 55.0959 142.043 55.1023 142.015 55.1031C141.687 55.1394 141.372 55.2536 141.096 55.4362C140.821 55.6188 140.593 55.8646 140.431 56.1531C140.408 56.1788 140.379 56.1987 140.347 56.2112C140.315 56.2237 140.28 56.2284 140.245 56.2251Z" fill="#263238"/>
<path d="M149.37 54.5033C149.334 54.5025 149.299 54.4922 149.268 54.4733C148.984 54.3043 148.664 54.2053 148.335 54.1845C148.005 54.1636 147.675 54.2215 147.372 54.3533C147.322 54.3789 147.264 54.3838 147.21 54.3669C147.156 54.3501 147.111 54.3129 147.084 54.2633C147.071 54.2381 147.062 54.2105 147.059 54.1821C147.057 54.1536 147.059 54.1249 147.068 54.0975C147.076 54.0702 147.09 54.0447 147.108 54.0227C147.126 54.0007 147.149 53.9826 147.174 53.9693C147.541 53.8067 147.941 53.7339 148.342 53.7568C148.743 53.7798 149.132 53.8979 149.478 54.1013C149.527 54.1301 149.563 54.1772 149.578 54.2323C149.592 54.2873 149.585 54.3459 149.556 54.3953C149.538 54.4284 149.511 54.4559 149.478 54.4749C149.445 54.494 149.408 54.5038 149.37 54.5033Z" fill="#263238"/>
<path d="M135.582 73.7092C136.23 78.7701 136.504 83.8719 136.404 88.9732C136.35 95.2192 137.94 123.173 129.402 155.957C115.752 156.035 109.704 159.965 109.704 159.965C109.704 159.965 122.94 106.565 124.614 78.9652C124.692 77.636 125.255 76.3816 126.196 75.4395C127.137 74.4975 128.391 73.9331 129.72 73.8532C132.432 73.6192 135.582 73.7092 135.582 73.7092Z" fill="#FA7C56"/>
<path d="M121.783 119.213C121.819 119.213 121.854 119.202 121.885 119.183C125.725 116.897 129.649 110.477 129.811 110.183C129.825 110.161 129.835 110.135 129.839 110.109C129.843 110.082 129.843 110.055 129.836 110.029C129.83 110.002 129.819 109.978 129.803 109.956C129.788 109.934 129.768 109.916 129.745 109.901C129.698 109.872 129.641 109.863 129.587 109.875C129.533 109.888 129.486 109.921 129.457 109.967C129.415 110.033 125.419 116.567 121.657 118.805C121.632 118.819 121.611 118.837 121.594 118.859C121.577 118.882 121.565 118.907 121.559 118.934C121.552 118.961 121.551 118.989 121.555 119.016C121.56 119.044 121.57 119.07 121.585 119.093C121.602 119.131 121.63 119.163 121.665 119.184C121.7 119.206 121.741 119.216 121.783 119.213Z" fill="white"/>
<path opacity="0.2" d="M123.864 87.2032L128.298 83.3152C128.298 83.3152 126.36 91.7152 122.448 97.7752C123 94.1092 123.498 90.5572 123.864 87.2032Z" fill="black"/>
<path d="M145.896 74.7712C145.896 74.7712 146.388 80.5552 146.388 95.4292C146.388 109.781 144.588 130.451 147.342 156.485C150.023 157.167 152.422 158.674 154.2 160.793C154.2 160.793 150.516 113.537 154.752 81.5152C154.886 80.1693 154.504 78.8226 153.683 77.7477C152.862 76.6727 151.664 75.9498 150.33 75.7252C147.666 75.2272 145.896 74.7712 145.896 74.7712Z" fill="#FA7C56"/>
<path d="M104.412 117.654L117.634 121.096L116.411 125.793L103.19 122.352L104.412 117.654Z" fill="#FA7C56"/>
<path opacity="0.8" d="M103.638 120.631L116.859 124.073L116.639 124.92L103.417 121.479L103.638 120.631Z" fill="white"/>
<path d="M104.99 116.971L116.336 119.346L115.166 124.937L103.82 122.562L104.99 116.971Z" fill="#263238"/>
<path d="M114.846 115.883L115.782 120.647L111.288 119.513C111.288 119.513 110.988 116.237 112.83 114.941L114.846 115.883Z" fill="#FFC3BD"/>
<path d="M114.642 123.125L110.124 122.687L111.288 119.513L115.782 120.647L114.642 123.125Z" fill="#FFC3BD"/>
<path d="M126.264 75.3772C124.95 76.7392 123.78 78.0772 122.592 79.4812C121.404 80.8852 120.276 82.3012 119.19 83.7892C118.104 85.2772 117.024 86.7892 116.022 88.4212C115.524 89.2432 115.026 90.0592 114.57 90.9592L114.228 91.6252L113.898 92.3332L113.574 93.0532C113.466 93.2872 113.352 93.5932 113.25 93.8572C112.898 94.8458 112.617 95.8584 112.41 96.8872C112.212 97.8532 112.056 98.7952 111.924 99.7252C111.666 101.585 111.516 103.415 111.408 105.239C111.207 108.859 111.231 112.488 111.48 116.105L115.716 116.333C116.4 112.907 117.042 109.439 117.756 106.067C118.11 104.375 118.488 102.707 118.914 101.099C119.118 100.295 119.346 99.5092 119.592 98.7592C119.813 98.0715 120.072 97.3965 120.366 96.7372C120.444 96.5992 120.486 96.4912 120.582 96.3292L120.852 95.8612L121.128 95.3932L121.446 94.9072C121.854 94.2652 122.334 93.5992 122.796 92.9392C123.75 91.6192 124.812 90.3052 125.874 88.9852C128.01 86.3752 130.32 83.7412 132.528 81.1852L126.264 75.3772Z" fill="#FA7C56"/>
<path d="M98.0046 207.335C97.9331 207.335 97.8621 207.323 97.7946 207.299C97.1526 207.077 96.7266 205.889 96.5346 205.193C96.5283 205.174 96.5284 205.153 96.5349 205.133C96.5414 205.114 96.5539 205.097 96.5706 205.085C96.5875 205.074 96.6073 205.068 96.6276 205.068C96.6479 205.068 96.6678 205.074 96.6846 205.085C96.8826 205.187 98.6046 206.105 98.6586 206.789C98.6649 206.862 98.6516 206.936 98.6199 207.002C98.5883 207.069 98.5395 207.126 98.4786 207.167C98.3435 207.274 98.1769 207.333 98.0046 207.335ZM96.8046 205.385C97.1046 206.339 97.4886 206.969 97.8546 207.095C97.9385 207.121 98.0277 207.124 98.1132 207.104C98.1986 207.084 98.2772 207.042 98.3406 206.981C98.3722 206.961 98.3982 206.934 98.416 206.901C98.4339 206.869 98.4431 206.832 98.4426 206.795C98.4126 206.375 97.4046 205.721 96.8106 205.373L96.8046 205.385Z" fill="#FA7C56"/>
<path d="M98.2693 205.655C97.6847 205.651 97.1085 205.516 96.5833 205.259C96.566 205.25 96.5517 205.236 96.5422 205.219C96.5326 205.202 96.5281 205.183 96.5292 205.163C96.5304 205.145 96.5359 205.127 96.5453 205.112C96.5547 205.096 96.5677 205.083 96.5833 205.073C96.6433 205.043 98.0053 204.293 98.7373 204.551C98.8288 204.581 98.9124 204.631 98.982 204.697C99.0516 204.764 99.1053 204.845 99.1393 204.935C99.1874 205.021 99.2041 205.12 99.1866 205.217C99.1691 205.313 99.1183 205.4 99.0432 205.463C98.8134 205.611 98.5414 205.678 98.2693 205.655ZM96.8713 205.163C97.4713 205.415 98.5873 205.565 98.9053 205.295C98.9593 205.253 99.0133 205.181 98.9413 205.013C98.9188 204.953 98.8828 204.898 98.836 204.853C98.7892 204.808 98.7329 204.775 98.6713 204.755C98.1673 204.575 97.2613 204.977 96.8713 205.163Z" fill="#FA7C56"/>
<path d="M143.466 220.121C142.874 220.107 142.285 220.033 141.708 219.899C141.686 219.893 141.667 219.881 141.652 219.864C141.637 219.847 141.627 219.826 141.624 219.803C141.621 219.781 141.625 219.759 141.636 219.739C141.647 219.72 141.664 219.704 141.684 219.695C141.948 219.569 144.288 218.495 144.876 218.891C144.93 218.927 144.973 218.976 145 219.034C145.028 219.093 145.039 219.157 145.032 219.221C145.027 219.338 144.996 219.453 144.941 219.557C144.886 219.661 144.809 219.751 144.714 219.821C144.339 220.047 143.903 220.152 143.466 220.121ZM142.098 219.773C142.794 219.905 144.078 220.073 144.606 219.671C144.675 219.618 144.732 219.551 144.772 219.475C144.812 219.398 144.836 219.314 144.84 219.227C144.845 219.2 144.842 219.172 144.832 219.146C144.821 219.121 144.803 219.099 144.78 219.083C144.426 218.843 143.046 219.329 142.098 219.773Z" fill="#FA7C56"/>
<path d="M141.732 219.899C141.709 219.907 141.684 219.907 141.66 219.899C141.65 219.883 141.645 219.864 141.645 219.845C141.645 219.826 141.65 219.807 141.66 219.791C141.66 219.695 142.212 217.391 143.46 217.535C143.778 217.577 143.868 217.733 143.88 217.859C143.964 218.459 142.488 219.659 141.786 219.917L141.732 219.899ZM143.334 217.721C142.524 217.721 142.05 219.059 141.894 219.599C142.656 219.197 143.694 218.237 143.658 217.865C143.658 217.835 143.658 217.751 143.424 217.727L143.334 217.721Z" fill="#FA7C56"/>
<path d="M143.4 57.0593L144.372 56.5613C144.372 56.5613 144.006 57.4733 143.4 57.0593Z" fill="#263238"/>
<path d="M133.981 73.5651L135.649 73.6071C135.694 73.6077 135.739 73.6242 135.774 73.6537C135.809 73.6833 135.832 73.724 135.841 73.7691C136.051 74.8191 137.173 81.1371 136.441 92.4891C135.727 89.1771 133.981 82.1691 133.243 80.6391C133.879 80.1591 134.899 79.3731 134.899 79.3731L133.027 78.1731L133.777 73.7631C133.776 73.7363 133.78 73.7097 133.79 73.6848C133.8 73.66 133.816 73.6376 133.835 73.6189C133.854 73.6003 133.877 73.5859 133.902 73.5766C133.927 73.5673 133.954 73.5634 133.981 73.5651Z" fill="#FA7C56"/>
<path opacity="0.2" d="M133.981 73.5651L135.649 73.6071C135.694 73.6077 135.739 73.6242 135.774 73.6537C135.809 73.6833 135.832 73.724 135.841 73.7691C136.051 74.8191 137.173 81.1371 136.441 92.4891C135.727 89.1771 133.981 82.1691 133.243 80.6391C133.879 80.1591 134.899 79.3731 134.899 79.3731L133.027 78.1731L133.777 73.7631C133.776 73.7363 133.78 73.7097 133.79 73.6848C133.8 73.66 133.816 73.6376 133.835 73.6189C133.854 73.6003 133.877 73.5859 133.902 73.5766C133.927 73.5673 133.954 73.5634 133.981 73.5651Z" fill="white"/>
<path d="M147.726 74.9453L145.752 74.6033C145.752 74.6033 145.578 80.2433 146.382 92.7233C147.096 89.4113 148.578 82.5533 148.662 80.6393C148.026 80.1593 147.006 79.3433 147.006 79.3433L148.878 78.1433L147.726 74.9453Z" fill="#FA7C56"/>
<path opacity="0.2" d="M147.726 74.9453L145.752 74.6033C145.752 74.6033 145.578 80.2433 146.382 92.7233C147.096 89.4113 148.578 82.5533 148.662 80.6393C148.026 80.1593 147.006 79.3433 147.006 79.3433L148.878 78.1433L147.726 74.9453Z" fill="white"/>
<path d="M173.209 152.291H195.835C201.289 152.291 205.711 156.713 205.711 162.167V209.819C205.711 215.274 201.289 219.695 195.835 219.695H173.209C167.755 219.695 163.333 215.274 163.333 209.819V162.167C163.333 156.713 167.755 152.291 173.209 152.291Z" fill="#263238"/>
<path d="M181.536 108.539C180.053 108.541 178.632 109.13 177.584 110.179C176.535 111.227 175.946 112.648 175.944 114.131V178.541C175.946 180.024 176.535 181.445 177.584 182.493C178.632 183.542 180.053 184.132 181.536 184.133H187.5C188.983 184.132 190.404 183.542 191.452 182.493C192.501 181.445 193.09 180.024 193.092 178.541V114.131C193.09 112.648 192.501 111.227 191.452 110.179C190.404 109.13 188.983 108.541 187.5 108.539H181.536ZM181.536 107.465H187.5C189.266 107.47 190.959 108.174 192.208 109.423C193.457 110.672 194.161 112.365 194.166 114.131V178.541C194.161 180.308 193.457 182 192.208 183.249C190.959 184.498 189.266 185.202 187.5 185.207H181.536C179.77 185.202 178.077 184.498 176.828 183.249C175.579 182 174.875 180.308 174.87 178.541V114.131C174.875 112.365 175.579 110.672 176.828 109.423C178.077 108.174 179.77 107.47 181.536 107.465Z" fill="#263238"/>
<path d="M171.631 222.971C170.242 222.971 169.117 221.846 169.117 220.457C169.117 219.069 170.242 217.943 171.631 217.943C173.019 217.943 174.145 219.069 174.145 220.457C174.145 221.846 173.019 222.971 171.631 222.971Z" fill="#263238"/>
<path d="M177.961 220.457C177.954 220.957 178.095 221.447 178.367 221.865C178.639 222.284 179.029 222.613 179.488 222.809C179.946 223.006 180.453 223.062 180.944 222.971C181.434 222.879 181.887 222.644 182.244 222.294C182.6 221.945 182.845 221.498 182.948 221.009C183.05 220.521 183.005 220.013 182.818 219.55C182.631 219.087 182.311 218.69 181.898 218.41C181.485 218.129 180.998 217.977 180.499 217.973C179.834 217.969 179.194 218.227 178.718 218.692C178.243 219.158 177.971 219.792 177.961 220.457Z" fill="#263238"/>
<path d="M192.433 220.457C192.433 220.954 192.58 221.44 192.857 221.854C193.133 222.267 193.526 222.589 193.985 222.78C194.444 222.97 194.95 223.02 195.437 222.923C195.925 222.826 196.373 222.586 196.725 222.235C197.076 221.883 197.316 221.435 197.413 220.948C197.51 220.46 197.46 219.954 197.27 219.495C197.079 219.036 196.757 218.643 196.344 218.367C195.93 218.091 195.444 217.943 194.947 217.943C194.281 217.945 193.642 218.21 193.171 218.681C192.7 219.152 192.435 219.791 192.433 220.457Z" fill="#263238"/>
<path d="M203.797 222.971C202.408 222.971 201.283 221.846 201.283 220.457C201.283 219.069 202.408 217.943 203.797 217.943C205.185 217.943 206.311 219.069 206.311 220.457C206.311 221.846 205.185 222.971 203.797 222.971Z" fill="#263238"/>
<path d="M179.593 152.291H202.219C207.673 152.291 212.095 156.713 212.095 162.167V209.819C212.095 215.274 207.673 219.695 202.219 219.695H179.593C174.138 219.695 169.717 215.274 169.717 209.819V162.167C169.717 156.713 174.138 152.291 179.593 152.291Z" fill="#FA7C56"/>
<path opacity="0.2" d="M179.593 152.291H202.219C207.673 152.291 212.095 156.713 212.095 162.167V209.819C212.095 215.274 207.673 219.695 202.219 219.695H179.593C174.138 219.695 169.717 215.274 169.717 209.819V162.167C169.717 156.713 174.138 152.291 179.593 152.291Z" fill="white"/>
<path d="M184.057 158.567H202.471C206.908 158.567 210.505 162.164 210.505 166.601V205.379C210.505 209.816 206.908 213.413 202.471 213.413H184.057C179.62 213.413 176.023 209.816 176.023 205.379V166.601C176.023 162.164 179.62 158.567 184.057 158.567Z" fill="#FA7C56"/>
<path d="M204.66 209.447C205.267 209.446 205.85 209.204 206.279 208.774C206.709 208.345 206.95 207.763 206.952 207.155V164.831C206.968 164.521 206.921 164.21 206.813 163.919C206.705 163.627 206.539 163.361 206.325 163.135C206.111 162.91 205.853 162.731 205.567 162.608C205.282 162.485 204.974 162.422 204.663 162.422C204.352 162.422 204.045 162.485 203.759 162.608C203.473 162.731 203.216 162.91 203.001 163.135C202.787 163.361 202.621 163.627 202.513 163.919C202.406 164.21 202.358 164.521 202.374 164.831V207.173C202.379 207.777 202.622 208.355 203.05 208.78C203.478 209.206 204.056 209.446 204.66 209.447ZM204.66 163.079C205.125 163.079 205.57 163.264 205.899 163.592C206.227 163.921 206.412 164.367 206.412 164.831V207.173C206.426 207.412 206.391 207.65 206.31 207.875C206.228 208.099 206.101 208.304 205.938 208.478C205.774 208.652 205.576 208.79 205.357 208.884C205.138 208.979 204.902 209.028 204.663 209.028C204.424 209.028 204.188 208.979 203.969 208.884C203.75 208.79 203.552 208.652 203.389 208.478C203.225 208.304 203.098 208.099 203.017 207.875C202.935 207.65 202.9 207.412 202.914 207.173V164.831C202.913 164.602 202.958 164.374 203.045 164.161C203.133 163.949 203.261 163.756 203.423 163.593C203.586 163.43 203.778 163.301 203.991 163.213C204.203 163.125 204.43 163.079 204.66 163.079Z" fill="white"/>
<path d="M181.783 209.447C182.391 209.452 182.977 209.215 183.411 208.789C183.845 208.363 184.092 207.782 184.099 207.173V164.831C184.099 164.223 183.857 163.64 183.427 163.211C182.997 162.781 182.415 162.539 181.807 162.539C181.199 162.539 180.616 162.781 180.186 163.211C179.756 163.64 179.515 164.223 179.515 164.831V207.173C179.521 207.773 179.762 208.347 180.185 208.772C180.609 209.197 181.183 209.44 181.783 209.447ZM181.783 163.079C182.247 163.079 182.693 163.264 183.021 163.592C183.35 163.921 183.535 164.367 183.535 164.831V207.173C183.535 207.638 183.35 208.084 183.021 208.412C182.693 208.741 182.247 208.925 181.783 208.925C181.318 208.925 180.872 208.741 180.544 208.412C180.215 208.084 180.031 207.638 180.031 207.173V164.831C180.031 164.367 180.215 163.921 180.544 163.592C180.872 163.264 181.318 163.079 181.783 163.079Z" fill="white"/>
<path d="M189.408 209.447C190.016 209.446 190.598 209.204 191.027 208.774C191.457 208.345 191.699 207.763 191.7 207.155V164.831C191.7 164.223 191.459 163.64 191.029 163.211C190.599 162.781 190.016 162.539 189.408 162.539C188.8 162.539 188.217 162.781 187.788 163.211C187.358 163.64 187.116 164.223 187.116 164.831V207.173C187.123 207.778 187.367 208.355 187.796 208.781C188.225 209.206 188.804 209.446 189.408 209.447ZM189.408 163.079C189.873 163.079 190.318 163.264 190.647 163.592C190.976 163.921 191.16 164.367 191.16 164.831V207.173C191.16 207.403 191.115 207.631 191.027 207.844C190.939 208.056 190.81 208.249 190.647 208.412C190.484 208.575 190.291 208.704 190.079 208.792C189.866 208.88 189.638 208.925 189.408 208.925C189.178 208.925 188.95 208.88 188.738 208.792C188.525 208.704 188.332 208.575 188.169 208.412C188.007 208.249 187.878 208.056 187.79 207.844C187.702 207.631 187.656 207.403 187.656 207.173V164.831C187.656 164.601 187.702 164.373 187.79 164.161C187.878 163.948 188.007 163.755 188.169 163.592C188.332 163.43 188.525 163.301 188.738 163.213C188.95 163.125 189.178 163.079 189.408 163.079Z" fill="white"/>
<path d="M197.034 209.447C197.641 209.446 198.224 209.204 198.653 208.774C199.083 208.345 199.325 207.763 199.326 207.155V164.831C199.342 164.521 199.295 164.21 199.187 163.919C199.079 163.627 198.913 163.361 198.699 163.135C198.485 162.91 198.227 162.731 197.941 162.608C197.656 162.485 197.348 162.422 197.037 162.422C196.726 162.422 196.419 162.485 196.133 162.608C195.847 162.731 195.59 162.91 195.375 163.135C195.161 163.361 194.995 163.627 194.887 163.919C194.78 164.21 194.732 164.521 194.748 164.831V207.173C194.753 207.777 194.996 208.355 195.424 208.78C195.852 209.206 196.43 209.446 197.034 209.447ZM197.034 163.079C197.499 163.079 197.944 163.264 198.273 163.592C198.602 163.921 198.786 164.367 198.786 164.831V207.173C198.8 207.412 198.765 207.65 198.684 207.875C198.602 208.099 198.475 208.304 198.312 208.478C198.148 208.652 197.95 208.79 197.731 208.884C197.512 208.979 197.276 209.028 197.037 209.028C196.798 209.028 196.562 208.979 196.343 208.884C196.124 208.79 195.926 208.652 195.763 208.478C195.599 208.304 195.472 208.099 195.391 207.875C195.309 207.65 195.274 207.412 195.288 207.173V164.831C195.287 164.602 195.332 164.374 195.419 164.161C195.507 163.949 195.635 163.756 195.797 163.593C195.96 163.43 196.152 163.301 196.365 163.213C196.577 163.125 196.804 163.079 197.034 163.079Z" fill="white"/>
</svg>
