<svg width="274" height="83" viewBox="0 0 274 83" fill="none" xmlns="http://www.w3.org/2000/svg">
<g clip-path="url(#clip0_69_1212)">
<path d="M263.019 82.5408H10.2138C4.65206 82.5408 0.101562 77.9521 0.101562 72.3438V11.1617C0.101562 5.55337 4.65206 0.964722 10.2138 0.964722H263.019C268.581 0.964722 273.132 5.55337 273.132 11.1617V72.3438C273.132 77.9521 268.581 82.5408 263.019 82.5408Z" fill="white"/>
<path d="M93.8344 21.4392C93.8344 22.9057 93.404 24.0729 92.5415 24.9444C91.5627 25.9805 90.2854 26.4985 88.7166 26.4985C87.2137 26.4985 85.9346 25.9735 84.8847 24.9234C83.833 23.8717 83.3071 22.5697 83.3071 21.0157C83.3071 19.4599 83.833 18.1579 84.8847 17.1079C85.9346 16.0561 87.2137 15.5311 88.7166 15.5311C89.4628 15.5311 90.1761 15.6781 90.8529 15.9721C91.5315 16.2661 92.0747 16.6564 92.4808 17.1446L91.5662 18.0686C90.8772 17.2374 89.9279 16.8226 88.7148 16.8226C87.618 16.8226 86.6705 17.2111 85.8704 17.9881C85.0704 18.7652 84.6712 19.7749 84.6712 21.0157C84.6712 22.2564 85.0704 23.2662 85.8704 24.0432C86.6705 24.8202 87.618 25.2087 88.7148 25.2087C89.8776 25.2087 90.8477 24.8184 91.6235 24.0362C92.1267 23.5269 92.4183 22.8182 92.4964 21.9099H88.7148V20.6482H93.7598C93.8119 20.9212 93.8344 21.1854 93.8344 21.4392Z" fill="#4F4F4F" stroke="#4F4F4F" stroke-width="0.142858" stroke-miterlimit="10"/>
<path d="M101.835 17.0537H97.0934V20.3822H101.37V21.644H97.0934V24.9725H101.835V26.264H95.7554V15.7639H101.835V17.0537Z" fill="#4F4F4F" stroke="#4F4F4F" stroke-width="0.142858" stroke-miterlimit="10"/>
<path d="M107.477 26.264H106.139V17.0537H103.23V15.7639H110.386V17.0537H107.477V26.264Z" fill="#4F4F4F" stroke="#4F4F4F" stroke-width="0.142858" stroke-miterlimit="10"/>
<path d="M115.562 26.264V15.7639H116.901V26.264H115.562Z" fill="#4F4F4F" stroke="#4F4F4F" stroke-width="0.142858" stroke-miterlimit="10"/>
<path d="M122.834 26.264H121.496V17.0537H118.587V15.7639H125.743V17.0537H122.834V26.264Z" fill="#4F4F4F" stroke="#4F4F4F" stroke-width="0.142858" stroke-miterlimit="10"/>
<path d="M139.288 24.9078C138.264 25.97 136.992 26.4985 135.47 26.4985C133.948 26.4985 132.676 25.9683 131.654 24.9078C130.63 23.8473 130.12 22.5488 130.12 21.014C130.12 19.4792 130.63 18.1807 131.654 17.1202C132.676 16.058 133.948 15.5277 135.47 15.5277C136.983 15.5277 138.254 16.0615 139.281 17.1272C140.309 18.193 140.822 19.488 140.822 21.014C140.822 22.5488 140.31 23.8473 139.288 24.9078ZM132.641 24.0275C133.412 24.815 134.354 25.207 135.47 25.207C136.586 25.207 137.53 24.8133 138.299 24.0275C139.069 23.24 139.456 22.2355 139.456 21.014C139.456 19.7925 139.069 18.788 138.299 18.0005C137.53 17.213 136.586 16.821 135.47 16.821C134.354 16.821 133.412 17.2147 132.641 18.0005C131.872 18.788 131.485 19.7925 131.485 21.014C131.485 22.2355 131.872 23.24 132.641 24.0275Z" fill="#4F4F4F" stroke="#4F4F4F" stroke-width="0.142858" stroke-miterlimit="10"/>
<path d="M142.7 26.264V15.7639H144.328L149.388 23.9312H149.446L149.388 21.9082V15.7639H150.726V26.264H149.329L144.035 17.6994H143.977L144.035 19.7224V26.264H142.7Z" fill="#4F4F4F" stroke="#4F4F4F" stroke-width="0.142858" stroke-miterlimit="10"/>
<path d="M133.799 47.7089C129.416 47.7089 125.843 51.069 125.843 55.7012C125.843 60.3034 129.416 63.6935 133.799 63.6935C138.182 63.6935 141.755 60.3034 141.755 55.7012C141.755 51.069 138.182 47.7089 133.799 47.7089ZM133.799 60.5439C131.397 60.5439 129.325 58.5463 129.325 55.6993C129.325 52.8241 131.397 50.8547 133.799 50.8547C136.201 50.8547 138.272 52.8223 138.272 55.6993C138.272 58.5463 136.201 60.5439 133.799 60.5439ZM116.443 47.7089C112.06 47.7089 108.488 51.069 108.488 55.7012C108.488 60.3034 112.06 63.6935 116.443 63.6935C120.827 63.6935 124.399 60.3034 124.399 55.7012C124.399 51.069 120.827 47.7089 116.443 47.7089ZM116.443 60.5439C114.041 60.5439 111.969 58.5463 111.969 55.6993C111.969 52.8241 114.041 50.8547 116.443 50.8547C118.846 50.8547 120.916 52.8223 120.916 55.6993C120.916 58.5463 118.844 60.5439 116.443 60.5439ZM95.7969 50.1613V53.5514H103.844C103.603 55.4588 102.974 56.8513 102.012 57.8209C100.842 59.0011 99.0097 60.3034 95.7969 60.3034C90.8435 60.3034 86.9709 56.2762 86.9709 51.2813C86.9709 46.2864 90.8435 42.2592 95.7969 42.2592C98.4692 42.2592 100.42 43.3191 101.861 44.6815L104.233 42.2893C102.222 40.3518 99.5501 38.8691 95.7969 38.8691C89.0116 38.8691 83.3071 44.4391 83.3071 51.2813C83.3071 58.1235 89.0116 63.6935 95.7969 63.6935C99.4607 63.6935 102.222 62.4832 104.384 60.2113C106.606 57.9713 107.297 54.8217 107.297 52.2792C107.297 51.4918 107.237 50.7645 107.116 50.1594H95.7969V50.1613ZM180.232 52.7941C179.572 51.0069 177.56 47.7089 173.447 47.7089C169.364 47.7089 165.972 50.9487 165.972 55.7012C165.972 60.1812 169.334 63.6935 173.838 63.6935C177.47 63.6935 179.572 61.4534 180.443 60.1512L177.74 58.334C176.84 59.6663 175.608 60.5439 173.838 60.5439C172.066 60.5439 170.806 59.7265 169.995 58.1216L180.594 53.7017L180.232 52.7941ZM169.423 55.4588C169.334 52.3712 171.796 50.7965 173.566 50.7965C174.947 50.7965 176.117 51.4918 176.509 52.4915L169.423 55.4588ZM160.808 63.2086H164.291V39.7167H160.808V63.2086ZM155.102 49.4942H154.982C154.202 48.5564 152.701 47.7089 150.81 47.7089C146.846 47.7089 143.214 51.2212 143.214 55.7313C143.214 60.2113 146.846 63.6935 150.81 63.6935C152.701 63.6935 154.202 62.8459 154.982 61.8763H155.102V63.0263C155.102 66.0838 153.48 67.7187 150.868 67.7187C148.736 67.7187 147.414 66.174 146.874 64.8736L143.842 66.1458C144.712 68.2656 147.025 70.8683 150.868 70.8683C154.951 70.8683 158.404 68.446 158.404 62.5434V48.1938H155.102V49.4942ZM151.11 60.5439C148.708 60.5439 146.697 58.5162 146.697 55.7294C146.697 52.9143 148.708 50.8547 151.11 50.8547C153.482 50.8547 155.344 52.9125 155.344 55.7294C155.342 58.5162 153.482 60.5439 151.11 60.5439ZM196.546 39.7167H188.214V63.2086H191.691V54.3087H196.548C200.402 54.3087 204.19 51.4955 204.19 47.0136C204.19 42.5317 200.4 39.7167 196.546 39.7167ZM196.635 51.0389H191.689V42.9865H196.635C199.235 42.9865 200.711 45.157 200.711 47.0136C200.711 48.8327 199.235 51.0389 196.635 51.0389ZM218.126 47.6657C215.608 47.6657 213.001 48.7838 211.922 51.2625L215.01 52.5629C215.67 51.2625 216.898 50.8397 218.188 50.8397C219.986 50.8397 221.814 51.9277 221.844 53.8615V54.1039C221.214 53.7412 219.865 53.1962 218.217 53.1962C214.891 53.1962 211.503 55.0397 211.503 58.4862C211.503 61.6301 214.231 63.654 217.287 63.654C219.626 63.654 220.914 62.596 221.723 61.3576H221.842V63.171H225.198V54.164C225.198 49.9922 222.112 47.6657 218.126 47.6657ZM217.707 60.5402C216.568 60.5402 214.979 59.9651 214.979 58.5444C214.979 56.731 216.958 56.0357 218.665 56.0357C220.193 56.0357 220.912 56.3683 221.842 56.8212C221.572 58.9992 219.714 60.5402 217.707 60.5402ZM237.427 48.1787L233.441 58.364H233.322L229.186 48.1787H225.441L231.645 62.4137L228.107 70.3327H231.734L241.296 48.1787H237.427ZM206.106 63.2086H209.583V39.7167H206.106V63.2086Z" fill="#4F4F4F"/>
<path d="M21.2054 16.3377C20.6169 16.9659 20.269 17.9407 20.269 19.2031V64.3065C20.269 65.5709 20.6169 66.5437 21.2054 67.1718L21.3551 67.3187L46.4112 42.0525V41.7548V41.457L21.3551 16.1888L21.2054 16.3377Z" fill="url(#paint0_linear_69_1212)"/>
<path d="M54.7638 50.4774L46.4131 42.0527V41.7549V41.4571L54.7658 33.0344L54.9539 33.1425L64.8497 38.812C67.6771 40.4313 67.6771 43.0805 64.8497 44.7018L54.9539 50.3714L54.7638 50.4774Z" fill="url(#paint1_linear_69_1212)"/>
<path d="M54.9541 50.3692L46.4133 41.7548L21.2056 67.1718C22.1379 68.167 23.675 68.2894 25.4082 67.2962L54.9541 50.3692Z" fill="url(#paint2_linear_69_1212)"/>
<path d="M54.954 33.1403L25.4102 16.2133C23.6769 15.2201 22.1399 15.3445 21.2075 16.3377L46.4132 41.7548L54.954 33.1403Z" fill="url(#paint3_linear_69_1212)"/>
<path opacity="0.2" d="M54.7659 50.1796L25.4102 66.9985C23.7679 67.9387 22.2996 67.8775 21.3572 67.0209L21.2075 67.1739L21.3572 67.3207C22.2996 68.1773 23.7679 68.2405 25.4102 67.2983L54.954 50.3713L54.7659 50.1796Z" fill="white"/>
<path opacity="0.12" d="M21.2054 66.874C20.6169 66.2459 20.269 65.2711 20.269 64.0087V64.3064C20.269 65.5688 20.6169 66.5436 21.2054 67.1718L21.3551 67.0188L21.2054 66.874Z" fill="white"/>
<path opacity="0.12" d="M64.85 44.4019L54.7661 50.1796L54.9542 50.3692L64.85 44.6997C66.2637 43.89 66.9695 42.8234 66.9695 41.7568C66.8502 42.7215 66.1302 43.6678 64.85 44.4019Z" fill="white"/>
<path opacity="0.25" d="M25.41 16.5111L64.8497 39.1077C66.1319 39.8418 66.8499 40.7881 66.9692 41.7548C66.9692 40.6882 66.2634 39.6195 64.8497 38.8099L25.41 16.2133C22.5827 14.5941 20.271 15.938 20.271 19.2031V19.5009C20.271 16.2378 22.5827 14.8918 25.41 16.5111Z" fill="#4F4F4F"/>
</g>
<defs>
<linearGradient id="paint0_linear_69_1212" x1="44.1899" y1="18.7273" x2="9.96506" y2="52.6676" gradientUnits="userSpaceOnUse">
<stop stop-color="#00A0FF"/>
<stop offset="0.0066" stop-color="#00A1FF"/>
<stop offset="0.2601" stop-color="#00BEFF"/>
<stop offset="0.5122" stop-color="#00D2FF"/>
<stop offset="0.7604" stop-color="#00DFFF"/>
<stop offset="1" stop-color="#00E3FF"/>
</linearGradient>
<linearGradient id="paint1_linear_69_1212" x1="68.5293" y1="41.7557" x2="19.5924" y2="41.7557" gradientUnits="userSpaceOnUse">
<stop stop-color="#FFE000"/>
<stop offset="0.4087" stop-color="#FFBD00"/>
<stop offset="0.7754" stop-color="#FFA500"/>
<stop offset="1" stop-color="#FF9C00"/>
</linearGradient>
<linearGradient id="paint2_linear_69_1212" x1="50.3126" y1="46.4354" x2="3.9009" y2="92.4612" gradientUnits="userSpaceOnUse">
<stop stop-color="#FF3A44"/>
<stop offset="1" stop-color="#C31162"/>
</linearGradient>
<linearGradient id="paint3_linear_69_1212" x1="14.8597" y1="1.32405" x2="35.5846" y2="21.8764" gradientUnits="userSpaceOnUse">
<stop stop-color="#32A071"/>
<stop offset="0.0685" stop-color="#2DA771"/>
<stop offset="0.4762" stop-color="#15CF74"/>
<stop offset="0.8009" stop-color="#06E775"/>
<stop offset="1" stop-color="#00F076"/>
</linearGradient>
<clipPath id="clip0_69_1212">
<rect width="273.03" height="81.576" fill="white" transform="translate(0.101562 0.964722)"/>
</clipPath>
</defs>
</svg>
