<svg width="298" height="112" viewBox="0 0 298 112" fill="none" xmlns="http://www.w3.org/2000/svg">
<path d="M254.543 95.067C214.419 96.4465 83.5281 110.891 41.9777 112.087C0.427247 113.283 -12.8204 72.9664 17.4249 53.8509C47.6703 34.7354 65.3651 45.4634 65.3651 45.4634C65.3651 45.4634 60.7361 15.1577 84.917 4.38019C109.093 -6.39556 138.501 6.28318 140.622 41.5053C140.622 41.5053 140.631 30.6401 158.832 22.9108C177.032 15.1815 206.685 20.2356 225.3 36.9356C243.916 53.6355 237.888 66.5731 232.298 71.3422C232.298 71.3422 266.681 66.179 287.597 73.1728C308.513 80.1667 294.667 93.6876 254.543 95.067Z" fill="#F1D9F3" fill-opacity="0.2"/>
</svg>
