<svg width="43" height="43" viewBox="0 0 43 43" fill="none" xmlns="http://www.w3.org/2000/svg">
<path d="M12.7999 0.828857C6.12387 0.828857 0.693359 6.33848 0.693359 13.1073V30.6429C0.693359 37.4099 6.1289 42.9145 12.8066 42.9145H30.1065C36.7825 42.9145 42.213 37.4048 42.213 30.6361V13.1004C42.213 6.33339 36.7775 0.828857 30.0997 0.828857H12.7999ZM33.5631 7.84313C34.5181 7.84313 35.2931 8.62873 35.2931 9.59669C35.2931 10.5647 34.5181 11.3503 33.5631 11.3503C32.6081 11.3503 31.8331 10.5647 31.8331 9.59669C31.8331 8.62873 32.6081 7.84313 33.5631 7.84313ZM21.4532 11.3503C27.1777 11.3503 31.8331 16.0691 31.8331 21.8717C31.8331 27.6742 27.1777 32.3931 21.4532 32.3931C15.7287 32.3931 11.0733 27.6742 11.0733 21.8717C11.0733 16.0691 15.7287 11.3503 21.4532 11.3503ZM21.4532 14.8574C19.6179 14.8574 17.8578 15.5964 16.5601 16.9118C15.2623 18.2273 14.5332 20.0114 14.5332 21.8717C14.5332 23.732 15.2623 25.5161 16.5601 26.8315C17.8578 28.1469 19.6179 28.8859 21.4532 28.8859C23.2885 28.8859 25.0486 28.1469 26.3463 26.8315C27.6441 25.5161 28.3731 23.732 28.3731 21.8717C28.3731 20.0114 27.6441 18.2273 26.3463 16.9118C25.0486 15.5964 23.2885 14.8574 21.4532 14.8574Z" fill="white"/>
</svg>
