<svg width="38" height="42" viewBox="0 0 38 42" fill="none" xmlns="http://www.w3.org/2000/svg">
<path d="M8.43789 41.0005V13.8952H0.499184V41.0005H8.43872H8.43789ZM4.4702 10.195C7.23801 10.195 8.96116 8.11367 8.96116 5.51254C8.90935 2.85214 7.23801 0.828857 4.52283 0.828857C1.80579 0.828857 0.03125 2.85214 0.03125 5.5123C0.03125 8.11343 1.75378 10.1948 4.41818 10.1948H4.46957L4.4702 10.195ZM12.8321 41.0005H20.7702V25.8653C20.7702 25.0563 20.822 24.2451 21.0317 23.6673C21.6053 22.0481 22.9115 20.3719 25.1051 20.3719C27.9769 20.3719 29.1264 22.8573 29.1264 26.5015V41.0005H37.0643V25.4592C37.0643 17.1339 33.1484 13.2597 27.9255 13.2597C23.6435 13.2597 21.7628 15.9758 20.7179 17.8258H20.7708V13.8961H12.8325C12.9361 16.4389 12.8319 41.0015 12.8319 41.0015L12.8321 41.0005Z" fill="white"/>
</svg>
