<svg width="232" height="34" viewBox="0 0 232 34" fill="none" xmlns="http://www.w3.org/2000/svg">
    <path
        d="M57.8379 32.9548C56.6647 32.9548 55.7136 32.0038 55.7136 30.8306V28.799L55.3257 27.8887V20.4479C55.3257 19.1286 54.9247 18.0995 54.1229 17.3607C53.3469 16.6219 52.1442 16.2525 50.5146 16.2525C49.4024 16.2525 48.3031 16.4372 47.2168 16.8066C47.0148 16.872 46.8184 16.9421 46.6277 17.017C45.451 17.4791 43.9635 17.1646 43.3949 16.0354V16.0354C42.7806 14.8157 43.1387 13.3029 44.3869 12.7488C45.0229 12.4664 45.7075 12.2227 46.4408 12.0176C48.0445 11.569 49.674 11.3447 51.3294 11.3447C54.5109 11.3447 56.9811 12.1099 58.7399 13.6403C60.4988 15.1707 61.3782 17.5586 61.3782 20.8041V29.4145C61.3782 31.3697 59.7932 32.9548 57.8379 32.9548V32.9548ZM49.3507 33.2715C47.7212 33.2715 46.3244 32.9944 45.1604 32.4403C43.9965 31.8598 43.1041 31.0814 42.4833 30.1051C41.8626 29.1289 41.5522 28.0338 41.5522 26.8201C41.5522 25.5536 41.8496 24.4454 42.4446 23.4955C43.0653 22.5456 44.0353 21.8068 45.3544 21.279C46.6736 20.7249 48.3937 20.4479 50.5146 20.4479H56.0628V24.0496H51.1742C49.7516 24.0496 48.7687 24.287 48.2255 24.762C47.7082 25.2369 47.4496 25.8306 47.4496 26.543C47.4496 27.3346 47.747 27.9679 48.3419 28.4428C48.9627 28.8914 49.8033 29.1157 50.8638 29.1157C51.8726 29.1157 52.7779 28.8782 53.5797 28.4032C54.3816 27.9019 54.9635 27.1763 55.3257 26.2264L56.2568 29.0761C55.8171 30.4482 55.0153 31.4904 53.8513 32.2028C52.6874 32.9152 51.1872 33.2715 49.3507 33.2715Z"
        fill="url(#paint0_linear_1_328)" />
    <path fill-rule="evenodd" clip-rule="evenodd"
        d="M61.3785 24.8001L61.3785 22.3086C61.3785 22.3086 59.8903 26.1001 58.3004 28.2666C57.5434 29.2981 55.8627 30.4332 55.8627 30.4332L55.7311 30.6498C55.7946 30.5791 55.6704 30.8872 55.7312 30.8136V32.8386C55.7312 33.078 55.9211 33.272 56.1552 33.272H60.9545C61.1887 33.272 61.3785 33.078 61.3785 32.8386V24.8001Z"
        fill="url(#paint1_linear_1_328)" />
    <path fill-rule="evenodd" clip-rule="evenodd"
        d="M13.8439 3.68669C13.8439 1.82821 15.299 0.317098 17.1343 0.308663C17.7818 0.305687 18.5053 0.304199 19.3049 0.304199C22.0029 0.304199 23.8395 0.320734 24.8147 0.353804C28.5204 0.486077 31.2945 1.412 33.1149 3.13156C34.9352 4.81806 35.8454 7.09979 35.8454 9.97676C35.8454 12.4238 35.2278 14.5071 33.9926 16.2267C32.9167 17.7353 32.0131 18.3172 30.055 19.3465C29.7844 19.4265 28.6259 19.8612 28.4791 20.0082C28.8162 20.3879 30.0162 20.9047 30.3664 21.4051C30.505 21.6032 30.8676 21.7096 31.0191 21.9198C31.1874 22.1454 31.5108 22.2812 31.7444 22.5815C32.5039 23.5578 33.6731 24.8273 34.6426 26.3953C35.7013 28.1026 36.7701 29.9247 37.8492 31.8615C38.2309 32.5464 37.7393 33.3893 36.9627 33.3893H30.856C30.2285 33.3893 29.652 33.0397 29.3558 32.4797L24.3271 22.9727C23.742 21.8814 23.2057 21.2035 22.7181 20.939C22.263 20.6414 21.5641 20.4926 20.6214 20.4926V31.6661C20.6214 32.6178 19.8595 33.3893 18.9196 33.3893H15.5456C14.6058 33.3893 13.8439 32.6178 13.8439 31.6661V25.9616C13.8428 25.4627 13.9309 25.4471 13.3325 25.4627C6.69533 25.635 9.58933 20.8101 13.8433 18.2253C13.8448 18.2276 13.8463 18.2299 13.8478 18.2322C14.8022 17.4088 16.0508 16.6016 17.283 15.8048C17.6548 15.5644 18.0251 15.325 18.3854 15.0863L20.4325 13.6701C20.4325 13.6701 21.554 12.8621 21.68 12.7729C21.9889 12.5544 22.4477 12.2387 22.9114 11.9197C23.3827 11.5955 23.859 11.2678 24.1882 11.035C24.3908 10.8918 24.4232 11.1247 24.4232 11.1247L25.5603 14.8841C25.6174 15.0826 25.8019 15.1491 25.97 15.0319L26.1449 14.8841C26.3128 14.7667 26.4574 14.502 26.4659 14.2957V9.60931C26.4659 9.60931 26.4612 9.44381 26.5748 9.35781C26.982 9.04958 28.4791 7.71388 28.4791 7.71388C28.9896 7.19693 29.4468 6.3728 29.1598 5.9907C28.8971 5.64102 27.9685 5.81838 27.2878 6.16302C27.2878 6.16302 25.6856 6.98636 25.1923 7.28045C25.0755 7.3501 24.9813 7.2998 24.9813 7.2998L20.6275 5.55227C20.4339 5.4865 20.1382 5.52861 19.9702 5.64597L19.7194 5.84589C19.5512 5.96305 19.5468 6.16112 19.7095 6.28589L22.7958 8.71771C22.7958 8.71771 23.0349 8.89914 22.8484 9.02255C22.2176 9.44001 21.1587 10.1836 20.5307 10.6246L20.4429 10.6863C20.4242 10.6994 20.401 10.7147 20.3743 10.7318C17.5421 12.2026 14.2532 10.7132 13.8439 7.18633V5.64741V3.68669Z"
        fill="url(#paint2_linear_1_328)" />
    <path fill-rule="evenodd" clip-rule="evenodd"
        d="M13.8144 25.5243C13.7637 25.4557 13.6372 25.4555 13.3314 25.4635C6.69423 25.6358 9.55188 20.6705 13.6854 18.233L13.8144 18.0972C14.7689 17.2739 16.0497 16.6023 17.2819 15.8056C17.6537 15.5652 18.024 15.3257 18.3843 15.0871L20.4314 13.6709C20.4314 13.6709 21.5529 12.8629 21.6789 12.7737C21.9877 12.5552 22.4463 12.2397 22.9099 11.9208L22.9103 11.9205C23.3816 11.5963 23.8579 11.2686 24.1871 11.0358C24.3595 10.914 24.4086 11.0644 24.4195 11.112C24.4192 11.1122 24.4189 11.1125 24.4186 11.1127C10.9004 22.1117 11.7755 25.2535 13.9029 25.4496L13.8144 25.5243Z"
        fill="url(#paint3_linear_1_328)" />
    <path
        d="M20.4854 14.5059C15.5387 19.3627 14.0035 23.7138 13.9048 25.5956C11.4388 25.081 12.9626 23.0958 13.6156 21.7724L14.8484 20.1549L16.5165 18.1699C17.8243 16.8971 19.2303 15.6167 20.4854 14.5059C21.5945 13.417 22.875 12.3027 24.3492 11.1852C24.4606 11.1007 22.7102 12.5368 20.4854 14.5059Z"
        fill="url(#paint4_linear_1_328)" />
    <path fill-rule="evenodd" clip-rule="evenodd"
        d="M38.0301 32.5768C37.9344 33.0227 37.5463 33.389 37.0343 33.389H30.9276C30.3002 33.389 29.7237 33.0395 29.4275 32.4794L24.346 23.0222C23.7609 21.9309 23.3107 21.3752 22.8231 21.1106C22.376 20.8182 21.6603 20.4976 20.7426 20.4924L20.6168 20.4923C25.2888 18.0228 29.2774 18.5215 34.578 26.1769C34.6236 26.2491 34.669 26.3218 34.7143 26.395C35.3179 27.3686 35.9249 28.3794 36.5352 29.4275C37.0421 30.3887 37.5414 31.4362 38.0301 32.5768Z"
        fill="url(#paint5_linear_1_328)" />
    <path fill-rule="evenodd" clip-rule="evenodd"
        d="M19.9918 5.60187C18.317 3.78147 17.3203 1.90387 17.2385 0.30797C17.8449 0.305456 18.5155 0.304199 19.2504 0.304199C21.9485 0.304199 23.7851 0.320734 24.7602 0.353804C28.466 0.486077 31.2401 1.412 33.0604 3.13156C34.8808 4.81806 35.7909 7.09979 35.7909 9.97676C35.7909 10.905 35.7021 11.781 35.5243 12.6046C33.0352 12.8089 29.7317 12.0444 26.4114 10.3516V9.60931C26.4114 9.60931 26.4068 9.44381 26.5204 9.35781C26.9275 9.04958 28.4246 7.71388 28.4246 7.71388C28.9351 7.19693 29.3923 6.3728 29.1053 5.9907C28.8426 5.64102 27.9141 5.81838 27.2334 6.16302C27.2334 6.16302 25.6311 6.98636 25.1378 7.28045C25.021 7.3501 24.9268 7.2998 24.9268 7.2998L20.5731 5.55227C20.4061 5.49555 20.1632 5.51906 19.9918 5.60187Z"
        fill="white" fill-opacity="0.13" />
    <path
        d="M92.7424 11.7474C94.4098 11.7474 95.8818 12.0907 97.1584 12.7774C98.461 13.4377 99.4771 14.4678 100.207 15.8677C100.962 17.2411 101.34 19.0107 101.34 21.1765V31.574C101.34 32.5708 100.532 33.3789 99.5349 33.3789H97.0485C96.0516 33.3789 95.2435 32.5708 95.2435 31.574V22.1273C95.2435 20.4106 94.8918 19.1428 94.1884 18.324C93.485 17.5052 92.4949 17.0958 91.2184 17.0958C90.3326 17.0958 89.5379 17.3071 88.8345 17.7297C88.1311 18.1259 87.584 18.7334 87.1932 19.5522C86.8024 20.3709 86.607 21.4142 86.607 22.682V33.3789H82.3156C81.3187 33.3789 80.5106 32.5708 80.5106 31.574V22.1273C80.5106 20.4106 80.1589 19.1428 79.4555 18.324C78.7781 17.5052 77.8011 17.0958 76.5246 17.0958C75.6388 17.0958 74.8441 17.3071 74.1407 17.7297C73.4373 18.1259 72.8902 18.7334 72.4994 19.5522C72.1086 20.3709 71.9132 21.4142 71.9132 22.682V31.574C71.9132 32.5708 71.1051 33.3789 70.1082 33.3789H67.5931C66.6121 33.3789 65.8168 32.5837 65.8168 31.6027V14.9757C65.8168 13.3678 67.1203 12.0643 68.7282 12.0643V12.0643C70.3362 12.0643 71.6396 13.3678 71.6396 14.9757V17.8882L70.5454 16.1846C71.2749 14.7319 72.304 13.6358 73.6327 12.8963C74.9874 12.1303 76.5245 11.7474 78.244 11.7474C80.1719 11.7474 81.8524 12.2492 83.2853 13.2529C84.7442 14.2301 85.7082 15.7356 86.1771 17.7693L84.0278 17.1751C84.7312 15.5111 85.8515 14.1905 87.3886 13.2132C88.9518 12.236 90.7364 11.7474 92.7424 11.7474Z"
        fill="url(#paint6_linear_1_328)" />
    <path
        d="M174.615 33.6959C172.765 33.6959 171.176 33.2997 169.847 32.5073C168.518 31.715 167.502 30.5132 166.799 28.9021C166.095 27.2645 165.744 25.2044 165.744 22.7216C165.744 20.2125 166.108 18.1523 166.838 16.5412C167.593 14.93 168.636 13.7283 169.964 12.9359C171.293 12.1435 172.843 11.7474 174.615 11.7474C176.595 11.7474 178.366 12.1964 179.929 13.0944C181.519 13.9924 182.769 15.2602 183.681 16.8977C184.619 18.5353 185.088 20.4766 185.088 22.7216C185.088 24.9402 184.619 26.8683 183.681 28.5059C182.769 30.1434 181.519 31.4244 179.929 32.3489C178.366 33.2469 176.595 33.6959 174.615 33.6959ZM163.969 33.3789C162.985 33.3789 162.187 32.5813 162.187 31.5973V7.03036C162.187 5.34689 163.552 3.98218 165.236 3.98218V3.98218C166.919 3.98218 168.284 5.3469 168.284 7.03036V16.3827L167.893 22.682L168.01 29.0209V31.574C168.01 32.5708 167.202 33.3789 166.205 33.3789H163.969ZM173.56 28.6247C174.576 28.6247 175.474 28.387 176.256 27.9116C177.064 27.4362 177.702 26.7627 178.171 25.8911C178.666 24.9931 178.913 23.9366 178.913 22.7216C178.913 21.4802 178.666 20.4238 178.171 19.5522C177.702 18.6806 177.064 18.007 176.256 17.5316C175.474 17.0562 174.576 16.8185 173.56 16.8185C172.543 16.8185 171.632 17.0562 170.824 17.5316C170.016 18.007 169.378 18.6806 168.909 19.5522C168.44 20.4238 168.206 21.4802 168.206 22.7216C168.206 23.9366 168.44 24.9931 168.909 25.8911C169.378 26.7627 170.016 27.4362 170.824 27.9116C171.632 28.387 172.543 28.6247 173.56 28.6247Z"
        fill="url(#paint7_linear_1_328)" />
    <path
        d="M189.611 33.3789C189.367 33.3789 189.169 33.181 189.169 32.9369V7.03036C189.169 5.34689 190.534 3.98218 192.217 3.98218V3.98218C193.901 3.98218 195.265 5.3469 195.265 7.03036V32.9369C195.265 33.181 195.067 33.3789 194.823 33.3789H189.611Z"
        fill="url(#paint8_linear_1_328)" />
    <path
        d="M211.357 33.6959C208.961 33.6959 206.85 33.2205 205.027 32.2696C203.229 31.3188 201.835 30.0246 200.845 28.387C199.855 26.7231 199.36 24.8346 199.36 22.7216C199.36 20.5822 199.842 18.6938 200.806 17.0562C201.796 15.3922 203.138 14.098 204.831 13.1736C206.525 12.2228 208.44 11.7474 210.576 11.7474C212.634 11.7474 214.484 12.1964 216.125 13.0944C217.792 13.966 219.108 15.2338 220.072 16.8977C221.036 18.5353 221.518 20.503 221.518 22.8009C221.518 23.0386 221.505 23.3159 221.479 23.6328C221.453 23.9234 221.427 24.2007 221.401 24.4648H204.323V20.8596H218.196L215.852 21.9293C215.852 20.8199 215.63 19.8559 215.187 19.0371C214.744 18.2183 214.132 17.5845 213.35 17.1354C212.569 16.66 211.657 16.4223 210.615 16.4223C209.573 16.4223 208.648 16.66 207.84 17.1354C207.059 17.5845 206.446 18.2316 206.004 19.0767C205.561 19.8955 205.339 20.8728 205.339 22.0085V22.9593C205.339 24.1215 205.587 25.1515 206.082 26.0496C206.603 26.9212 207.319 27.5947 208.231 28.0701C209.169 28.5191 210.263 28.7436 211.514 28.7436C212.634 28.7436 213.611 28.5719 214.445 28.2286C214.569 28.179 214.691 28.1258 214.812 28.0691C216.012 27.5058 217.53 27.4972 218.422 28.4779V28.4779C219.341 29.4879 219.376 31.0655 218.246 31.8327C217.682 32.2158 217.066 32.5463 216.399 32.8243C214.94 33.4054 213.259 33.6959 211.357 33.6959Z"
        fill="url(#paint9_linear_1_328)" />
    <path
        d="M146.353 33.6959C144.503 33.6959 142.914 33.2997 141.585 32.5073C140.256 31.715 139.24 30.5132 138.537 28.9021C137.833 27.2645 137.482 25.2044 137.482 22.7216C137.482 20.2125 137.846 18.1523 138.576 16.5412C139.331 14.93 140.374 13.7283 141.702 12.9359C143.031 12.1435 144.581 11.7474 146.353 11.7474C148.333 11.7474 150.104 12.1964 151.667 13.0944C153.257 13.9924 154.507 15.2602 155.419 16.8977C156.357 18.5353 156.826 20.4766 156.826 22.7216C156.826 24.9402 156.357 26.8683 155.419 28.5059C154.507 30.1434 153.257 31.4244 151.667 32.3489C150.104 33.2469 148.333 33.6959 146.353 33.6959ZM135.683 33.3789C134.712 33.3789 133.925 32.5813 133.925 31.5973V7.07241C133.925 5.36572 135.29 3.98218 136.974 3.98218C138.657 3.98218 140.022 5.36572 140.022 7.0724V16.3827L139.631 22.682L139.748 29.0209V30.6612C139.748 32.1622 138.548 33.3789 137.067 33.3789H135.683ZM145.298 28.6247C146.314 28.6247 147.212 28.387 147.994 27.9116C148.802 27.4362 149.44 26.7627 149.909 25.8911C150.404 24.9931 150.651 23.9366 150.651 22.7216C150.651 21.4802 150.404 20.4238 149.909 19.5522C149.44 18.6806 148.802 18.007 147.994 17.5316C147.212 17.0562 146.314 16.8185 145.298 16.8185C144.281 16.8185 143.37 17.0562 142.562 17.5316C141.754 18.007 141.116 18.6806 140.647 19.5522C140.178 20.4238 139.944 21.4802 139.944 22.7216C139.944 23.9366 140.178 24.9931 140.647 25.8911C141.116 26.7627 141.754 27.4362 142.562 27.9116C143.37 28.387 144.281 28.6247 145.298 28.6247Z"
        fill="url(#paint10_linear_1_328)" />
    <path
        d="M146.353 33.6959C144.503 33.6959 142.914 33.2997 141.585 32.5073C140.256 31.715 139.24 30.5132 138.537 28.9021C137.833 27.2645 137.482 25.2044 137.482 22.7216C137.482 20.2125 137.846 18.1523 138.576 16.5412C139.331 14.93 140.374 13.7283 141.702 12.9359C143.031 12.1435 144.581 11.7474 146.353 11.7474C148.333 11.7474 150.104 12.1964 151.667 13.0944C153.257 13.9924 154.507 15.2602 155.419 16.8977C156.357 18.5353 156.826 20.4766 156.826 22.7216C156.826 24.9402 156.357 26.8683 155.419 28.5059C154.507 30.1434 153.257 31.4244 151.667 32.3489C150.104 33.2469 148.333 33.6959 146.353 33.6959ZM135.683 33.3789C134.712 33.3789 133.925 32.5813 133.925 31.5973V7.07241C133.925 5.36572 135.29 3.98218 136.974 3.98218C138.657 3.98218 140.022 5.36572 140.022 7.0724V16.3827L139.631 22.682L139.748 29.0209V30.6612C139.748 32.1622 138.548 33.3789 137.067 33.3789H135.683ZM145.298 28.6247C146.314 28.6247 147.212 28.387 147.994 27.9116C148.802 27.4362 149.44 26.7627 149.909 25.8911C150.404 24.9931 150.651 23.9366 150.651 22.7216C150.651 21.4802 150.404 20.4238 149.909 19.5522C149.44 18.6806 148.802 18.007 147.994 17.5316C147.212 17.0562 146.314 16.8185 145.298 16.8185C144.281 16.8185 143.37 17.0562 142.562 17.5316C141.754 18.007 141.116 18.6806 140.647 19.5522C140.178 20.4238 139.944 21.4802 139.944 22.7216C139.944 23.9366 140.178 24.9931 140.647 25.8911C141.116 26.7627 141.754 27.4362 142.562 27.9116C143.37 28.387 144.281 28.6247 145.298 28.6247Z"
        fill="url(#paint11_linear_1_328)" />
    <path
        d="M119.659 33.6959C117.809 33.6959 116.22 33.2997 114.891 32.5073C113.562 31.715 112.546 30.5132 111.843 28.9021C111.139 27.2645 110.788 25.2044 110.788 22.7216C110.788 20.2125 111.152 18.1523 111.882 16.5412C112.637 14.93 113.679 13.7283 115.008 12.9359C116.337 12.1435 117.887 11.7474 119.659 11.7474C121.639 11.7474 123.41 12.1964 124.973 13.0944C126.563 13.9924 127.813 15.2602 128.725 16.8977C129.663 18.5353 130.132 20.4766 130.132 22.7216C130.132 24.9402 129.663 26.8683 128.725 28.5059C127.813 30.1434 126.563 31.4244 124.973 32.3489C123.41 33.2469 121.639 33.6959 119.659 33.6959ZM108.989 33.3789C108.018 33.3789 107.231 32.5813 107.231 31.5973V7.07241C107.231 5.36572 108.596 3.98218 110.28 3.98218C111.963 3.98218 113.328 5.36572 113.328 7.0724V16.3827L112.937 22.682L113.054 29.0209V30.6612C113.054 32.1622 111.854 33.3789 110.373 33.3789H108.989ZM118.603 28.6247C119.62 28.6247 120.518 28.387 121.3 27.9116C122.108 27.4362 122.746 26.7627 123.215 25.8911C123.71 24.9931 123.957 23.9366 123.957 22.7216C123.957 21.4802 123.71 20.4238 123.215 19.5522C122.746 18.6806 122.108 18.007 121.3 17.5316C120.518 17.0562 119.62 16.8185 118.603 16.8185C117.587 16.8185 116.676 17.0562 115.868 17.5316C115.06 18.007 114.422 18.6806 113.953 19.5522C113.484 20.4238 113.25 21.4802 113.25 22.7216C113.25 23.9366 113.484 24.9931 113.953 25.8911C114.422 26.7627 115.06 27.4362 115.868 27.9116C116.676 28.387 117.587 28.6247 118.603 28.6247Z"
        fill="url(#paint12_linear_1_328)" />
    <path
        d="M119.659 33.6959C117.809 33.6959 116.22 33.2997 114.891 32.5073C113.562 31.715 112.546 30.5132 111.843 28.9021C111.139 27.2645 110.788 25.2044 110.788 22.7216C110.788 20.2125 111.152 18.1523 111.882 16.5412C112.637 14.93 113.679 13.7283 115.008 12.9359C116.337 12.1435 117.887 11.7474 119.659 11.7474C121.639 11.7474 123.41 12.1964 124.973 13.0944C126.563 13.9924 127.813 15.2602 128.725 16.8977C129.663 18.5353 130.132 20.4766 130.132 22.7216C130.132 24.9402 129.663 26.8683 128.725 28.5059C127.813 30.1434 126.563 31.4244 124.973 32.3489C123.41 33.2469 121.639 33.6959 119.659 33.6959ZM108.989 33.3789C108.018 33.3789 107.231 32.5813 107.231 31.5973V7.07241C107.231 5.36572 108.596 3.98218 110.28 3.98218C111.963 3.98218 113.328 5.36572 113.328 7.0724V16.3827L112.937 22.682L113.054 29.0209V30.6612C113.054 32.1622 111.854 33.3789 110.373 33.3789H108.989ZM118.603 28.6247C119.62 28.6247 120.518 28.387 121.3 27.9116C122.108 27.4362 122.746 26.7627 123.215 25.8911C123.71 24.9931 123.957 23.9366 123.957 22.7216C123.957 21.4802 123.71 20.4238 123.215 19.5522C122.746 18.6806 122.108 18.007 121.3 17.5316C120.518 17.0562 119.62 16.8185 118.603 16.8185C117.587 16.8185 116.676 17.0562 115.868 17.5316C115.06 18.007 114.422 18.6806 113.953 19.5522C113.484 20.4238 113.25 21.4802 113.25 22.7216C113.25 23.9366 113.484 24.9931 113.953 25.8911C114.422 26.7627 115.06 27.4362 115.868 27.9116C116.676 28.387 117.587 28.6247 118.603 28.6247Z"
        fill="url(#paint13_linear_1_328)" />
    <path fill-rule="evenodd" clip-rule="evenodd"
        d="M168.01 32.5077V33.061C168.01 33.3041 167.816 33.5012 167.576 33.5012H162.622C162.382 33.5012 162.187 33.3041 162.187 33.061V21.8103C162.187 21.8103 162.927 23.8651 163.528 25.1242C164.097 26.3152 164.381 27.0194 165.157 28.0832C166.089 29.3606 168.01 30.9445 168.01 30.9445V32.5077Z"
        fill="url(#paint14_linear_1_328)" />
    <path fill-rule="evenodd" clip-rule="evenodd"
        d="M139.862 32.5077V33.061C139.862 33.3041 139.668 33.5012 139.428 33.5012H134.473C134.234 33.5012 134.039 33.3041 134.039 33.061V21.8103C134.039 21.8103 134.779 23.8651 135.38 25.1242C135.949 26.3152 136.232 27.0194 137.009 28.0832C137.941 29.3606 139.862 30.9445 139.862 30.9445V32.5077Z"
        fill="url(#paint15_linear_1_328)" />
    <path fill-rule="evenodd" clip-rule="evenodd"
        d="M113.054 32.5077V33.061C113.054 33.3041 112.86 33.5012 112.62 33.5012H107.666C107.426 33.5012 107.231 33.3041 107.231 33.061V21.8103C107.231 21.8103 107.971 23.8651 108.572 25.1242C109.141 26.3152 109.425 27.0194 110.201 28.0832C111.133 29.3606 113.054 30.9445 113.054 30.9445V32.5077Z"
        fill="url(#paint16_linear_1_328)" />
    <path fill-rule="evenodd" clip-rule="evenodd"
        d="M205.267 32.2697C207.091 33.2205 209.201 33.6959 211.598 33.6959C213.5 33.6959 215.18 33.4054 216.639 32.8243C217.297 32.5503 217.905 32.2253 218.463 31.8492C219.602 31.0801 219.569 29.4739 218.64 28.4535C217.757 27.4822 216.269 27.49 215.089 28.0521C214.957 28.1152 214.822 28.1741 214.685 28.2286C213.852 28.572 212.875 28.7436 211.755 28.7436C210.504 28.7436 209.41 28.5191 208.472 28.0701C207.56 27.5947 206.844 26.9212 206.323 26.0496C206.053 25.5605 205.857 25.0323 205.734 24.4649L199.718 24.4517C199.919 25.8794 200.374 27.1912 201.086 28.3871C202.076 30.0246 203.47 31.3188 205.267 32.2697Z"
        fill="url(#paint17_linear_1_328)" />
    <defs>
        <linearGradient id="paint0_linear_1_328" x1="52.2417" y1="-5.38706" x2="52.2417" y2="42.8498"
            gradientUnits="userSpaceOnUse">
            <stop stop-color="#F97D57" />
            <stop offset="1" stop-color="#EC6C59" />
        </linearGradient>
        <linearGradient id="paint1_linear_1_328" x1="57.4525" y1="29.8916" x2="58.59" y2="33.2572"
            gradientUnits="userSpaceOnUse">
            <stop stop-color="#E05D5A" />
            <stop offset="1" stop-color="#EB6A59" />
        </linearGradient>
        <linearGradient id="paint2_linear_1_328" x1="18.4003" y1="30.3749" x2="25.7659" y2="3.00104"
            gradientUnits="userSpaceOnUse">
            <stop stop-color="#F76362" />
            <stop offset="1" stop-color="#FB8C4D" />
        </linearGradient>
        <linearGradient id="paint3_linear_1_328" x1="10.3496" y1="25.5965" x2="18.5562" y2="13.0531"
            gradientUnits="userSpaceOnUse">
            <stop stop-color="#FFD232" />
            <stop offset="0.440977" stop-color="#FAFF00" />
            <stop offset="1" stop-color="#FFA723" />
        </linearGradient>
        <linearGradient id="paint4_linear_1_328" x1="13.6872" y1="20.3755" x2="18.4883" y2="27.1514"
            gradientUnits="userSpaceOnUse">
            <stop stop-color="#DC605F" />
            <stop offset="1" stop-color="#F86463" />
        </linearGradient>
        <linearGradient id="paint5_linear_1_328" x1="23.6933" y1="19.5669" x2="29.5089" y2="33.3325"
            gradientUnits="userSpaceOnUse">
            <stop stop-color="#E15E5B" />
            <stop offset="1" stop-color="#FB8C4E" />
        </linearGradient>
        <linearGradient id="paint6_linear_1_328" x1="138.106" y1="3.88524" x2="141.063" y2="33.688"
            gradientUnits="userSpaceOnUse">
            <stop stop-color="#F97D56" />
            <stop offset="1" stop-color="#E4605A" />
        </linearGradient>
        <linearGradient id="paint7_linear_1_328" x1="138.106" y1="3.88524" x2="141.063" y2="33.688"
            gradientUnits="userSpaceOnUse">
            <stop stop-color="#F97D56" />
            <stop offset="1" stop-color="#E4605A" />
        </linearGradient>
        <linearGradient id="paint8_linear_1_328" x1="138.106" y1="3.88524" x2="141.063" y2="33.688"
            gradientUnits="userSpaceOnUse">
            <stop stop-color="#F97D56" />
            <stop offset="1" stop-color="#E4605A" />
        </linearGradient>
        <linearGradient id="paint9_linear_1_328" x1="138.106" y1="3.88524" x2="141.063" y2="33.688"
            gradientUnits="userSpaceOnUse">
            <stop stop-color="#F97D56" />
            <stop offset="1" stop-color="#E4605A" />
        </linearGradient>
        <linearGradient id="paint10_linear_1_328" x1="138.106" y1="3.88524" x2="141.063" y2="33.688"
            gradientUnits="userSpaceOnUse">
            <stop stop-color="#F97D56" />
            <stop offset="1" stop-color="#E4605A" />
        </linearGradient>
        <linearGradient id="paint11_linear_1_328" x1="138.106" y1="3.88524" x2="141.063" y2="33.688"
            gradientUnits="userSpaceOnUse">
            <stop stop-color="#F97D56" />
            <stop offset="1" stop-color="#E4605A" />
        </linearGradient>
        <linearGradient id="paint12_linear_1_328" x1="138.106" y1="3.88524" x2="141.063" y2="33.688"
            gradientUnits="userSpaceOnUse">
            <stop stop-color="#F97D56" />
            <stop offset="1" stop-color="#E4605A" />
        </linearGradient>
        <linearGradient id="paint13_linear_1_328" x1="138.106" y1="3.88524" x2="141.063" y2="33.688"
            gradientUnits="userSpaceOnUse">
            <stop stop-color="#F97D56" />
            <stop offset="1" stop-color="#E4605A" />
        </linearGradient>
        <linearGradient id="paint14_linear_1_328" x1="166.134" y1="28.3033" x2="165.071" y2="33.4956"
            gradientUnits="userSpaceOnUse">
            <stop stop-color="#D55C52" />
            <stop offset="1" stop-color="#E7645A" />
        </linearGradient>
        <linearGradient id="paint15_linear_1_328" x1="137.986" y1="28.3033" x2="136.923" y2="33.4956"
            gradientUnits="userSpaceOnUse">
            <stop stop-color="#D55C52" />
            <stop offset="1" stop-color="#E7645A" />
        </linearGradient>
        <linearGradient id="paint16_linear_1_328" x1="111.178" y1="28.3033" x2="110.115" y2="33.4956"
            gradientUnits="userSpaceOnUse">
            <stop stop-color="#D55C52" />
            <stop offset="1" stop-color="#E7645A" />
        </linearGradient>
        <linearGradient id="paint17_linear_1_328" x1="203.518" y1="25.3321" x2="204.962" y2="28.8399"
            gradientUnits="userSpaceOnUse">
            <stop stop-color="#C85242" />
            <stop offset="1" stop-color="#E5615A" />
        </linearGradient>
    </defs>
</svg>