<svg width="269" height="306" viewBox="0 0 269 306" fill="none" xmlns="http://www.w3.org/2000/svg">
<path fill-rule="evenodd" clip-rule="evenodd" d="M41.8904 31.2842C41.8904 14.0954 55.5539 0.119298 72.788 0.0412832C78.8679 0.0137611 85.6618 0 93.1698 0C118.504 0 135.75 0.152931 144.907 0.458792C179.704 1.68216 205.753 10.2459 222.846 26.1499C239.939 41.7481 248.486 62.8516 248.486 89.4603C248.486 112.093 242.686 131.361 231.088 147.265C220.985 161.218 212.5 166.6 194.114 176.12C191.573 176.86 180.694 180.88 179.316 182.24C182.481 185.751 193.749 190.531 197.038 195.16C198.34 196.992 201.744 197.976 203.167 199.92C204.747 202.006 207.783 203.263 209.977 206.04C217.109 215.07 228.088 226.811 237.192 241.313C247.132 257.104 257.169 273.956 267.302 291.87C270.885 298.204 266.27 306 258.977 306H201.635C195.743 306 190.33 302.767 187.548 297.587L140.329 209.658C134.834 199.565 129.798 193.295 125.22 190.849C120.946 188.096 114.384 186.72 105.532 186.72V290.063C105.532 298.865 98.3775 306 89.5522 306H57.87C49.0447 306 41.8904 298.865 41.8904 290.063V237.302C41.8798 232.688 42.7077 232.544 37.089 232.688C-25.2348 234.281 1.94001 189.656 41.8846 165.75C41.8987 165.771 41.9128 165.793 41.9269 165.814C50.8895 158.199 62.6133 150.732 74.1841 143.363C77.6753 141.14 81.1526 138.925 84.5359 136.718L103.758 123.62C103.758 123.62 114.289 116.146 115.472 115.322C118.373 113.3 122.681 110.381 127.035 107.431C131.46 104.432 135.933 101.401 139.024 99.248C140.926 97.9235 141.231 100.078 141.231 100.078L151.909 134.847C152.444 136.684 154.177 137.298 155.755 136.214L157.398 134.847C158.974 133.762 160.332 131.314 160.412 129.405V86.0618C160.412 86.0618 160.368 84.5311 161.435 83.7357C165.258 80.885 179.316 68.5313 179.316 68.5313C184.11 63.75 188.403 56.1277 185.708 52.5938C183.241 49.3596 174.522 51 168.13 54.1875C168.13 54.1875 153.085 61.8025 148.452 64.5225C147.356 65.1666 146.471 64.7014 146.471 64.7014L105.589 48.5388C103.771 47.9305 100.994 48.3199 99.4172 49.4054L97.0622 51.2544C95.4825 52.338 95.4412 54.1699 96.9692 55.3239L125.949 77.8155C125.949 77.8155 128.194 79.4935 126.443 80.6349C120.52 84.496 110.577 91.3738 104.68 95.4525L103.855 96.0226C103.68 96.1439 103.462 96.2857 103.212 96.4433C76.6168 110.046 45.7343 96.2717 41.8904 63.652V49.4187V31.2842Z" fill="url(#paint0_linear_231_2110)"/>
<path fill-rule="evenodd" clip-rule="evenodd" d="M41.6136 233.257C41.137 232.622 39.9491 232.621 37.0783 232.694C-25.2455 234.288 1.58797 188.365 40.4024 165.821L41.6136 164.565C50.5762 156.95 62.6025 150.739 74.1733 143.37C77.6645 141.146 81.1419 138.932 84.5252 136.725L103.747 123.627C103.747 123.627 114.278 116.153 115.461 115.328C118.361 113.308 122.667 110.39 127.02 107.44L127.024 107.437C131.45 104.439 135.923 101.408 139.014 99.2548C140.632 98.1277 141.094 99.5194 141.195 99.9595C141.193 99.9617 141.19 99.9639 141.187 99.9661C14.2511 201.694 22.4683 230.753 42.4439 232.566L41.6136 233.257Z" fill="url(#paint1_linear_231_2110)"/>
<path d="M104.254 131.349C57.8041 176.269 43.3888 216.513 42.4617 233.917C19.3064 229.158 33.6148 210.797 39.746 198.557L51.3222 183.597L66.9856 165.237C79.2664 153.466 92.469 141.623 104.254 131.349C114.668 121.279 126.692 110.973 140.535 100.637C141.581 99.8557 125.145 113.138 104.254 131.349Z" fill="url(#paint2_linear_231_2110)"/>
<path fill-rule="evenodd" clip-rule="evenodd" d="M269 298.486C268.102 302.61 264.457 305.999 259.649 305.999H202.307C196.416 305.999 191.002 302.766 188.221 297.586L140.506 210.117C135.012 200.024 130.784 194.884 126.205 192.437C122.007 189.733 115.286 186.767 106.669 186.72L105.488 186.718C149.359 163.879 186.811 168.491 236.585 239.294C237.013 239.962 237.439 240.635 237.864 241.312C243.532 250.316 249.232 259.665 254.962 269.359C259.722 278.249 264.411 287.937 269 298.486Z" fill="url(#paint3_linear_231_2110)"/>
<path fill-rule="evenodd" clip-rule="evenodd" d="M99.6187 48.9978C83.8928 32.161 74.5334 14.7951 73.7656 0.0348753C79.4599 0.0116251 85.7574 0 92.6582 0C117.993 0 135.239 0.152931 144.396 0.458792C179.192 1.68216 205.241 10.2459 222.335 26.1499C239.428 41.7481 247.974 62.8516 247.974 89.4603C247.974 98.0463 247.14 106.148 245.47 113.766C222.097 115.656 191.078 108.585 159.9 92.9278V86.0618C159.9 86.0618 159.856 84.5311 160.923 83.7357C164.746 80.885 178.804 68.5313 178.804 68.5313C183.598 63.75 187.891 56.1277 185.196 52.5938C182.729 49.3596 174.01 51 167.618 54.1875C167.618 54.1875 152.573 61.8025 147.941 64.5225C146.844 65.1666 145.96 64.7014 145.96 64.7014L105.078 48.5388C103.51 48.0141 101.228 48.2316 99.6187 48.9978Z" fill="white" fill-opacity="0.13"/>
<defs>
<linearGradient id="paint0_linear_231_2110" x1="84.6753" y1="278.12" x2="151.911" y2="24.4316" gradientUnits="userSpaceOnUse">
<stop stop-color="#F76362"/>
<stop offset="1" stop-color="#FB8C4D"/>
</linearGradient>
<linearGradient id="paint1_linear_231_2110" x1="9.07894" y1="233.925" x2="84.5138" y2="116.865" gradientUnits="userSpaceOnUse">
<stop stop-color="#FFD232"/>
<stop offset="0.440977" stop-color="#FAFF00"/>
<stop offset="1" stop-color="#FFA723"/>
</linearGradient>
<linearGradient id="paint2_linear_231_2110" x1="40.4185" y1="185.637" x2="84.5964" y2="248.937" gradientUnits="userSpaceOnUse">
<stop stop-color="#DC605F"/>
<stop offset="1" stop-color="#F86463"/>
</linearGradient>
<linearGradient id="paint3_linear_231_2110" x1="134.377" y1="178.159" x2="187.596" y2="306.054" gradientUnits="userSpaceOnUse">
<stop stop-color="#E15E5B"/>
<stop offset="1" stop-color="#FB8C4E"/>
</linearGradient>
</defs>
</svg>
