<svg width="213" height="34" viewBox="0 0 213 34" fill="none" xmlns="http://www.w3.org/2000/svg">
    <path
        d="M48.8379 32.6506C47.6647 32.6506 46.7136 31.6996 46.7136 30.5264V28.4948L46.3257 27.5845V20.1437C46.3257 18.8244 45.9247 17.7953 45.1229 17.0565C44.3469 16.3177 43.1442 15.9483 41.5146 15.9483C40.4024 15.9483 39.3031 16.133 38.2168 16.5024C38.0148 16.5678 37.8184 16.6379 37.6277 16.7128C36.451 17.1749 34.9635 16.8604 34.3949 15.7312V15.7312C33.7806 14.5115 34.1387 12.9987 35.3869 12.4446C36.0229 12.1622 36.7075 11.9185 37.4408 11.7134C39.0445 11.2648 40.674 11.0405 42.3294 11.0405C45.5109 11.0405 47.9811 11.8057 49.7399 13.3361C51.4988 14.8665 52.3782 17.2544 52.3782 20.4999V29.1103C52.3782 31.0655 50.7932 32.6506 48.8379 32.6506V32.6506ZM40.3507 32.9673C38.7212 32.9673 37.3244 32.6902 36.1604 32.1361C34.9965 31.5556 34.1041 30.7772 33.4833 29.8009C32.8626 28.8247 32.5522 27.7296 32.5522 26.5159C32.5522 25.2494 32.8496 24.1412 33.4446 23.1913C34.0653 22.2414 35.0353 21.5026 36.3544 20.9748C37.6736 20.4207 39.3937 20.1437 41.5146 20.1437H47.0628V23.7454H42.1742C40.7516 23.7454 39.7687 23.9828 39.2255 24.4578C38.7082 24.9327 38.4496 25.5264 38.4496 26.2388C38.4496 27.0304 38.747 27.6637 39.3419 28.1386C39.9627 28.5872 40.8033 28.8115 41.8638 28.8115C42.8726 28.8115 43.7779 28.574 44.5797 28.099C45.3816 27.5977 45.9635 26.8721 46.3257 25.9222L47.2568 28.7719C46.8171 30.144 46.0153 31.1862 44.8513 31.8986C43.6874 32.611 42.1872 32.9673 40.3507 32.9673Z"
        fill="url(#paint0_linear_1131_104)" />
    <path fill-rule="evenodd" clip-rule="evenodd"
        d="M52.3785 24.4959L52.3785 22.0044C52.3785 22.0044 50.8903 25.7959 49.3004 27.9624C48.5434 28.9939 46.8627 30.129 46.8627 30.129L46.7311 30.3456C46.7946 30.2749 46.6704 30.583 46.7312 30.5094V32.5344C46.7312 32.7738 46.9211 32.9678 47.1552 32.9678H51.9545C52.1887 32.9678 52.3785 32.7738 52.3785 32.5344V24.4959Z"
        fill="url(#paint1_linear_1131_104)" />
    <path fill-rule="evenodd" clip-rule="evenodd"
        d="M4.84387 3.38249C4.84387 1.52401 6.29898 0.0128987 8.13434 0.00446359C8.78182 0.00148786 9.50534 0 10.3049 0C13.0029 0 14.8395 0.0165351 15.8147 0.0496052C19.5204 0.181878 22.2945 1.1078 24.1149 2.82736C25.9352 4.51386 26.8454 6.79559 26.8454 9.67256C26.8454 12.1196 26.2278 14.203 24.9926 15.9225C23.9167 17.4311 23.0131 18.013 21.055 19.0423C20.7844 19.1223 19.6259 19.557 19.4791 19.704C19.8162 20.0837 21.0162 20.6005 21.3664 21.1009C21.505 21.299 21.8676 21.4054 22.0191 21.6156C22.1874 21.8412 22.5108 21.977 22.7444 22.2773C23.5039 23.2536 24.6731 24.5231 25.6426 26.0911C26.7013 27.7984 27.7701 29.6205 28.8492 31.5573C29.2309 32.2422 28.7393 33.0851 27.9627 33.0851H21.856C21.2285 33.0851 20.652 32.7355 20.3558 32.1755L15.3271 22.6685C14.742 21.5772 14.2057 20.8993 13.7181 20.6348C13.263 20.3372 12.5641 20.1884 11.6214 20.1884V31.3619C11.6214 32.3136 10.8595 33.0851 9.91965 33.0851H6.54564C5.60578 33.0851 4.84387 32.3136 4.84387 31.3619V25.6574C4.84275 25.1585 4.93091 25.1429 4.33254 25.1585C-2.30467 25.3308 0.589331 20.5059 4.84326 17.9211C4.84476 17.9234 4.84626 17.9257 4.84776 17.928C5.80224 17.1046 7.05077 16.2974 8.28302 15.5006C8.65482 15.2602 9.02513 15.0208 9.38544 14.7821L11.4325 13.3659C11.4325 13.3659 12.554 12.5579 12.68 12.4687C12.9889 12.2502 13.4477 11.9345 13.9114 11.6155C14.3827 11.2913 14.859 10.9636 15.1882 10.7308C15.3908 10.5876 15.4232 10.8205 15.4232 10.8205L16.5603 14.5799C16.6174 14.7784 16.8019 14.8449 16.97 14.7277L17.1449 14.5799C17.3128 14.4625 17.4574 14.1978 17.4659 13.9915V9.30511C17.4659 9.30511 17.4612 9.13961 17.5748 9.05361C17.982 8.74538 19.4791 7.40969 19.4791 7.40969C19.9896 6.89273 20.4468 6.0686 20.1598 5.6865C19.8971 5.33682 18.9685 5.51418 18.2878 5.85882C18.2878 5.85882 16.6856 6.68216 16.1923 6.97625C16.0755 7.0459 15.9813 6.9956 15.9813 6.9956L11.6275 5.24807C11.4339 5.1823 11.1382 5.22441 10.9702 5.34177L10.7194 5.54169C10.5512 5.65885 10.5468 5.85692 10.7095 5.98169L13.7958 8.41351C13.7958 8.41351 14.0349 8.59494 13.8484 8.71835C13.2176 9.13581 12.1587 9.87945 11.5307 10.3204L11.4429 10.3821C11.4242 10.3952 11.401 10.4105 11.3743 10.4276C8.54208 11.8984 5.25323 10.409 4.84387 6.88213V5.34321V3.38249Z"
        fill="url(#paint2_linear_1131_104)" />
    <path fill-rule="evenodd" clip-rule="evenodd"
        d="M4.81444 25.2201C4.76367 25.1515 4.63717 25.1513 4.33144 25.1593C-2.30577 25.3316 0.551875 20.3663 4.68545 17.9288L4.81444 17.793C5.76891 16.9697 7.04966 16.2982 8.2819 15.5014C8.6537 15.261 9.02403 15.0215 9.38434 14.7829L11.4314 13.3667C11.4314 13.3667 12.5529 12.5587 12.6789 12.4695C12.9877 12.251 13.4463 11.9355 13.9099 11.6166L13.9103 11.6163C14.3816 11.2921 14.8579 10.9644 15.1871 10.7316C15.3595 10.6098 15.4086 10.7602 15.4195 10.8078C15.4192 10.808 15.4189 10.8083 15.4186 10.8085C1.90044 21.8075 2.77554 24.9493 4.90286 25.1454L4.81444 25.2201Z"
        fill="url(#paint3_linear_1131_104)" />
    <path
        d="M11.4854 14.2017C6.53868 19.0585 5.00351 23.4096 4.90478 25.2914C2.43884 24.7768 3.96262 22.7916 4.61557 21.4682L5.84839 19.8507L7.51647 17.8657C8.82432 16.5929 10.2303 15.3125 11.4854 14.2017C12.5945 13.1128 13.875 11.9985 15.3492 10.881C15.4606 10.7965 13.7102 12.2326 11.4854 14.2017Z"
        fill="url(#paint4_linear_1131_104)" />
    <path fill-rule="evenodd" clip-rule="evenodd"
        d="M29.0301 32.2726C28.9344 32.7185 28.5463 33.0848 28.0343 33.0848H21.9276C21.3002 33.0848 20.7237 32.7353 20.4275 32.1752L15.346 22.718C14.7609 21.6267 14.3107 21.071 13.8231 20.8064C13.376 20.514 12.6603 20.1934 11.7426 20.1882L11.6168 20.1881C16.2888 17.7186 20.2774 18.2173 25.578 25.8727C25.6236 25.9449 25.669 26.0176 25.7143 26.0908C26.3179 27.0644 26.9249 28.0752 27.5352 29.1233C28.0421 30.0845 28.5414 31.132 29.0301 32.2726Z"
        fill="url(#paint5_linear_1131_104)" />
    <path fill-rule="evenodd" clip-rule="evenodd"
        d="M10.9918 5.29767C9.31703 3.47727 8.32028 1.59967 8.23846 0.00377074C8.84488 0.00125691 9.51553 0 10.2504 0C12.9485 0 14.7851 0.0165351 15.7602 0.0496052C19.466 0.181878 22.2401 1.1078 24.0604 2.82736C25.8808 4.51386 26.7909 6.79559 26.7909 9.67256C26.7909 10.6008 26.7021 11.4768 26.5243 12.3004C24.0352 12.5047 20.7317 11.7402 17.4114 10.0474V9.30511C17.4114 9.30511 17.4068 9.13961 17.5204 9.05361C17.9275 8.74538 19.4246 7.40969 19.4246 7.40969C19.9351 6.89273 20.3923 6.0686 20.1053 5.6865C19.8426 5.33682 18.9141 5.51418 18.2334 5.85882C18.2334 5.85882 16.6311 6.68216 16.1378 6.97625C16.021 7.0459 15.9268 6.9956 15.9268 6.9956L11.5731 5.24807C11.4061 5.19135 11.1632 5.21486 10.9918 5.29767Z"
        fill="white" fill-opacity="0.13" />
    <path
        d="M83.7424 11.4432C85.4098 11.4432 86.8818 11.7865 88.1584 12.4732C89.461 13.1335 90.4771 14.1636 91.2066 15.5635C91.9621 16.9369 92.3399 18.7065 92.3399 20.8723V31.2698C92.3399 32.2666 91.5318 33.0747 90.5349 33.0747H88.0485C87.0516 33.0747 86.2435 32.2666 86.2435 31.2698V21.8231C86.2435 20.1064 85.8918 18.8386 85.1884 18.0198C84.485 17.201 83.4949 16.7916 82.2184 16.7916C81.3326 16.7916 80.5379 17.0029 79.8345 17.4255C79.1311 17.8217 78.584 18.4292 78.1932 19.248C77.8024 20.0667 77.607 21.11 77.607 22.3778V33.0747H73.3156C72.3187 33.0747 71.5106 32.2666 71.5106 31.2698V21.8231C71.5106 20.1064 71.1589 18.8386 70.4555 18.0198C69.7781 17.201 68.8011 16.7916 67.5246 16.7916C66.6388 16.7916 65.8441 17.0029 65.1407 17.4255C64.4373 17.8217 63.8902 18.4292 63.4994 19.248C63.1086 20.0667 62.9132 21.11 62.9132 22.3778V31.2698C62.9132 32.2666 62.1051 33.0747 61.1082 33.0747H58.5931C57.6121 33.0747 56.8168 32.2795 56.8168 31.2985V14.6715C56.8168 13.0636 58.1203 11.7601 59.7282 11.7601V11.7601C61.3362 11.7601 62.6396 13.0636 62.6396 14.6715V17.584L61.5454 15.8804C62.2749 14.4277 63.304 13.3316 64.6327 12.5921C65.9874 11.8261 67.5245 11.4432 69.244 11.4432C71.1719 11.4432 72.8524 11.945 74.2853 12.9487C75.7442 13.9259 76.7082 15.4314 77.1771 17.4651L75.0278 16.8709C75.7312 15.2069 76.8515 13.8863 78.3886 12.909C79.9518 11.9318 81.7364 11.4432 83.7424 11.4432Z"
        fill="url(#paint6_linear_1131_104)" />
    <path
        d="M165.615 33.3917C163.765 33.3917 162.176 32.9955 160.847 32.2031C159.518 31.4108 158.502 30.209 157.799 28.5979C157.095 26.9603 156.744 24.9002 156.744 22.4174C156.744 19.9083 157.108 17.8481 157.838 16.237C158.593 14.6258 159.636 13.4241 160.964 12.6317C162.293 11.8393 163.843 11.4432 165.615 11.4432C167.595 11.4432 169.366 11.8922 170.929 12.7902C172.519 13.6882 173.769 14.956 174.681 16.5935C175.619 18.2311 176.088 20.1724 176.088 22.4174C176.088 24.636 175.619 26.5641 174.681 28.2017C173.769 29.8392 172.519 31.1202 170.929 32.0447C169.366 32.9427 167.595 33.3917 165.615 33.3917ZM154.969 33.0747C153.985 33.0747 153.187 32.2771 153.187 31.2931V6.72616C153.187 5.04269 154.552 3.67798 156.236 3.67798V3.67798C157.919 3.67798 159.284 5.0427 159.284 6.72616V16.0785L158.893 22.3778L159.01 28.7167V31.2698C159.01 32.2666 158.202 33.0747 157.205 33.0747H154.969ZM164.56 28.3205C165.576 28.3205 166.474 28.0828 167.256 27.6074C168.064 27.132 168.702 26.4585 169.171 25.5869C169.666 24.6889 169.913 23.6324 169.913 22.4174C169.913 21.176 169.666 20.1196 169.171 19.248C168.702 18.3764 168.064 17.7028 167.256 17.2274C166.474 16.752 165.576 16.5143 164.56 16.5143C163.543 16.5143 162.632 16.752 161.824 17.2274C161.016 17.7028 160.378 18.3764 159.909 19.248C159.44 20.1196 159.206 21.176 159.206 22.4174C159.206 23.6324 159.44 24.6889 159.909 25.5869C160.378 26.4585 161.016 27.132 161.824 27.6074C162.632 28.0828 163.543 28.3205 164.56 28.3205Z"
        fill="url(#paint7_linear_1131_104)" />
    <path
        d="M180.611 33.0747C180.367 33.0747 180.169 32.8768 180.169 32.6327V6.72616C180.169 5.04269 181.534 3.67798 183.217 3.67798V3.67798C184.901 3.67798 186.265 5.0427 186.265 6.72616V32.6327C186.265 32.8768 186.067 33.0747 185.823 33.0747H180.611Z"
        fill="url(#paint8_linear_1131_104)" />
    <path
        d="M202.357 33.3917C199.961 33.3917 197.85 32.9163 196.027 31.9654C194.229 31.0146 192.835 29.7204 191.845 28.0828C190.855 26.4189 190.36 24.5304 190.36 22.4174C190.36 20.278 190.842 18.3896 191.806 16.752C192.796 15.088 194.138 13.7938 195.831 12.8694C197.525 11.9186 199.44 11.4432 201.576 11.4432C203.634 11.4432 205.484 11.8922 207.125 12.7902C208.792 13.6618 210.108 14.9296 211.072 16.5935C212.036 18.2311 212.518 20.1988 212.518 22.4967C212.518 22.7344 212.505 23.0117 212.479 23.3286C212.453 23.6192 212.427 23.8965 212.401 24.1606H195.323V20.5554H209.196L206.852 21.6251C206.852 20.5157 206.63 19.5517 206.187 18.7329C205.744 17.9141 205.132 17.2803 204.35 16.8312C203.569 16.3558 202.657 16.1181 201.615 16.1181C200.573 16.1181 199.648 16.3558 198.84 16.8312C198.059 17.2803 197.446 17.9274 197.004 18.7725C196.561 19.5913 196.339 20.5686 196.339 21.7043V22.6551C196.339 23.8173 196.587 24.8473 197.082 25.7454C197.603 26.617 198.319 27.2905 199.231 27.7659C200.169 28.2149 201.263 28.4394 202.514 28.4394C203.634 28.4394 204.611 28.2677 205.445 27.9244C205.569 27.8748 205.691 27.8216 205.812 27.7649C207.012 27.2016 208.53 27.193 209.422 28.1737V28.1737C210.341 29.1837 210.376 30.7613 209.246 31.5285C208.682 31.9116 208.066 32.2421 207.399 32.5201C205.94 33.1012 204.259 33.3917 202.357 33.3917Z"
        fill="url(#paint9_linear_1131_104)" />
    <path
        d="M137.353 33.3917C135.503 33.3917 133.914 32.9955 132.585 32.2031C131.256 31.4108 130.24 30.209 129.537 28.5979C128.833 26.9603 128.482 24.9002 128.482 22.4174C128.482 19.9083 128.846 17.8481 129.576 16.237C130.331 14.6258 131.374 13.4241 132.702 12.6317C134.031 11.8393 135.581 11.4432 137.353 11.4432C139.333 11.4432 141.104 11.8922 142.667 12.7902C144.257 13.6882 145.507 14.956 146.419 16.5935C147.357 18.2311 147.826 20.1724 147.826 22.4174C147.826 24.636 147.357 26.5641 146.419 28.2017C145.507 29.8392 144.257 31.1202 142.667 32.0447C141.104 32.9427 139.333 33.3917 137.353 33.3917ZM126.683 33.0747C125.712 33.0747 124.925 32.2771 124.925 31.2931V6.76821C124.925 5.06152 126.29 3.67798 127.974 3.67798C129.657 3.67798 131.022 5.06152 131.022 6.7682V16.0785L130.631 22.3778L130.748 28.7167V30.357C130.748 31.858 129.548 33.0747 128.067 33.0747H126.683ZM136.298 28.3205C137.314 28.3205 138.212 28.0828 138.994 27.6074C139.802 27.132 140.44 26.4585 140.909 25.5869C141.404 24.6889 141.651 23.6324 141.651 22.4174C141.651 21.176 141.404 20.1196 140.909 19.248C140.44 18.3764 139.802 17.7028 138.994 17.2274C138.212 16.752 137.314 16.5143 136.298 16.5143C135.281 16.5143 134.37 16.752 133.562 17.2274C132.754 17.7028 132.116 18.3764 131.647 19.248C131.178 20.1196 130.944 21.176 130.944 22.4174C130.944 23.6324 131.178 24.6889 131.647 25.5869C132.116 26.4585 132.754 27.132 133.562 27.6074C134.37 28.0828 135.281 28.3205 136.298 28.3205Z"
        fill="url(#paint10_linear_1131_104)" />
    <path
        d="M137.353 33.3917C135.503 33.3917 133.914 32.9955 132.585 32.2031C131.256 31.4108 130.24 30.209 129.537 28.5979C128.833 26.9603 128.482 24.9002 128.482 22.4174C128.482 19.9083 128.846 17.8481 129.576 16.237C130.331 14.6258 131.374 13.4241 132.702 12.6317C134.031 11.8393 135.581 11.4432 137.353 11.4432C139.333 11.4432 141.104 11.8922 142.667 12.7902C144.257 13.6882 145.507 14.956 146.419 16.5935C147.357 18.2311 147.826 20.1724 147.826 22.4174C147.826 24.636 147.357 26.5641 146.419 28.2017C145.507 29.8392 144.257 31.1202 142.667 32.0447C141.104 32.9427 139.333 33.3917 137.353 33.3917ZM126.683 33.0747C125.712 33.0747 124.925 32.2771 124.925 31.2931V6.76821C124.925 5.06152 126.29 3.67798 127.974 3.67798C129.657 3.67798 131.022 5.06152 131.022 6.7682V16.0785L130.631 22.3778L130.748 28.7167V30.357C130.748 31.858 129.548 33.0747 128.067 33.0747H126.683ZM136.298 28.3205C137.314 28.3205 138.212 28.0828 138.994 27.6074C139.802 27.132 140.44 26.4585 140.909 25.5869C141.404 24.6889 141.651 23.6324 141.651 22.4174C141.651 21.176 141.404 20.1196 140.909 19.248C140.44 18.3764 139.802 17.7028 138.994 17.2274C138.212 16.752 137.314 16.5143 136.298 16.5143C135.281 16.5143 134.37 16.752 133.562 17.2274C132.754 17.7028 132.116 18.3764 131.647 19.248C131.178 20.1196 130.944 21.176 130.944 22.4174C130.944 23.6324 131.178 24.6889 131.647 25.5869C132.116 26.4585 132.754 27.132 133.562 27.6074C134.37 28.0828 135.281 28.3205 136.298 28.3205Z"
        fill="url(#paint11_linear_1131_104)" />
    <path
        d="M110.659 33.3917C108.809 33.3917 107.22 32.9955 105.891 32.2031C104.562 31.4108 103.546 30.209 102.843 28.5979C102.139 26.9603 101.788 24.9002 101.788 22.4174C101.788 19.9083 102.152 17.8481 102.882 16.237C103.637 14.6258 104.679 13.4241 106.008 12.6317C107.337 11.8393 108.887 11.4432 110.659 11.4432C112.639 11.4432 114.41 11.8922 115.973 12.7902C117.563 13.6882 118.813 14.956 119.725 16.5935C120.663 18.2311 121.132 20.1724 121.132 22.4174C121.132 24.636 120.663 26.5641 119.725 28.2017C118.813 29.8392 117.563 31.1202 115.973 32.0447C114.41 32.9427 112.639 33.3917 110.659 33.3917ZM99.9888 33.0747C99.0182 33.0747 98.2314 32.2771 98.2314 31.2931V6.76821C98.2314 5.06152 99.5961 3.67798 101.28 3.67798C102.963 3.67798 104.328 5.06152 104.328 6.7682V16.0785L103.937 22.3778L104.054 28.7167V30.357C104.054 31.858 102.854 33.0747 101.373 33.0747H99.9888ZM109.603 28.3205C110.62 28.3205 111.518 28.0828 112.3 27.6074C113.108 27.132 113.746 26.4585 114.215 25.5869C114.71 24.6889 114.957 23.6324 114.957 22.4174C114.957 21.176 114.71 20.1196 114.215 19.248C113.746 18.3764 113.108 17.7028 112.3 17.2274C111.518 16.752 110.62 16.5143 109.603 16.5143C108.587 16.5143 107.676 16.752 106.868 17.2274C106.06 17.7028 105.422 18.3764 104.953 19.248C104.484 20.1196 104.25 21.176 104.25 22.4174C104.25 23.6324 104.484 24.6889 104.953 25.5869C105.422 26.4585 106.06 27.132 106.868 27.6074C107.676 28.0828 108.587 28.3205 109.603 28.3205Z"
        fill="url(#paint12_linear_1131_104)" />
    <path
        d="M110.659 33.3917C108.809 33.3917 107.22 32.9955 105.891 32.2031C104.562 31.4108 103.546 30.209 102.843 28.5979C102.139 26.9603 101.788 24.9002 101.788 22.4174C101.788 19.9083 102.152 17.8481 102.882 16.237C103.637 14.6258 104.679 13.4241 106.008 12.6317C107.337 11.8393 108.887 11.4432 110.659 11.4432C112.639 11.4432 114.41 11.8922 115.973 12.7902C117.563 13.6882 118.813 14.956 119.725 16.5935C120.663 18.2311 121.132 20.1724 121.132 22.4174C121.132 24.636 120.663 26.5641 119.725 28.2017C118.813 29.8392 117.563 31.1202 115.973 32.0447C114.41 32.9427 112.639 33.3917 110.659 33.3917ZM99.9888 33.0747C99.0182 33.0747 98.2314 32.2771 98.2314 31.2931V6.76821C98.2314 5.06152 99.5961 3.67798 101.28 3.67798C102.963 3.67798 104.328 5.06152 104.328 6.7682V16.0785L103.937 22.3778L104.054 28.7167V30.357C104.054 31.858 102.854 33.0747 101.373 33.0747H99.9888ZM109.603 28.3205C110.62 28.3205 111.518 28.0828 112.3 27.6074C113.108 27.132 113.746 26.4585 114.215 25.5869C114.71 24.6889 114.957 23.6324 114.957 22.4174C114.957 21.176 114.71 20.1196 114.215 19.248C113.746 18.3764 113.108 17.7028 112.3 17.2274C111.518 16.752 110.62 16.5143 109.603 16.5143C108.587 16.5143 107.676 16.752 106.868 17.2274C106.06 17.7028 105.422 18.3764 104.953 19.248C104.484 20.1196 104.25 21.176 104.25 22.4174C104.25 23.6324 104.484 24.6889 104.953 25.5869C105.422 26.4585 106.06 27.132 106.868 27.6074C107.676 28.0828 108.587 28.3205 109.603 28.3205Z"
        fill="url(#paint13_linear_1131_104)" />
    <path fill-rule="evenodd" clip-rule="evenodd"
        d="M159.01 32.2035V32.7568C159.01 32.9999 158.816 33.197 158.576 33.197H153.622C153.382 33.197 153.187 32.9999 153.187 32.7568V21.5061C153.187 21.5061 153.927 23.5609 154.528 24.82C155.097 26.011 155.381 26.7152 156.157 27.779C157.089 29.0564 159.01 30.6403 159.01 30.6403V32.2035Z"
        fill="url(#paint14_linear_1131_104)" />
    <path fill-rule="evenodd" clip-rule="evenodd"
        d="M130.862 32.2035V32.7568C130.862 32.9999 130.668 33.197 130.428 33.197H125.473C125.234 33.197 125.039 32.9999 125.039 32.7568V21.5061C125.039 21.5061 125.779 23.5609 126.38 24.82C126.949 26.011 127.232 26.7152 128.009 27.779C128.941 29.0564 130.862 30.6403 130.862 30.6403V32.2035Z"
        fill="url(#paint15_linear_1131_104)" />
    <path fill-rule="evenodd" clip-rule="evenodd"
        d="M104.054 32.2035V32.7568C104.054 32.9999 103.86 33.197 103.62 33.197H98.6656C98.4258 33.197 98.2314 32.9999 98.2314 32.7568V21.5061C98.2314 21.5061 98.9713 23.5609 99.5724 24.82C100.141 26.011 100.425 26.7152 101.201 27.779C102.133 29.0564 104.054 30.6403 104.054 30.6403V32.2035Z"
        fill="url(#paint16_linear_1131_104)" />
    <path fill-rule="evenodd" clip-rule="evenodd"
        d="M196.267 31.9655C198.091 32.9163 200.201 33.3917 202.598 33.3917C204.5 33.3917 206.18 33.1012 207.639 32.5201C208.297 32.2461 208.905 31.9211 209.462 31.545C210.602 30.7759 210.569 29.1697 209.64 28.1493C208.757 27.178 207.269 27.1858 206.089 27.7479C205.956 27.811 205.822 27.8699 205.685 27.9244C204.852 28.2678 203.875 28.4394 202.755 28.4394C201.504 28.4394 200.41 28.2149 199.472 27.7659C198.56 27.2905 197.844 26.617 197.322 25.7454C197.053 25.2563 196.857 24.7281 196.734 24.1607L190.718 24.1475C190.919 25.5752 191.374 26.887 192.086 28.0829C193.076 29.7204 194.47 31.0146 196.267 31.9655Z"
        fill="url(#paint17_linear_1131_104)" />
    <defs>
        <linearGradient id="paint0_linear_1131_104" x1="43.2417" y1="-5.69126" x2="43.2417" y2="42.5456"
            gradientUnits="userSpaceOnUse">
            <stop stop-color="#F97D57" />
            <stop offset="1" stop-color="#EC6C59" />
        </linearGradient>
        <linearGradient id="paint1_linear_1131_104" x1="48.4525" y1="29.5874" x2="49.59" y2="32.953"
            gradientUnits="userSpaceOnUse">
            <stop stop-color="#E05D5A" />
            <stop offset="1" stop-color="#EB6A59" />
        </linearGradient>
        <linearGradient id="paint2_linear_1131_104" x1="9.40028" y1="30.0707" x2="16.7659" y2="2.69684"
            gradientUnits="userSpaceOnUse">
            <stop stop-color="#F76362" />
            <stop offset="1" stop-color="#FB8C4D" />
        </linearGradient>
        <linearGradient id="paint3_linear_1131_104" x1="1.34962" y1="25.2923" x2="9.55615" y2="12.7489"
            gradientUnits="userSpaceOnUse">
            <stop stop-color="#FFD232" />
            <stop offset="0.440977" stop-color="#FAFF00" />
            <stop offset="1" stop-color="#FFA723" />
        </linearGradient>
        <linearGradient id="paint4_linear_1131_104" x1="4.68719" y1="20.0713" x2="9.4883" y2="26.8472"
            gradientUnits="userSpaceOnUse">
            <stop stop-color="#DC605F" />
            <stop offset="1" stop-color="#F86463" />
        </linearGradient>
        <linearGradient id="paint5_linear_1131_104" x1="14.6933" y1="19.2627" x2="20.5089" y2="33.0283"
            gradientUnits="userSpaceOnUse">
            <stop stop-color="#E15E5B" />
            <stop offset="1" stop-color="#FB8C4E" />
        </linearGradient>
        <linearGradient id="paint6_linear_1131_104" x1="129.106" y1="3.58104" x2="132.063" y2="33.3838"
            gradientUnits="userSpaceOnUse">
            <stop stop-color="#F97D56" />
            <stop offset="1" stop-color="#E4605A" />
        </linearGradient>
        <linearGradient id="paint7_linear_1131_104" x1="129.106" y1="3.58104" x2="132.063" y2="33.3838"
            gradientUnits="userSpaceOnUse">
            <stop stop-color="#F97D56" />
            <stop offset="1" stop-color="#E4605A" />
        </linearGradient>
        <linearGradient id="paint8_linear_1131_104" x1="129.106" y1="3.58104" x2="132.063" y2="33.3838"
            gradientUnits="userSpaceOnUse">
            <stop stop-color="#F97D56" />
            <stop offset="1" stop-color="#E4605A" />
        </linearGradient>
        <linearGradient id="paint9_linear_1131_104" x1="129.106" y1="3.58104" x2="132.063" y2="33.3838"
            gradientUnits="userSpaceOnUse">
            <stop stop-color="#F97D56" />
            <stop offset="1" stop-color="#E4605A" />
        </linearGradient>
        <linearGradient id="paint10_linear_1131_104" x1="129.106" y1="3.58104" x2="132.063" y2="33.3838"
            gradientUnits="userSpaceOnUse">
            <stop stop-color="#F97D56" />
            <stop offset="1" stop-color="#E4605A" />
        </linearGradient>
        <linearGradient id="paint11_linear_1131_104" x1="129.106" y1="3.58104" x2="132.063" y2="33.3838"
            gradientUnits="userSpaceOnUse">
            <stop stop-color="#F97D56" />
            <stop offset="1" stop-color="#E4605A" />
        </linearGradient>
        <linearGradient id="paint12_linear_1131_104" x1="129.106" y1="3.58104" x2="132.063" y2="33.3838"
            gradientUnits="userSpaceOnUse">
            <stop stop-color="#F97D56" />
            <stop offset="1" stop-color="#E4605A" />
        </linearGradient>
        <linearGradient id="paint13_linear_1131_104" x1="129.106" y1="3.58104" x2="132.063" y2="33.3838"
            gradientUnits="userSpaceOnUse">
            <stop stop-color="#F97D56" />
            <stop offset="1" stop-color="#E4605A" />
        </linearGradient>
        <linearGradient id="paint14_linear_1131_104" x1="157.134" y1="27.9991" x2="156.071" y2="33.1914"
            gradientUnits="userSpaceOnUse">
            <stop stop-color="#D55C52" />
            <stop offset="1" stop-color="#E7645A" />
        </linearGradient>
        <linearGradient id="paint15_linear_1131_104" x1="128.986" y1="27.9991" x2="127.923" y2="33.1914"
            gradientUnits="userSpaceOnUse">
            <stop stop-color="#D55C52" />
            <stop offset="1" stop-color="#E7645A" />
        </linearGradient>
        <linearGradient id="paint16_linear_1131_104" x1="102.178" y1="27.9991" x2="101.115" y2="33.1914"
            gradientUnits="userSpaceOnUse">
            <stop stop-color="#D55C52" />
            <stop offset="1" stop-color="#E7645A" />
        </linearGradient>
        <linearGradient id="paint17_linear_1131_104" x1="194.518" y1="25.0279" x2="195.962" y2="28.5357"
            gradientUnits="userSpaceOnUse">
            <stop stop-color="#C85242" />
            <stop offset="1" stop-color="#E5615A" />
        </linearGradient>
    </defs>
</svg>