<svg width="36" height="42" viewBox="0 0 36 42" fill="none" xmlns="http://www.w3.org/2000/svg">
<path d="M31.0875 9.42035C30.8164 9.28021 30.5524 9.12659 30.2967 8.96006C29.5529 8.46835 28.871 7.88897 28.2655 7.2344C26.7508 5.5012 26.185 3.7429 25.9767 2.51184H25.985C25.811 1.49 25.8829 0.828857 25.8938 0.828857H18.9945V27.5072C18.9945 27.8654 18.9945 28.2194 18.9794 28.5692C18.9794 28.6127 18.9753 28.6529 18.9727 28.6997C18.9727 28.719 18.9727 28.7391 18.9686 28.7592C18.9686 28.7642 18.9686 28.7692 18.9686 28.7742C18.8958 29.7314 18.589 30.6561 18.075 31.4669C17.5611 32.2777 16.8557 32.9498 16.021 33.424C15.1511 33.9189 14.1672 34.1785 13.1664 34.1772C9.95193 34.1772 7.34669 31.556 7.34669 28.319C7.34669 25.0819 9.95193 22.4607 13.1664 22.4607C13.7749 22.4602 14.3796 22.5559 14.9582 22.7444L14.9666 15.7196C13.2102 15.4927 11.426 15.6323 9.72628 16.1295C8.0266 16.6268 6.44841 17.4709 5.09128 18.6085C3.90212 19.6418 2.90238 20.8746 2.13707 22.2515C1.84583 22.7537 0.746996 24.7714 0.613931 28.0461C0.530242 29.9049 1.08845 31.8305 1.35458 32.6264V32.6432C1.52195 33.1118 2.17054 34.7111 3.22753 36.0593C4.07985 37.1408 5.08684 38.0908 6.21606 38.8788V38.8621L6.2328 38.8788C9.57282 41.1484 13.276 40.9995 13.276 40.9995C13.9171 40.9735 16.0646 40.9995 18.5033 39.8437C21.2081 38.5625 22.7479 36.6535 22.7479 36.6535C23.7317 35.5129 24.5139 34.213 25.0611 32.8097C25.6854 31.1686 25.8938 29.2002 25.8938 28.4135V14.2601C25.9775 14.3103 27.0922 15.0476 27.0922 15.0476C27.0922 15.0476 28.6982 16.077 31.2039 16.7473C33.0015 17.2243 35.4235 17.3248 35.4235 17.3248V10.4757C34.5748 10.5677 32.8517 10.2999 31.0875 9.42035Z" fill="white"/>
</svg>
