<svg width="247" height="247" viewBox="0 0 247 247" fill="none" xmlns="http://www.w3.org/2000/svg">
<path d="M27.249 108.898C34.7488 94.548 50.4576 84.4678 66.5997 85.0883C75.8871 85.4478 85.5783 89.0278 94.1763 85.4724C104.857 81.0405 108.427 68.109 114.396 58.2061C125.771 39.3507 149.851 29.7038 171.464 33.791C193.078 37.8783 211.441 54.6113 219.231 75.2149C227.021 95.8185 224.682 119.593 214.715 139.232C204.748 158.87 187.631 174.417 167.904 184.246C164.821 185.782 161.685 187.185 158.494 188.456C134.96 197.842 109.117 199.807 84.3078 194.646L72.8143 192.253C56.16 188.806 41.3278 179.144 31.8533 165.021C29.8836 162.093 28.167 159.002 26.7221 155.783C20.0939 141.019 19.7492 123.228 27.249 108.898Z" fill="#FFF2EE"/>
<path d="M13.3124 231.515C13.3124 231.584 63.0142 231.643 124.318 231.643C185.621 231.643 235.333 231.584 235.333 231.515C235.333 231.446 185.641 231.387 124.318 231.387C62.9945 231.387 13.3124 231.446 13.3124 231.515Z" fill="#263238"/>
<path d="M47.3291 144.679C47.3646 144.334 47.5269 144.015 47.7845 143.784C48.0422 143.553 48.3766 143.426 48.7227 143.428H59.2363C59.4414 143.428 59.6438 143.474 59.8291 143.562C60.0143 143.65 60.1778 143.778 60.3078 143.937C60.4377 144.095 60.5309 144.281 60.5806 144.48C60.6304 144.679 60.6354 144.886 60.5954 145.087C60.5336 145.409 60.3595 145.698 60.1041 145.902C59.8488 146.107 59.529 146.214 59.2018 146.205H48.7178C48.5237 146.205 48.3318 146.164 48.1544 146.085C47.977 146.006 47.8179 145.891 47.6873 145.748C47.5566 145.604 47.4573 145.435 47.3957 145.251C47.334 145.067 47.3113 144.872 47.3291 144.679Z" fill="#263238"/>
<path d="M24.3973 228.068C24.4936 228.724 24.3931 229.394 24.1085 229.994C23.8239 230.593 23.3679 231.094 22.7982 231.434C22.2286 231.774 21.5709 231.938 20.9084 231.904C20.2458 231.87 19.6082 231.64 19.0762 231.244C18.5441 230.848 18.1416 230.303 17.9194 229.678C17.6973 229.053 17.6656 228.376 17.8282 227.732C17.9909 227.089 18.3407 226.509 18.8333 226.064C19.3259 225.62 19.9392 225.332 20.5957 225.236C21.4752 225.108 22.3697 225.334 23.0825 225.865C23.7954 226.396 24.2683 227.188 24.3973 228.068Z" fill="#263238"/>
<path d="M21.7774 228.575L23.821 224.35L22.7475 223.666L20.7679 228.078L21.7774 228.575Z" fill="#455A64"/>
<path d="M40.7172 176.559L53.4171 143.423L55.8301 144.634L43.5241 177.47L40.7172 176.559Z" fill="#263238"/>
<path d="M11.393 220.328L30.156 227.783C30.491 227.916 30.8651 227.911 31.1961 227.768C31.5271 227.625 31.7879 227.357 31.921 227.022L50.583 180.055C51.288 178.28 51.2593 176.298 50.5031 174.545C49.747 172.792 48.3253 171.411 46.5508 170.705L38.6429 167.563C36.8684 166.858 34.8865 166.887 33.1332 167.643C31.3799 168.399 29.9988 169.821 29.2938 171.595L10.6318 218.563C10.4987 218.898 10.5041 219.272 10.6468 219.603C10.7896 219.934 11.058 220.194 11.393 220.328Z" fill="#FA7C56"/>
<path d="M31.9409 227.235C31.9409 227.235 31.9705 227.137 32.0394 226.95L32.3497 226.118L33.5709 222.922L38.1161 211.197C40.0514 206.248 42.3461 200.363 44.897 193.819L48.9103 183.561C49.255 182.675 49.6096 181.778 49.9592 180.872C50.33 179.986 50.4657 179.019 50.3532 178.066C50.232 177.093 49.8509 176.172 49.2499 175.398C48.649 174.624 47.8504 174.027 46.9385 173.669C46.0265 173.311 45.0349 173.206 44.068 173.364C43.1012 173.523 42.1951 173.939 41.445 174.569C40.7171 175.194 40.1596 175.994 39.8249 176.894L38.771 179.587C37.3725 183.143 36.0232 186.57 34.7429 189.84L27.9029 207.193C25.9332 212.118 24.3722 216.111 23.2691 218.884L21.9986 222.06C21.8509 222.41 21.7425 222.685 21.6588 222.882C21.5751 223.079 21.5357 223.158 21.5357 223.158C21.5357 223.158 21.5653 223.06 21.6342 222.868L21.9444 222.035C22.2251 221.297 22.6388 220.223 23.1657 218.844L27.7109 207.119L34.4918 189.741C35.7672 186.471 37.1115 183.039 38.5051 179.484C38.8498 178.592 39.2044 177.696 39.5589 176.79C39.9033 175.837 40.4886 174.988 41.2579 174.328C42.048 173.663 43.0027 173.224 44.0215 173.057C45.0403 172.89 46.0853 173.001 47.0464 173.378C48.0074 173.755 48.8489 174.385 49.482 175.2C50.1151 176.016 50.5165 176.987 50.6437 178.011C50.7628 179.015 50.6204 180.033 50.2301 180.966L49.1763 183.679C47.7777 187.23 46.4285 190.662 45.1481 193.927C42.5776 200.447 40.2582 206.331 38.3131 211.256L33.6792 222.951L32.4038 226.123C32.261 226.477 32.1478 226.748 32.064 226.945C32.029 227.044 31.9878 227.141 31.9409 227.235Z" fill="#263238"/>
<path d="M33.1528 193.858C33.1134 193.986 30.6611 193.016 27.672 191.701C24.6829 190.386 22.2946 189.209 22.334 189.086C22.3734 188.963 24.8306 189.923 27.8148 191.243C30.799 192.563 33.1922 193.73 33.1528 193.858Z" fill="#263238"/>
<path d="M49.7475 143.422L51.9388 139.089C52.1844 138.605 52.5948 138.224 53.096 138.015L56.5431 136.578L65.8305 123.981L66.707 133.628L60.7978 139.729C60.7978 139.729 57.0897 147.539 54.0612 147.14C54.1363 146.437 54.3435 145.753 54.6718 145.126C55.6567 143.422 54.6078 143.422 54.4699 143.432H51.9339L49.7475 143.422Z" fill="#FFBE9D"/>
<path d="M64.9102 136.76C64.6295 137.179 62.3347 140.291 62.3347 140.291L55.8296 135.559L58.1933 133.249L64.9102 136.76Z" fill="#FA7C56"/>
<path d="M54.6533 145.126C54.6533 145.126 52.9593 146.111 52.7475 146.909V147.402L54.7764 147.106L54.6533 145.126Z" fill="#FFBE9D"/>
<path d="M52.382 146.052C52.6823 145.817 52.9165 145.508 53.0616 145.156C53.1269 144.978 53.1238 144.782 53.0528 144.607C52.9818 144.431 52.848 144.288 52.6775 144.205C52.3278 144.087 51.9683 144.338 51.6926 144.589C51.3464 144.899 51.0177 145.228 50.7077 145.574C50.5609 145.7 50.4461 145.859 50.3725 146.038C50.2989 146.217 50.2686 146.411 50.2842 146.604C50.3297 146.753 50.4204 146.885 50.5438 146.981C50.6673 147.077 50.8174 147.133 50.9736 147.14C51.1308 147.144 51.2871 147.115 51.4328 147.056C51.5784 146.996 51.7104 146.908 51.8206 146.796C52.04 146.575 52.2155 146.314 52.3377 146.027" fill="#FFBE9D"/>
<path d="M50.6642 145.905C50.9645 145.67 51.1987 145.361 51.3438 145.008C51.4091 144.83 51.406 144.635 51.335 144.459C51.264 144.283 51.1302 144.14 50.9597 144.058C50.61 143.94 50.2506 144.191 49.9748 144.442C49.6287 144.752 49.2999 145.081 48.9899 145.427C48.8432 145.553 48.7283 145.712 48.6547 145.891C48.5811 146.07 48.5508 146.263 48.5664 146.456C48.612 146.606 48.7027 146.738 48.8261 146.834C48.9495 146.93 49.0996 146.985 49.2558 146.993C49.413 146.996 49.5692 146.967 49.7148 146.908C49.8605 146.848 49.9925 146.76 50.1028 146.648C50.3222 146.427 50.4977 146.166 50.6199 145.88" fill="#FFBE9D"/>
<path d="M55.8301 138.508C55.8301 138.449 55.3918 138.469 54.8846 138.907C54.6487 139.195 54.4517 139.513 54.2986 139.852C54.0693 140.265 53.9537 140.73 53.9637 141.202C54.0343 141.665 54.2169 142.105 54.4956 142.482C54.684 142.786 54.8205 143.119 54.8994 143.467C54.9708 143.79 54.994 144.122 54.9683 144.452C55.0537 144.298 55.1073 144.128 55.1259 143.953C55.1445 143.778 55.1278 143.601 55.0766 143.433C55.0174 143.059 54.8887 142.7 54.6975 142.374C54.4472 142.022 54.2789 141.618 54.205 141.192C54.1995 140.764 54.2992 140.341 54.4956 139.961C54.6252 139.634 54.7903 139.321 54.988 139.03C55.1573 138.862 55.3496 138.72 55.5592 138.607C55.6476 138.569 55.738 138.536 55.8301 138.508Z" fill="#EB996E"/>
<path d="M125.909 94.0605L132.812 116.132L112.504 137.341L93.8951 132.505L125.909 94.0605Z" fill="#F5F5F5"/>
<path d="M125.913 94.0557L125.756 94.2379L125.288 94.7894L123.476 96.9463L116.725 104.998L93.7917 132.426L93.6637 132.579L93.8558 132.628L104.345 135.356L112.465 137.464H112.539L112.588 137.41L132.886 116.215L132.926 116.171V116.117C130.789 109.356 129.036 103.835 127.819 99.9945C127.218 98.0937 126.746 96.6114 126.421 95.597L126.056 94.4545C125.973 94.2034 125.933 94.0754 125.933 94.0754C126.17 94.8485 128.597 102.742 132.734 116.176L132.758 116.077L112.435 137.252L112.559 137.218L104.438 135.105L93.9493 132.377L94.0133 132.584L116.739 105.165L123.466 97.0398L125.278 94.8386L125.771 94.2674L125.913 94.0557Z" fill="#263238"/>
<path d="M125.277 108.617C125.019 108.216 124.683 107.872 124.289 107.604C123.895 107.336 123.451 107.151 122.983 107.059C122.515 106.967 122.034 106.97 121.568 107.069C121.101 107.167 120.66 107.359 120.269 107.632C118.999 108.617 118.413 110.474 116.886 110.966C115.783 111.321 114.567 110.804 113.439 111.005C112.105 111.247 111.11 112.483 110.726 113.763C110.342 115.043 110.445 116.457 110.553 117.811L117.157 117.9L125.277 108.617Z" fill="#E0E0E0"/>
<path d="M137.49 96.0747L94.6974 140.173L112.135 138.405L136.525 112.655L137.49 96.0747Z" fill="#F5F5F5"/>
<path d="M137.485 96.0747C137.446 96.7198 137.091 102.393 136.441 112.65V112.596C130.202 119.165 121.668 128.142 112.021 138.321L112.1 138.282L98.7206 139.631L94.6629 140.045L94.7664 140.261C118.561 115.639 136.52 97.0547 137.461 96.0747L94.5841 140.084L94.3379 140.335L94.6876 140.301L98.7502 139.887L112.125 138.528H112.169L112.204 138.498C121.836 128.3 130.345 119.293 136.564 112.719V112.69C137.155 102.398 137.456 96.7198 137.485 96.0747Z" fill="#263238"/>
<path d="M120.742 113.601C122.062 115.122 121.87 117.54 120.742 119.219C119.614 120.899 117.753 121.913 115.872 122.637C114.35 123.223 112.474 123.592 111.213 122.558" fill="#E0E0E0"/>
<path d="M122.968 111.202C122.889 111.572 123.352 111.848 123.727 111.813C124.101 111.779 124.446 111.567 124.825 111.547C125.854 111.488 126.415 112.709 127.252 113.305C127.757 113.635 128.371 113.755 128.963 113.64C129.555 113.525 130.079 113.184 130.424 112.69C130.985 111.818 130.97 110.528 131.857 109.991C132.379 109.736 132.976 109.682 133.536 109.838C134.09 109.993 134.666 110.052 135.24 110.016C135.526 109.989 135.794 109.865 135.999 109.664C136.205 109.463 136.335 109.198 136.367 108.913L136.678 108.42L137.406 96.2471L122.968 111.202Z" fill="#E0E0E0"/>
<path d="M102.113 139.281C101.893 139.337 101.665 139.347 101.441 139.311C101.218 139.275 101.004 139.194 100.813 139.072C100.622 138.95 100.458 138.79 100.331 138.603C100.204 138.415 100.116 138.204 100.074 137.981C100.02 137.492 100.154 137.001 100.45 136.609C100.745 136.216 101.18 135.951 101.665 135.869C102.537 135.755 103.438 136.262 104.275 136.001C105.23 135.701 105.624 134.593 105.865 133.623C106.107 132.653 106.446 131.545 107.372 131.161C108.904 130.54 110.519 132.505 112.119 132.072C113.306 131.752 113.764 130.324 114.695 129.521C115.071 129.202 115.524 128.985 116.008 128.89C116.492 128.795 116.993 128.826 117.462 128.979C117.888 129.083 118.275 129.309 118.575 129.629C118.875 129.949 119.075 130.35 119.151 130.782L112.085 138.232L102.113 139.281Z" fill="#E0E0E0"/>
<path d="M113.814 213.807L115.572 223.941C115.572 223.941 126.464 225.556 126.972 227.388L107.442 231.505L104.054 215.826L113.814 213.807Z" fill="#FA7C56"/>
<g opacity="0.6">
<path d="M109.353 224.37C109.177 224.466 109.043 224.624 108.977 224.813C108.91 225.002 108.916 225.209 108.993 225.394C109.083 225.573 109.239 225.711 109.428 225.779C109.616 225.846 109.824 225.839 110.008 225.759C110.194 225.656 110.335 225.488 110.405 225.287C110.474 225.085 110.466 224.866 110.382 224.67C110.268 224.493 110.09 224.367 109.885 224.318C109.681 224.269 109.465 224.302 109.284 224.409" fill="white"/>
</g>
<path opacity="0.6" d="M107.441 231.515L107.087 229.968L125.977 226.59C125.977 226.59 126.922 226.787 126.962 227.418L107.441 231.515Z" fill="white"/>
<path d="M115.867 223.774C115.867 223.872 115.414 224.015 115.01 224.419C114.606 224.823 114.439 225.28 114.345 225.261C114.252 225.241 114.276 224.66 114.774 224.177C115.271 223.695 115.867 223.685 115.867 223.774Z" fill="#263238"/>
<path d="M118.093 224.192C118.132 224.281 117.753 224.527 117.517 225C117.28 225.473 117.275 225.916 117.177 225.936C117.078 225.955 116.906 225.443 117.216 224.842C117.527 224.242 118.073 224.099 118.093 224.192Z" fill="#263238"/>
<path d="M119.773 226.398C119.689 226.438 119.457 225.989 119.59 225.413C119.723 224.837 120.127 224.537 120.186 224.611C120.245 224.685 120.029 225.019 119.92 225.492C119.812 225.965 119.866 226.369 119.773 226.398Z" fill="#263238"/>
<path d="M115.207 221.509C115.207 221.607 114.715 221.568 114.188 221.715C113.661 221.863 113.277 222.124 113.203 222.055C113.129 221.986 113.469 221.563 114.094 221.39C114.72 221.218 115.242 221.425 115.207 221.509Z" fill="#263238"/>
<path opacity="0.3" d="M114.158 215.816L114.474 217.618L104.856 219.554L104.502 217.943L114.158 215.816Z" fill="black"/>
<path d="M114.818 219.47C114.514 219.624 114.174 219.693 113.833 219.672C113.466 219.686 113.099 219.653 112.74 219.573C112.53 219.527 112.323 219.467 112.12 219.396C111.997 219.359 111.88 219.302 111.775 219.229C111.7 219.174 111.644 219.097 111.616 219.008C111.589 218.919 111.591 218.824 111.622 218.736C111.657 218.66 111.709 218.593 111.774 218.54C111.839 218.487 111.915 218.45 111.997 218.431C112.12 218.404 112.246 218.396 112.371 218.406C112.964 218.423 113.542 218.593 114.05 218.899C114.592 219.224 114.823 219.544 114.794 219.573C114.764 219.603 114.474 219.362 113.942 219.11C113.447 218.882 112.911 218.758 112.366 218.746C112.149 218.746 111.972 218.771 111.938 218.874C111.903 218.977 111.938 218.928 111.982 218.982C112.061 219.033 112.145 219.074 112.233 219.105C112.424 219.176 112.617 219.237 112.814 219.288C113.15 219.376 113.492 219.432 113.838 219.455C114.165 219.438 114.492 219.443 114.818 219.47Z" fill="#263238"/>
<path d="M114.72 219.627C114.69 219.652 114.429 219.352 114.262 218.741C114.171 218.382 114.142 218.011 114.173 217.643C114.189 217.422 114.23 217.204 114.296 216.993C114.322 216.853 114.383 216.722 114.473 216.613C114.564 216.503 114.681 216.419 114.813 216.367C114.901 216.354 114.991 216.364 115.073 216.397C115.155 216.429 115.227 216.484 115.281 216.554C115.355 216.659 115.415 216.773 115.458 216.894C115.538 217.104 115.585 217.325 115.596 217.549C115.619 217.928 115.55 218.306 115.394 218.652C115.119 219.238 114.744 219.435 114.73 219.406C114.715 219.376 114.981 219.11 115.168 218.559C115.279 218.243 115.319 217.907 115.286 217.574C115.265 217.381 115.219 217.193 115.148 217.012C115.074 216.815 114.961 216.663 114.887 216.702C114.813 216.742 114.656 216.909 114.611 217.091C114.549 217.275 114.502 217.465 114.473 217.658C114.426 217.996 114.426 218.339 114.473 218.677C114.592 219.273 114.769 219.627 114.72 219.627Z" fill="#263238"/>
<path d="M49.6392 214.423L53.8594 208.907L54.081 208.622L61.2903 213.974L54.6276 221.292L54.8689 228.703C58.5819 229.659 59.1383 231.515 59.1383 231.515H51.4267L44.4193 218.022L49.6392 214.423Z" fill="#FA7C56"/>
<path opacity="0.6" d="M44.405 218.012L51.4124 231.505L59.124 231.515L58.2573 230.353L51.9837 230.003L45.518 217.249L44.405 218.012Z" fill="white"/>
<path d="M54.8095 225.305C54.7504 225.384 54.3171 225.133 53.7114 225.148C53.1057 225.163 52.6773 225.414 52.6182 225.335C52.5591 225.256 52.9776 224.842 53.7064 224.808C54.4352 224.773 54.8883 225.246 54.8095 225.305Z" fill="#263238"/>
<path d="M54.6871 223.468C54.6084 223.522 54.2686 223.069 53.653 222.946C53.0375 222.823 52.545 223.109 52.4958 223.03C52.4466 222.951 52.5549 222.863 52.7716 222.744C53.064 222.6 53.3961 222.557 53.7159 222.621C54.0356 222.685 54.3252 222.853 54.5394 223.099C54.6921 223.296 54.7265 223.449 54.6871 223.468Z" fill="#263238"/>
<path d="M54.7355 221.105C54.6517 221.149 54.3907 220.701 53.854 220.514C53.3172 220.327 52.8346 220.514 52.7953 220.415C52.7559 220.317 52.8691 220.273 53.0858 220.194C53.3707 220.092 53.6823 220.092 53.9673 220.194C54.2502 220.297 54.491 220.491 54.6517 220.745C54.7699 220.947 54.7798 221.105 54.7355 221.105Z" fill="#263238"/>
<path d="M56.8042 219.283C56.7106 219.312 56.494 218.874 56.0163 218.564C55.5386 218.253 55.061 218.209 55.0314 218.111C55.0019 218.012 55.6076 217.889 56.1837 218.283C56.7599 218.677 56.8978 219.273 56.8042 219.283Z" fill="#263238"/>
<path d="M57.8083 217.697C57.7689 217.722 57.5178 217.411 57.1386 216.889L56.4837 215.964C56.3362 215.773 56.2168 215.563 56.1291 215.338C56.1026 215.257 56.0929 215.172 56.1005 215.087C56.1082 215.003 56.133 214.92 56.1734 214.846C56.2206 214.765 56.2896 214.7 56.3724 214.657C56.4552 214.615 56.5484 214.596 56.6412 214.604C56.9123 214.656 57.1622 214.786 57.3602 214.979C57.5497 215.131 57.7156 215.31 57.8526 215.511C58.0717 215.847 58.2099 216.23 58.2564 216.628C58.3371 216.987 58.2753 217.363 58.0841 217.677C58.082 217.338 58.0607 216.999 58.0201 216.663C57.9468 216.309 57.8028 215.974 57.5966 215.678C57.4754 215.508 57.3331 215.354 57.1731 215.22C57.0217 215.082 56.8393 214.982 56.6412 214.929C56.6121 214.926 56.5824 214.931 56.5561 214.944C56.5298 214.957 56.508 214.978 56.4935 215.003C56.4679 215.073 56.4679 215.15 56.4935 215.22C56.5731 215.41 56.6739 215.59 56.7939 215.757C56.9909 216.087 57.1879 216.407 57.3848 216.742C57.5761 217.035 57.719 217.358 57.8083 217.697Z" fill="#263238"/>
<path d="M58.0848 217.928C58.0503 217.928 58.0848 217.52 58.4984 217.057C58.7828 216.749 59.1596 216.543 59.5717 216.468C59.9839 216.393 60.4092 216.455 60.7834 216.643C60.8226 216.677 60.854 216.72 60.8753 216.767C60.8965 216.815 60.9072 216.867 60.9065 216.919C60.9016 217.009 60.8689 217.095 60.8129 217.165C60.7328 217.258 60.64 217.339 60.5371 217.406C60.366 217.528 60.1828 217.632 59.9905 217.717C59.6693 217.864 59.3271 217.96 58.9761 218.002C58.6561 218.071 58.3227 218.04 58.0208 217.914C58.0208 217.859 58.3852 217.884 58.9367 217.766C59.255 217.696 59.5628 217.585 59.8526 217.436C60.0249 217.35 60.1896 217.249 60.3451 217.135C60.4203 217.088 60.4883 217.03 60.547 216.963C60.5814 216.894 60.547 216.914 60.547 216.894C60.4777 216.852 60.4007 216.823 60.3205 216.81C60.2261 216.791 60.1308 216.776 60.0349 216.766C59.8517 216.754 59.6678 216.767 59.4882 216.806C59.1799 216.875 58.8939 217.021 58.656 217.229C58.2522 217.593 58.139 217.948 58.0848 217.928Z" fill="#263238"/>
<path opacity="0.6" d="M50.5605 217.781C50.5605 217.962 50.5068 218.139 50.4062 218.29C50.3055 218.44 50.1625 218.558 49.9951 218.627C49.8278 218.696 49.6436 218.714 49.4659 218.679C49.2882 218.644 49.1251 218.556 48.997 218.428C48.8689 218.3 48.7816 218.137 48.7463 217.959C48.7109 217.782 48.7291 217.598 48.7984 217.43C48.8677 217.263 48.9851 217.12 49.1358 217.019C49.2864 216.918 49.4635 216.865 49.6446 216.865C49.8875 216.865 50.1205 216.961 50.2923 217.133C50.4641 217.305 50.5605 217.538 50.5605 217.781Z" fill="white"/>
<path opacity="0.3" d="M60.6055 214.708L59.1232 216.338L52.8939 210.168L53.7606 209.04L60.6055 214.708Z" fill="black"/>
<path d="M79.7809 86.2801C75.66 84.8481 71.2113 84.6462 66.9776 85.699C65.1014 86.1669 63.1956 86.9449 61.9941 88.4616C60.5709 90.2541 60.3937 92.6966 60.1721 94.9766C59.727 99.6142 58.8734 104.203 57.6212 108.691C56.5773 112.424 55.2575 116.078 54.6912 119.933C54.1249 123.789 54.3859 127.871 56.3409 131.22C59.3546 136.381 65.7612 138.661 71.7345 138.764C74.8763 138.813 78.0968 138.355 80.884 136.898C83.6712 135.44 85.9906 132.894 86.6702 129.826" fill="#FA7C56"/>
<g opacity="0.5">
<path d="M79.7809 86.2804C75.66 84.8484 71.2113 84.6465 66.9776 85.6993C65.1014 86.1671 63.1956 86.9452 61.9941 88.4619C60.5709 90.2543 60.3937 92.6968 60.1721 94.9768C59.727 99.6144 58.8734 104.204 57.6212 108.691C56.5773 112.424 55.2575 116.078 54.6912 119.934C54.1249 123.789 54.3859 127.872 56.3409 131.22C59.3546 136.381 65.7612 138.661 71.7345 138.764C74.8763 138.814 78.0968 138.356 80.884 136.898C83.6712 135.44 85.9906 132.895 86.6702 129.827" fill="black"/>
</g>
<path d="M71.5674 91.0073C70.9204 91.5724 70.3464 92.2159 69.8586 92.9229C69.3516 93.7076 68.9071 94.5308 68.529 95.3851C68.066 96.4459 67.5347 97.4757 66.9385 98.4678C66.3257 99.473 65.4815 100.317 64.4763 100.93C63.636 101.432 62.6468 101.625 61.6792 101.477C61.0311 101.384 60.4238 101.105 59.9311 100.674C59.8 100.556 59.6843 100.422 59.5864 100.275C59.5174 100.177 59.4879 100.122 59.4977 100.117C59.5076 100.113 59.6652 100.305 59.9902 100.575C60.4849 100.951 61.0719 101.186 61.6891 101.255C62.6029 101.364 63.5266 101.159 64.3089 100.674C65.266 100.07 66.07 99.2526 66.6578 98.2856C67.2459 97.3042 67.777 96.2897 68.2484 95.2472C68.6456 94.3863 69.1186 93.5623 69.6617 92.785C70.0306 92.2585 70.4697 91.7846 70.9666 91.3767C71.1442 91.22 71.3474 91.095 71.5674 91.0073Z" fill="#E0E0E0"/>
<path d="M62.9155 137.134C62.9029 137.005 62.9029 136.874 62.9155 136.745C62.9155 136.459 62.9155 136.095 62.9155 135.642C62.9155 134.687 62.9845 133.298 63.0583 131.589C63.211 128.142 63.4769 123.434 63.8906 118.224C64.3042 113.014 64.772 108.297 65.1561 104.894C65.3531 103.19 65.5205 101.811 65.6486 100.866C65.7077 100.418 65.7618 100.053 65.8012 99.7727C65.8134 99.6442 65.8381 99.5172 65.8751 99.3936C65.8903 99.5211 65.8903 99.6501 65.8751 99.7777C65.8505 100.063 65.816 100.428 65.7815 100.876C65.683 101.861 65.5501 103.239 65.3925 104.914C65.0626 108.326 64.6243 113.039 64.2156 118.249C63.8068 123.459 63.5015 128.181 63.2947 131.599C63.1913 133.278 63.1076 134.652 63.0485 135.647L62.9697 136.75C62.9629 136.879 62.9448 137.008 62.9155 137.134Z" fill="#E0E0E0"/>
<path d="M64.1416 116.215C64.1416 116.299 62.2555 116.279 59.9509 115.989C57.6463 115.698 55.8145 115.265 55.8292 115.186C55.844 115.107 57.6956 115.393 59.9903 115.679C62.2851 115.964 64.1465 116.107 64.1416 116.215Z" fill="#E0E0E0"/>
<path d="M62.6199 116.151C62.7697 116.428 62.8571 116.734 62.876 117.048C62.9329 117.381 62.9674 117.719 62.9794 118.057C62.9964 118.278 62.9592 118.499 62.8711 118.702C62.8161 118.826 62.7273 118.931 62.6148 119.006C62.5024 119.081 62.3709 119.122 62.2358 119.126C62.159 119.129 62.0824 119.114 62.0123 119.083C61.9422 119.051 61.8804 119.003 61.832 118.943C61.7468 118.837 61.6969 118.706 61.6892 118.569C61.6827 118.356 61.7126 118.142 61.7779 117.939C61.8603 117.601 61.9724 117.272 62.1127 116.954C62.354 116.427 62.5805 116.146 62.6052 116.166C62.5356 116.466 62.4367 116.758 62.3097 117.038C62.2061 117.348 62.119 117.664 62.0487 117.983C62.0032 118.158 61.9833 118.339 61.9896 118.52C61.9896 118.687 62.0881 118.791 62.226 118.791C62.5559 118.791 62.6889 118.392 62.6741 118.037C62.6593 117.683 62.6741 117.333 62.6446 117.053C62.5986 116.754 62.5903 116.452 62.6199 116.151Z" fill="#E0E0E0"/>
<path d="M83.8435 88.0625L64.0588 85.7523C61.4682 85.4498 59.6134 83.1045 59.9159 80.514L60.3448 76.8407C60.6473 74.2502 62.9925 72.3953 65.5831 72.6978L85.3678 75.008C87.9583 75.3105 89.8132 77.6557 89.5107 80.2463L89.0818 83.9195C88.7793 86.5101 86.434 88.3649 83.8435 88.0625Z" fill="#455A64"/>
<path d="M65.9141 73.0136C65.9141 73.0136 65.9731 72.9742 66.1012 72.9348C66.2903 72.8808 66.4856 72.851 66.6823 72.8462C67.418 72.8492 68.1317 73.097 68.7111 73.5504C69.5981 74.1746 70.3019 75.0247 70.7498 76.0126C71.2504 77.234 71.4432 78.5598 71.3112 79.8733C71.2398 81.1984 70.7752 82.4722 69.9767 83.5321C69.321 84.3977 68.4202 85.0462 67.3914 85.3935C66.7069 85.6293 65.9786 85.7101 65.2591 85.6299C65.0638 85.6083 64.871 85.5688 64.683 85.5117C64.5549 85.4723 64.4909 85.4477 64.4958 85.4378C64.5008 85.428 64.7716 85.4772 65.269 85.5068C65.9667 85.5371 66.6634 85.4266 67.3175 85.1818C68.288 84.8233 69.1321 84.1882 69.7452 83.3548C70.4915 82.3315 70.9244 81.1134 70.9911 79.8487C71.1265 78.5878 70.9576 77.3129 70.4987 76.1308C70.0783 75.1846 69.4221 74.3623 68.5929 73.7424C68.0568 73.2991 67.3958 73.034 66.702 72.9841C66.1898 72.9496 65.919 73.0432 65.9141 73.0136Z" fill="#263238"/>
<path d="M77.2212 74.0133L74.1681 73.7129C74.9842 73.9625 75.6834 74.4973 76.1378 75.2197C76.5804 75.938 76.8658 76.7419 76.975 77.5785C77.5216 81.0896 75.6552 84.8617 72.6563 86.7625L75.1185 87.0875C75.1185 87.0875 82.1603 80.7991 77.2409 74.0133" fill="#263238"/>
<path d="M80.678 80.4742C79.8912 80.692 79.0643 80.7225 78.2635 80.5634C77.4628 80.4043 76.7104 80.0599 76.0666 79.5578C75.4229 79.0557 74.9056 78.4099 74.5562 77.672C74.2069 76.9341 74.0351 76.1247 74.0547 75.3085C74.0892 73.7967 74.7786 72.2505 74.3058 70.8076C73.9808 69.8228 73.1535 69.0447 72.8728 68.0451C72.4592 66.5431 73.3653 65.0313 74.227 63.7412C74.7402 62.8839 75.3793 62.1087 76.1229 61.4415C76.4972 61.1091 76.9401 60.8631 77.42 60.721C77.9 60.5789 78.4054 60.5441 78.9003 60.6191" fill="#263238"/>
<path d="M94.6633 60.752C94.5796 61.8944 95.333 62.9187 96.0963 63.7755C96.8596 64.6324 97.7016 65.5335 97.8691 66.6661C98.1596 68.6802 96.1898 70.5465 96.5936 72.5409C96.8152 73.6095 97.6869 74.4664 97.8444 75.5448C98.002 76.6232 97.4357 77.613 96.7414 78.4059C96.047 79.1987 95.205 79.8832 94.5894 80.7203C94.005 81.6668 93.5104 82.6658 93.1121 83.7045C92.7146 84.7508 91.9912 85.6416 91.0488 86.2455C89.5715 87.0432 87.5229 86.669 86.4002 87.905C85.2774 89.141 83.9774 89.2838 82.638 90.185" fill="#263238"/>
<path d="M77.0485 62.5003C77.0189 61.4662 77.9792 60.6635 78.9443 60.2843C79.9095 59.9051 80.988 59.7574 81.8497 59.1763C82.613 58.6839 83.1251 57.8664 83.7702 57.2066C84.568 56.4021 85.5649 55.8237 86.6593 55.5306C87.7537 55.2374 88.9063 55.2399 89.9993 55.5378C91.0924 55.8357 92.0869 56.4184 92.8811 57.2264C93.6753 58.0343 94.241 59.0386 94.5202 60.1366C94.8895 61.6139 94.6383 63.3621 93.4713 64.3469C92.1171 65.4845 90.1128 65.2333 88.3795 64.8788C86.6461 64.5242 84.6862 64.1746 83.2384 65.1939C82.3668 65.8045 81.8694 66.8042 81.3327 67.73C80.7959 68.6558 80.1311 69.5963 79.1216 69.941C78.1121 70.2857 76.7431 69.6899 76.7037 68.6262" fill="#263238"/>
<path d="M81.1605 62.7167C80.7283 62.7624 80.3292 62.9692 80.0426 63.2959C79.7561 63.6226 79.6031 64.0453 79.6142 64.4797L80.6483 87.9394C80.6926 90.7119 84.7405 92.268 87.7099 92.199C90.7039 92.1301 90.8024 90.6577 90.8369 88.0231C90.9009 83.6207 90.896 81.9662 90.896 81.9908C90.896 82.0154 94.6828 81.3555 95.4559 76.4164C95.84 73.9542 95.7071 69.931 95.4904 66.6415C95.2984 63.6869 93.3286 60.0477 90.374 60.3629L81.1605 62.7167Z" fill="#FFBE9D"/>
<path d="M94.5546 69.4635C94.5573 69.6291 94.4947 69.789 94.3805 69.9088C94.2662 70.0285 94.1094 70.0986 93.944 70.1037C93.864 70.109 93.7838 70.0985 93.7079 70.0726C93.6321 70.0467 93.5622 70.006 93.5021 69.9528C93.4421 69.8997 93.3933 69.8352 93.3584 69.763C93.3235 69.6909 93.3033 69.6125 93.2989 69.5325C93.2962 69.3678 93.3581 69.2086 93.4713 69.089C93.5845 68.9693 93.74 68.8987 93.9046 68.8923C93.985 68.8863 94.0657 68.8964 94.1421 68.922C94.2186 68.9476 94.2891 68.9881 94.3496 69.0413C94.4102 69.0945 94.4595 69.1593 94.4947 69.2318C94.5299 69.3043 94.5502 69.3831 94.5546 69.4635Z" fill="#263238"/>
<path d="M94.6235 68.7346C94.5447 68.8183 94.0621 68.4637 93.3826 68.4687C92.703 68.4736 92.2007 68.8134 92.1268 68.7297C92.053 68.6459 92.1711 68.5425 92.3878 68.3849C92.6778 68.1855 93.0208 68.0775 93.3727 68.0747C93.7259 68.0739 94.0705 68.1841 94.3576 68.3899C94.589 68.5524 94.6629 68.7001 94.6235 68.7346Z" fill="#263238"/>
<path d="M87.7694 69.6359C87.7721 69.8014 87.7096 69.9613 87.5953 70.0811C87.4811 70.2009 87.3243 70.2709 87.1588 70.2761C87.0787 70.2828 86.9981 70.2733 86.9217 70.2483C86.8453 70.2233 86.7747 70.1832 86.7141 70.1304C86.6535 70.0776 86.6041 70.0131 86.5688 69.9409C86.5335 69.8686 86.5131 69.7901 86.5088 69.7098C86.5061 69.5446 86.5678 69.3849 86.6809 69.2644C86.7939 69.144 86.9495 69.0723 87.1145 69.0647C87.1951 69.0587 87.2762 69.0687 87.3529 69.0942C87.4296 69.1198 87.5004 69.1603 87.5614 69.2134C87.6223 69.2666 87.6721 69.3313 87.7078 69.4038C87.7435 69.4763 87.7645 69.5552 87.7694 69.6359Z" fill="#263238"/>
<path d="M87.9209 68.8773C87.8421 68.961 87.3645 68.6064 86.68 68.6114C85.9955 68.6163 85.5031 68.9561 85.4292 68.8723C85.3553 68.7886 85.4686 68.6852 85.6902 68.5276C85.9785 68.3248 86.3226 68.2165 86.6751 68.2174C87.0288 68.2131 87.3744 68.3237 87.6599 68.5326C87.8815 68.6901 87.9603 68.8428 87.9209 68.8773Z" fill="#263238"/>
<path d="M90.4082 73.9296C90.7675 73.8147 91.1397 73.7452 91.5162 73.7228C91.6885 73.7228 91.851 73.6735 91.8806 73.5553C91.8984 73.3753 91.8587 73.1943 91.7673 73.0383L91.2453 71.7136C90.7682 70.5968 90.3796 69.4442 90.0832 68.2665C90.162 68.237 90.8071 69.7439 91.5211 71.625C91.6984 72.1174 91.8609 72.536 92.0136 72.9595C92.1252 73.1675 92.1584 73.4086 92.1071 73.639C92.0817 73.7004 92.0429 73.7552 91.9935 73.7996C91.944 73.8439 91.8853 73.8765 91.8215 73.8951C91.7253 73.9222 91.626 73.937 91.526 73.9394C91.1544 73.9805 90.7791 73.9772 90.4082 73.9296Z" fill="#263238"/>
<path d="M90.8955 81.9911C88.5725 82.039 86.2817 81.4424 84.2771 80.2676C84.2771 80.2676 85.912 83.6309 90.8364 83.1582L90.8955 81.9911Z" fill="#EB996E"/>
<path d="M90.1223 75.5696C89.9913 75.4076 89.8216 75.2811 89.6288 75.2019C89.436 75.1228 89.2264 75.0934 89.0193 75.1166C88.8691 75.1316 88.7234 75.1763 88.5906 75.2482C88.4579 75.32 88.3408 75.4176 88.2461 75.5352C88.1555 75.6492 88.1021 75.7883 88.0933 75.9337C88.0845 76.079 88.1207 76.2236 88.1969 76.3477C88.3066 76.4691 88.45 76.555 88.6087 76.5945C88.7675 76.634 88.9345 76.6252 89.0882 76.5693C89.4108 76.4554 89.7071 76.2779 89.9598 76.0473C90.0371 75.994 90.1025 75.9252 90.1519 75.8454C90.1787 75.809 90.1931 75.765 90.1931 75.7198C90.1931 75.6746 90.1787 75.6306 90.1519 75.5943" fill="#EB996E"/>
<path d="M88.4041 74.4024C88.5125 74.4024 88.5174 75.1362 89.1526 75.6582C89.7879 76.1801 90.5758 76.1014 90.5807 76.2048C90.5856 76.3082 90.4034 76.3476 90.0883 76.3574C89.6544 76.3663 89.2317 76.2195 88.8966 75.9438C88.5719 75.6825 88.3632 75.3039 88.3155 74.89C88.2712 74.5846 88.3746 74.3975 88.4041 74.4024Z" fill="#263238"/>
<path d="M88.2268 67.6857C88.1627 67.8679 87.4782 67.7841 86.6805 67.8826C85.8827 67.9811 85.2327 68.1978 85.1293 68.0353C85.0801 67.9516 85.1933 67.7792 85.4543 67.597C85.7996 67.3739 86.1928 67.2356 86.6017 67.1932C87.0107 67.144 87.4256 67.1912 87.8131 67.3311C88.1086 67.4641 88.2563 67.597 88.2268 67.6857Z" fill="#263238"/>
<path d="M94.3672 66.7649C94.249 66.9175 93.7762 66.7649 93.2149 66.7649C92.6535 66.7649 92.1709 66.8683 92.0626 66.7058C92.0133 66.6319 92.0872 66.4744 92.294 66.3266C92.5746 66.1497 92.9015 66.0604 93.233 66.07C93.5645 66.0797 93.8856 66.1879 94.1554 66.3808C94.3524 66.5285 94.4214 66.691 94.3672 66.7649Z" fill="#263238"/>
<path d="M77.7122 78.9624C78.3947 79.0999 79.1001 79.0731 79.7701 78.8841C80.4402 78.6951 81.0556 78.3493 81.5656 77.8754C82.0756 77.4015 82.4655 76.813 82.7031 76.1586C82.9407 75.5042 83.0192 74.8026 82.932 74.1119C82.7744 72.9005 82.1244 71.6497 82.543 70.5171C83.0994 69.0004 85.2268 68.5473 85.7931 67.0208C86.1181 66.1393 85.8226 65.1101 86.1969 64.2484C86.5711 63.3866 87.3984 62.968 88.2306 62.6676C89.0866 62.4468 89.9025 62.0929 90.6485 61.6187C91.3478 61.0771 91.7811 60.0528 91.333 59.2944C87.6433 59.7339 84.0194 60.6134 80.5388 61.9142C79.7361 62.2146 78.8891 62.579 78.4114 63.293C77.9338 64.0071 77.919 65.0313 77.9732 65.9423L78.5936 79.2382" fill="#263238"/>
<path d="M75.0542 83.0694C75.0564 82.646 75.1435 82.2274 75.3103 81.8383C75.5145 81.3879 75.8 80.9789 76.1523 80.6318C76.6258 80.1795 77.1634 79.7995 77.7479 79.5041C78.3929 79.1545 79.1365 78.8344 79.8949 78.4011C80.7304 77.9569 81.435 77.3015 81.9385 76.5003C82.2025 76.0522 82.3451 75.543 82.3521 75.023C82.3305 74.4949 82.2563 73.9703 82.1306 73.457C81.9934 72.9519 81.9582 72.4246 82.0271 71.9058C82.0807 71.6506 82.1902 71.4105 82.3477 71.2027C82.5052 70.995 82.7069 70.8247 82.9381 70.7043C83.4306 70.4285 83.923 70.2562 84.4401 70.0198C84.9693 69.8054 85.4162 69.4276 85.7155 68.9413C85.9646 68.4589 86.093 67.9233 86.0897 67.3803C86.0897 66.8633 86.0897 66.3659 86.0897 65.903C86.078 65.4405 86.1446 64.9793 86.2867 64.5389C86.4302 64.1355 86.6908 63.784 87.0352 63.5294C87.7021 63.1013 88.4467 62.8085 89.2266 62.6677C89.8867 62.5363 90.5174 62.286 91.088 61.929C91.5185 61.6363 91.8337 61.2027 91.9793 60.7029C92.0798 60.3923 92.0798 60.058 91.9793 59.7475C91.9409 59.6431 91.8842 59.5464 91.8119 59.4619C91.8119 59.4619 91.866 59.5653 91.9301 59.7672C92.0132 60.0668 92.0029 60.3847 91.9005 60.6782C91.7461 61.1433 91.4389 61.5425 91.0289 61.8108C90.4643 62.1434 89.8461 62.3751 89.202 62.4953C88.3943 62.6301 87.6212 62.923 86.9269 63.3571C86.5466 63.6345 86.2571 64.0184 86.0947 64.4602C85.9421 64.924 85.8672 65.4098 85.8731 65.8981C85.8731 66.3905 85.8731 66.883 85.8731 67.3754C85.8743 67.8785 85.7561 68.3746 85.5284 68.8232C85.2536 69.2668 84.8449 69.6117 84.3613 69.808C83.8689 70.0395 83.3419 70.2069 82.8347 70.5024C82.5801 70.6525 82.3535 70.8458 82.165 71.0736C81.9845 71.3078 81.8613 71.581 81.8055 71.8714C81.7312 72.4246 81.7681 72.9871 81.9139 73.5259C82.0385 74.0211 82.1127 74.5276 82.1355 75.0377C82.1334 75.5191 82.0043 75.9913 81.7612 76.4067C81.2824 77.1767 80.6122 77.8095 79.8161 78.2435C79.0774 78.6768 78.3388 79.0068 77.6888 79.3712C77.0946 79.6823 76.5515 80.0825 76.0785 80.558C75.7218 80.922 75.4392 81.3518 75.2463 81.8235C75.1251 82.1209 75.06 82.4381 75.0542 82.7592C75.0479 82.8428 75.0479 82.9267 75.0542 83.0103C75.0444 83.0399 75.0493 83.0694 75.0542 83.0694Z" fill="#263238"/>
<path d="M89.4482 86.4574C89.5241 86.4951 89.6056 86.52 89.6895 86.5312C89.7898 86.5556 89.8919 86.5721 89.9948 86.5805C90.1334 86.6014 90.2733 86.6113 90.4134 86.61C91.3222 86.6109 92.2092 86.3324 92.9544 85.8123C93.4751 85.4601 93.9122 84.9978 94.2347 84.4581C94.5785 83.8285 94.8023 83.1406 94.8946 82.4292C94.9835 81.6712 95.1999 80.9336 95.5348 80.2477C95.9189 79.5633 96.6329 79.1102 97.278 78.5242C97.9372 77.9528 98.3674 77.1622 98.4894 76.2984C98.6042 75.4957 98.4427 74.6778 98.0314 73.979C97.6305 73.4097 97.2858 72.8028 97.0022 72.1668C96.8092 71.5987 96.7371 70.9966 96.7905 70.399C96.8882 69.5237 97.0984 68.6647 97.4159 67.8432C97.5396 67.5425 97.6464 67.235 97.736 66.9224C97.6847 66.9901 97.6433 67.0647 97.6128 67.144C97.5439 67.2966 97.4405 67.5182 97.3223 67.8088C96.9634 68.629 96.7229 69.4962 96.6083 70.3842C96.5416 71.0097 96.607 71.6421 96.8003 72.2407C97.079 72.8921 97.4222 73.514 97.8246 74.0972C98.2058 74.751 98.3518 75.5156 98.2382 76.2639C98.1247 77.0695 97.7221 77.8063 97.1056 78.3371C96.4901 78.8985 95.7416 79.3712 95.3181 80.1197C94.9692 80.8308 94.7476 81.5974 94.6631 82.3849C94.5815 83.0733 94.3746 83.7409 94.0525 84.3547C93.7518 84.8747 93.3419 85.3233 92.851 85.6695C92.1399 86.1856 91.2914 86.4787 90.4134 86.5115C89.7929 86.5263 89.4531 86.4278 89.4482 86.4574Z" fill="#263238"/>
<path d="M75.0788 62.9188C75.0309 62.976 75.0017 63.0464 74.9951 63.1207C74.9845 63.2272 74.9961 63.3346 75.0291 63.4363C75.0622 63.5381 75.116 63.6318 75.1872 63.7117C75.2965 63.8429 75.4315 63.9504 75.584 64.0275C75.7364 64.1045 75.903 64.1496 76.0735 64.1598C76.5137 64.1329 76.9417 64.0048 77.3243 63.7855C77.766 63.5388 78.2573 63.3941 78.7623 63.362C79.3491 63.3465 79.9358 63.3994 80.5104 63.5196C81.1585 63.66 81.8176 63.744 82.4802 63.7707C83.2257 63.8003 83.9529 63.5349 84.5041 63.0321C84.9989 62.5078 85.3928 61.8968 85.6662 61.2298C85.9181 60.632 86.2352 60.0639 86.6117 59.5358C86.9331 59.1037 87.3736 58.7748 87.8792 58.5894C88.3848 58.4039 88.9335 58.37 89.458 58.4918C90.1727 58.6819 90.7876 59.1382 91.1766 59.7672C91.3133 60.0023 91.435 60.2457 91.541 60.496C91.541 60.496 91.541 60.4222 91.5016 60.2843C91.4476 60.0846 91.3681 59.8926 91.2653 59.7131C90.9515 59.133 90.4461 58.6798 89.8354 58.431C89.2246 58.1822 88.5464 58.1532 87.9167 58.349C87.3279 58.5327 86.8113 58.896 86.4394 59.3881C86.0479 59.9276 85.7176 60.5089 85.4545 61.1214C85.1905 61.7584 84.8134 62.3423 84.3416 62.845C83.8397 63.3057 83.1756 63.5483 82.4949 63.5196C81.846 63.4946 81.2004 63.4155 80.5646 63.2832C79.9714 63.1656 79.3664 63.1193 78.7623 63.1454C78.2316 63.1978 77.719 63.3659 77.2603 63.6378C76.9036 63.8541 76.5033 63.9887 76.0883 64.0317C75.9352 64.027 75.7845 63.992 75.645 63.9286C75.5055 63.8652 75.38 63.7747 75.2758 63.6624C75.2074 63.594 75.1534 63.5125 75.1171 63.4229C75.0807 63.3332 75.0627 63.2372 75.064 63.1404C75.0788 62.9878 75.1182 62.9238 75.0788 62.9188Z" fill="#455A64"/>
<path d="M77.8715 61.4957C78.6861 61.3087 79.411 60.8459 79.9235 60.1856C80.436 59.5254 80.7045 58.7083 80.6837 57.8728C80.6628 57.0373 80.3538 56.2346 79.809 55.6008C79.2642 54.9669 78.5171 54.5409 77.6942 54.3947C77.3054 54.2993 76.8979 54.3122 76.5159 54.432C76.1339 54.5518 75.7921 54.7739 75.5275 55.0743C75.0744 55.6898 75.104 56.6107 74.5426 57.113C73.9812 57.6153 72.9766 57.4183 72.1789 57.6054C71.5674 57.7798 71.0378 58.1656 70.6842 58.6941C70.3307 59.2226 70.1763 59.8594 70.2485 60.4911C70.3489 61.1191 70.6123 61.7097 71.0124 62.204C71.4125 62.6982 71.9353 63.0789 72.5285 63.3079C73.7302 63.7464 75.0441 63.7706 76.2612 63.3768C77.4681 62.9855 78.6149 62.4287 79.6689 61.7222" fill="#263238"/>
<path d="M71.937 57.9258C71.9838 58.2519 72.107 58.5623 72.2965 58.8318C72.7064 59.5154 73.2736 60.0911 73.951 60.5111C74.6284 60.9338 75.3962 61.1902 76.1916 61.2596C76.5213 61.3106 76.8582 61.2853 77.1765 61.1857C77.1765 61.1414 76.8022 61.1857 76.2261 61.0774C75.4729 60.963 74.7508 60.6966 74.1037 60.2944C73.4584 59.8887 72.9009 59.3579 72.4639 58.7333C72.1241 58.2557 71.9764 57.911 71.937 57.9258Z" fill="#455A64"/>
<path d="M74.5471 63.3864C75.1816 62.5503 75.9775 61.8501 76.8877 61.3273C77.7979 60.8046 78.8038 60.4699 79.8457 60.3432C79.5351 60.2827 79.2158 60.2827 78.9051 60.3432C77.3803 60.5668 75.9971 61.3605 75.0346 62.5641C74.8167 62.8014 74.6507 63.0814 74.5471 63.3864Z" fill="#FA7C56"/>
<path d="M110.43 117.018L118.413 115.472L116.975 117.515L120.382 119.219L123.234 117.885C123.012 118.467 122.733 119.026 122.401 119.554C121.776 120.593 120.924 121.43 120.402 121.47C120.227 122.189 119.863 122.848 119.348 123.38C118.885 123.842 118.31 124.176 117.679 124.348C117.048 124.521 116.383 124.527 115.749 124.365L110.386 122.425L110.43 117.018Z" fill="#FFBE9D"/>
<path d="M118.482 121.022C118.614 121.187 118.781 121.321 118.971 121.413C119.161 121.506 119.369 121.556 119.58 121.558C119.788 121.602 120.002 121.6 120.208 121.553C120.415 121.506 120.609 121.416 120.777 121.288C120.748 121.214 120.24 121.381 119.61 121.288C118.98 121.194 118.522 120.958 118.482 121.022Z" fill="#EB996E"/>
<path d="M117.428 122.72C117.379 122.77 117.724 123.154 118.315 123.306C118.486 123.373 118.67 123.4 118.853 123.386C119.036 123.373 119.214 123.318 119.373 123.228C119.373 123.154 118.881 123.198 118.388 123.06C117.896 122.922 117.487 122.666 117.428 122.72Z" fill="#EB996E"/>
<path d="M115.425 116.708C115.643 116.866 115.875 117.002 116.119 117.117C116.547 117.358 117.104 117.762 117.729 118.195C118.265 118.583 118.86 118.881 119.492 119.077C119.753 119.175 120.035 119.2 120.31 119.151C120.31 119.111 120.004 119.077 119.546 118.904C118.955 118.662 118.393 118.353 117.872 117.983C117.343 117.598 116.785 117.254 116.203 116.954C115.966 116.814 115.699 116.73 115.425 116.708Z" fill="#EB996E"/>
<path d="M67.0023 130.27C67.0023 130.27 66.7314 130.442 66.0519 131.648C63.9688 135.366 63.1268 144.274 70.9762 152.227C81.1303 162.5 93.0227 179.311 93.0227 179.311L102.379 218.785L116.482 215.727L109.214 174.702L89.2851 137.73L67.0023 130.27Z" fill="#263238"/>
<path d="M51.4465 206.666L73.1728 173.417L79.7617 144.718L96.5439 152.966L88.1282 182.094L61.2755 215.54L51.4465 206.666Z" fill="#263238"/>
<path d="M102.369 218.785C102.366 218.719 102.354 218.653 102.335 218.589C102.305 218.451 102.266 218.263 102.216 218.022C102.098 217.53 101.936 216.786 101.724 215.851L99.8774 207.883C98.2967 201.146 96.1152 191.864 93.7022 181.611C93.5151 180.814 93.328 180.021 93.1507 179.282V179.248C86.9952 171.369 81.3863 164.401 77.2597 159.452C75.1915 156.989 73.5024 155.02 72.3058 153.67C71.7198 152.996 71.2372 152.493 70.9171 152.149L70.5527 151.76C70.469 151.671 70.4247 151.627 70.4198 151.632C70.4535 151.682 70.4913 151.73 70.533 151.775L70.8827 152.178C71.188 152.538 71.6558 153.05 72.2369 153.734C73.4089 155.089 75.0733 157.078 77.1218 159.565C81.214 164.543 86.7982 171.531 92.9488 179.405V179.356C93.1212 180.095 93.3083 180.887 93.5003 181.685L99.7001 207.927C100.513 211.271 101.177 213.984 101.626 215.875C101.857 216.801 102.034 217.53 102.162 218.032C102.221 218.273 102.271 218.456 102.305 218.593C102.32 218.659 102.342 218.724 102.369 218.785Z" fill="#455A64"/>
<path d="M76.8913 140.763C76.9917 140.847 77.107 140.91 77.2311 140.95C77.5567 141.091 77.8946 141.202 78.2406 141.28C79.392 141.543 80.5914 141.508 81.7254 141.178C82.8594 140.848 83.8904 140.234 84.7211 139.394C84.971 139.142 85.1984 138.869 85.4006 138.577C85.5385 138.365 85.6025 138.242 85.5878 138.232C85.573 138.222 85.2431 138.665 84.6029 139.261C83.7661 140.039 82.7591 140.611 81.6621 140.931C80.5652 141.251 79.4087 141.31 78.2849 141.103C77.4133 140.945 76.9061 140.724 76.8913 140.763Z" fill="#455A64"/>
<path d="M64.9104 131.974C73.4099 136.45 87.2031 139.124 91.6153 137.307L91.768 120.933C91.768 120.933 97.8102 110.971 97.8348 107.204C97.8693 101.787 91.1081 89.3925 91.1081 89.3925L80.959 86.6693C78.9153 86.6257 76.8935 87.0965 75.0793 88.0383C73.1812 89.0901 71.6367 90.68 70.6404 92.6078C69.644 94.5356 69.2404 96.7151 69.4803 98.8719L72.036 115.162L64.9104 131.974Z" fill="#FA7C56"/>
<g opacity="0.3">
<path d="M75.8027 88.0235C75.2118 87.9348 74.9951 88.8951 75.4137 89.3186C75.8322 89.7421 76.497 89.7618 77.083 89.8504C79.7274 90.264 81.771 92.5293 82.7313 95.0259C83.6915 97.5226 83.7851 100.251 83.9427 102.905C84.1003 105.559 84.3613 108.322 85.617 110.69C86.7894 108.612 87.4844 106.298 87.6513 103.918C87.8182 101.537 87.453 99.1494 86.5821 96.9276C85.7112 94.7058 84.3565 92.7058 82.6163 91.0728C80.8762 89.4398 78.7942 88.2148 76.5216 87.4867" fill="black"/>
</g>
<path d="M75.0785 88.0381C75.0785 88.0381 76.5559 85.6301 81.4409 86.674C84.7106 87.3733 91.8608 94.2428 89.8665 105.278C87.8721 116.314 82.5242 120.224 82.5242 120.224C82.5242 120.224 87.4486 103.328 84.7106 95.9565C83.9939 93.8753 82.7143 92.0335 81.014 90.6357C79.3136 89.2378 77.2591 88.3387 75.0785 88.0381Z" fill="#263238"/>
<g opacity="0.3">
<path d="M91.5798 124.409C89.5559 125.059 87.6157 125.887 85.5081 126.153C83.3991 126.499 81.236 126.273 79.2443 125.498C76.5408 124.345 74.5316 121.883 73.4975 119.13C72.4634 116.378 72.3206 113.364 72.5963 110.434C74.443 112.719 74.2214 116.102 75.7923 118.589C76.7771 120.14 78.3776 121.199 80.0223 122.036C83.6212 123.766 87.5899 124.586 91.5798 124.424" fill="black"/>
</g>
<path d="M85.4939 107.682C85.4939 107.682 86.1538 120.111 70.9917 117.639L69.4651 121.234C69.4651 121.234 85.4053 124.602 87.6853 111.385L85.4939 107.682Z" fill="#263238"/>
<path d="M71.6762 92.2339C71.0382 93.1821 70.6082 94.2546 70.4147 95.381C70.2212 96.5073 70.2685 97.6618 70.5534 98.7686L74.3305 115.674C75.9506 120.431 80.5746 123.322 83.4504 123.706L110.382 126.557V116.506L85.3808 112.793L84.2088 99.1034C84.1053 97.2617 83.1992 93.9525 82.0272 92.5245C80.7174 90.9339 78.7033 88.7672 75.4138 89.3187C73.3997 89.6535 72.5429 90.9979 71.6762 92.2339Z" fill="#FA7C56"/>
<path d="M70.8978 99.4282C70.8937 99.5551 70.902 99.6821 70.9224 99.8074C70.9519 100.059 70.9963 100.423 71.0603 100.896C71.1883 101.841 71.3853 103.2 71.6857 104.875C71.986 106.549 72.3702 108.543 72.8774 110.735C73.1285 111.828 73.3994 112.98 73.7293 114.182C74.0517 115.412 74.4937 116.608 75.049 117.752C75.6101 118.903 76.3817 119.938 77.3241 120.805C78.2026 121.609 79.1991 122.273 80.2787 122.775C82.1099 123.595 84.0657 124.103 86.0649 124.277C87.7638 124.449 89.1426 124.459 90.093 124.469H91.1911C91.3173 124.48 91.4442 124.48 91.5703 124.469C91.4452 124.446 91.3182 124.437 91.1911 124.439L90.0979 124.395C89.1475 124.355 87.7687 124.316 86.0846 124.119C84.1121 123.924 82.1854 123.405 80.3821 122.583C79.3235 122.093 78.3455 121.446 77.4817 120.662C76.5662 119.81 75.8151 118.797 75.2657 117.673C74.7196 116.544 74.2826 115.365 73.9607 114.152C73.6308 112.98 73.355 111.833 73.094 110.74C72.6016 108.553 72.1683 106.573 71.8531 104.904C71.5379 103.235 71.3065 101.881 71.1489 100.965C71.0701 100.517 71.011 100.157 70.9667 99.8862C70.9554 99.732 70.9323 99.5789 70.8978 99.4282Z" fill="#263238"/>
<path d="M84.6559 115.674C84.9363 115.217 85.1409 114.719 85.2616 114.197C85.4663 113.706 85.5894 113.185 85.626 112.655C85.1395 113.596 84.807 114.608 84.6411 115.654L84.6559 115.674Z" fill="#263238"/>
<path d="M83.1246 115.29C83.6565 115.04 84.126 114.675 84.4985 114.221C84.9312 113.826 85.268 113.338 85.4834 112.793C85.0627 113.186 84.6679 113.605 84.3016 114.049C83.8813 114.435 83.488 114.85 83.1246 115.29Z" fill="#263238"/>
<path d="M108.038 116.161L107.925 116.132L107.59 116.068L106.3 115.856L101.508 115.103L85.4204 112.67L85.5287 112.783C85.4401 111.848 85.3465 110.863 85.2481 109.858C84.928 106.308 84.5882 102.925 84.4208 99.8369C84.3042 98.369 84.0234 96.9187 83.5836 95.5133C83.2304 94.2692 82.6309 93.1087 81.8207 92.1007C80.2252 90.3624 78.4376 89.4416 77.1228 89.2741C76.6206 89.2026 76.1101 89.2126 75.611 89.3037C75.4436 89.3382 75.3156 89.3776 75.2319 89.4022L75.1038 89.4465C75.7612 89.2956 76.4413 89.2705 77.1081 89.3726C78.3884 89.5647 80.1316 90.4954 81.6828 92.2238C82.4676 93.2162 83.0438 94.3568 83.3768 95.5773C83.8062 96.9688 84.0771 98.4044 84.1844 99.8566C84.337 102.944 84.6768 106.332 84.9969 109.883C85.0905 110.868 85.184 111.852 85.2776 112.808V112.906H85.3761L101.499 115.26L106.3 115.93L107.6 116.102L107.935 116.142L108.038 116.161Z" fill="#263238"/>
<path d="M92.6246 124.351C92.6936 124.351 92.9792 122.081 93.2599 119.269C93.5406 116.457 93.7129 114.162 93.644 114.152C93.3427 115.836 93.1291 117.534 93.0038 119.239C92.7899 120.935 92.6634 122.642 92.6246 124.351Z" fill="#FAFAFA"/>
<path d="M72.9073 109.09C73.4772 109.139 74.0499 109.147 74.621 109.114C75.6797 109.114 77.1373 109.055 78.7525 108.996C80.3677 108.937 81.8254 108.868 82.8792 108.804C83.4501 108.795 84.0196 108.744 84.583 108.651C84.0135 108.596 83.4404 108.586 82.8693 108.622C81.8155 108.622 80.353 108.681 78.7427 108.74C77.1324 108.799 75.6748 108.868 74.6161 108.932C74.0432 108.939 73.4718 108.992 72.9073 109.09Z" fill="#FAFAFA"/>
<path d="M90.0048 105.874C90.3702 105.968 90.7455 106.018 91.1227 106.022C91.8121 106.071 92.7723 106.106 93.8311 106.086C94.8898 106.066 95.8501 105.992 96.5395 105.914C96.9155 105.897 97.2878 105.832 97.6475 105.722C97.2741 105.685 96.898 105.685 96.5247 105.722C95.8353 105.756 94.88 105.795 93.8262 105.815C92.7723 105.835 91.817 105.815 91.1276 105.815C90.7523 105.793 90.3758 105.813 90.0048 105.874Z" fill="#FAFAFA"/>
<path d="M87.7782 94.1934C87.8176 94.2574 88.8517 93.7009 90.1911 93.2085C91.5306 92.716 92.6533 92.4157 92.6533 92.3418C90.9024 92.5555 89.2295 93.1909 87.7782 94.1934Z" fill="#FAFAFA"/>
<path d="M68.2186 124.917C68.2865 124.965 68.3611 125.004 68.4402 125.03L69.0902 125.296C69.6516 125.528 70.4789 125.833 71.5081 126.192C74.1938 127.117 76.9275 127.896 79.6973 128.527C82.467 129.171 85.2699 129.665 88.0934 130.004C89.1767 130.127 90.0631 130.211 90.6639 130.25L91.3632 130.289C91.4447 130.302 91.5278 130.302 91.6094 130.289C91.5315 130.262 91.4503 130.246 91.3681 130.24L90.6737 130.152C90.068 130.083 89.1964 129.974 88.1131 129.827C85.9611 129.531 82.9917 129.044 79.7416 128.305C76.4915 127.566 73.6206 126.709 71.5524 126.035C70.5182 125.7 69.6811 125.419 69.0902 125.217L68.4254 124.996C68.359 124.963 68.2898 124.937 68.2186 124.917Z" fill="#FAFAFA"/>
<path d="M69.8242 95.4691C69.8242 95.5381 72.7296 95.5036 76.3096 95.3854C79.8896 95.2672 82.7852 95.1195 82.7852 95.0506C82.7852 94.9816 79.8798 95.0161 76.2998 95.1294C72.7197 95.2426 69.8242 95.3953 69.8242 95.4691Z" fill="#FAFAFA"/>
<path d="M104.527 125.813C104.717 124.178 104.822 122.535 104.842 120.889C104.949 119.249 104.969 117.606 104.901 115.964C104.712 117.599 104.606 119.243 104.586 120.889C104.479 122.528 104.459 124.172 104.527 125.813Z" fill="#FAFAFA"/>
<path d="M159.617 75.4516C155.232 74.6377 150.706 75.1132 146.587 76.8205C144.76 77.5838 142.948 78.6623 141.963 80.3809C140.791 82.4097 140.978 84.9113 141.111 87.2504C141.368 92.0158 141.204 96.7947 140.618 101.531C140.126 105.471 139.353 109.41 139.368 113.35C139.382 117.289 140.269 121.435 142.756 124.528C146.592 129.29 153.422 130.629 159.499 129.817C162.69 129.393 165.876 128.438 168.481 126.537C171.086 124.636 173.036 121.706 173.257 118.496" fill="#455A64"/>
<path d="M152.024 81.4888C151.456 82.1606 150.973 82.8999 150.586 83.69C150.186 84.5601 149.857 85.4609 149.601 86.3836C149.294 87.5277 148.914 88.6511 148.464 89.747C147.994 90.8618 147.265 91.8479 146.336 92.6228C145.562 93.2593 144.591 93.6074 143.588 93.6077C142.923 93.6142 142.269 93.4277 141.707 93.0709C141.557 92.9718 141.42 92.8544 141.299 92.7213C141.215 92.6326 141.175 92.5785 141.185 92.5736C141.195 92.5686 141.382 92.7361 141.776 92.9626C142.334 93.2673 142.964 93.4138 143.598 93.3861C144.54 93.357 145.444 93.0099 146.164 92.4012C147.04 91.6456 147.728 90.6964 148.173 89.6288C148.621 88.5455 149.005 87.4374 149.325 86.3097C149.597 85.378 149.95 84.4717 150.379 83.6013C150.674 83.0141 151.047 82.4692 151.487 81.9812C151.637 81.7877 151.818 81.6211 152.024 81.4888Z" fill="#263238"/>
<path d="M150.285 129.511C150.247 129.386 150.223 129.258 150.211 129.127C150.172 128.838 150.123 128.464 150.064 128.005C149.941 127.02 149.778 125.621 149.571 123.878C149.202 120.386 148.759 115.561 148.375 110.223C147.991 104.885 147.759 100.039 147.631 96.5279C147.567 94.7748 147.528 93.3566 147.513 92.3766C147.513 91.9137 147.513 91.5395 147.513 91.2489C147.498 91.118 147.498 90.9859 147.513 90.855C147.541 90.9829 147.555 91.1132 147.557 91.244C147.557 91.5395 147.602 91.9088 147.631 92.3717C147.685 93.391 147.759 94.7994 147.853 96.518C148.04 100.024 148.316 104.86 148.69 110.198C149.064 115.536 149.483 120.362 149.793 123.853C149.946 125.572 150.069 126.975 150.157 127.99C150.197 128.453 150.226 128.827 150.246 129.117C150.274 129.247 150.288 129.379 150.285 129.511Z" fill="#263238"/>
<path d="M148.341 108.125C148.341 108.209 146.44 108.475 144.061 108.534C141.683 108.593 139.762 108.435 139.767 108.347C139.772 108.258 141.688 108.273 144.051 108.209C146.415 108.145 148.331 108.031 148.341 108.125Z" fill="#263238"/>
<path d="M146.795 108.336C146.987 108.594 147.121 108.889 147.188 109.203C147.295 109.525 147.381 109.854 147.445 110.188C147.499 110.408 147.499 110.638 147.445 110.858C147.407 110.992 147.333 111.113 147.23 111.207C147.127 111.301 147 111.364 146.863 111.39C146.786 111.401 146.707 111.396 146.633 111.374C146.558 111.352 146.489 111.313 146.43 111.262C146.325 111.167 146.254 111.041 146.228 110.902C146.194 110.687 146.194 110.467 146.228 110.252C146.263 109.905 146.329 109.562 146.425 109.228C146.483 108.91 146.615 108.609 146.809 108.351C146.79 108.667 146.735 108.979 146.647 109.282C146.588 109.608 146.548 109.936 146.529 110.267C146.501 110.45 146.501 110.635 146.529 110.818C146.568 110.986 146.671 111.079 146.804 111.06C147.144 111.001 147.218 110.567 147.149 110.227C147.08 109.888 147.026 109.513 146.967 109.243C146.871 108.949 146.814 108.645 146.795 108.336Z" fill="#263238"/>
<path d="M164.119 76.6471L143.512 77.3272C140.905 77.4132 138.722 75.3697 138.636 72.763L138.504 68.7567C138.418 66.15 140.461 63.9671 143.068 63.8811L163.675 63.2011C166.282 63.115 168.465 65.1585 168.551 67.7652L168.683 71.7715C168.769 74.3782 166.726 76.5611 164.119 76.6471Z" fill="#263238"/>
<path d="M143.559 64.1351C143.559 64.1351 143.613 64.0859 143.736 64.0268C143.919 63.9412 144.113 63.8815 144.312 63.8495C145.056 63.738 145.816 63.8802 146.469 64.2533C147.461 64.7448 148.302 65.493 148.907 66.42C149.601 67.579 149.999 68.8917 150.064 70.2413C150.194 71.5945 149.918 72.9556 149.271 74.1513C148.739 75.1282 147.926 75.9226 146.937 76.4313C146.28 76.7729 145.555 76.9646 144.814 76.9927C144.614 77.001 144.413 76.9911 144.214 76.9631C144.144 76.9612 144.075 76.9445 144.012 76.9139C144.012 76.8843 144.297 76.9139 144.805 76.8646C145.516 76.7918 146.205 76.574 146.829 76.2244C147.757 75.7149 148.515 74.9445 149.01 74.0085C149.611 72.8582 149.865 71.5578 149.739 70.2659C149.676 68.9679 149.305 67.7035 148.655 66.5776C148.085 65.6852 147.295 64.9543 146.361 64.4552C145.751 64.0821 145.04 63.9099 144.327 63.9627C143.825 64.0169 143.569 64.1646 143.559 64.1351Z" fill="#455A64"/>
<path d="M155.156 63.4263L152.024 63.5838C152.885 63.7156 153.67 64.1526 154.235 64.8149C154.793 65.4741 155.204 66.2447 155.441 67.0752C156.53 70.5223 155.215 74.6489 152.487 77.0274L155.023 76.988C155.023 76.988 161.193 69.5424 155.176 63.4263" fill="#455A64"/>
<path d="M170.46 57.5268C171.74 54.4293 171.809 49.0519 169.854 46.2007C167.899 43.3495 164.235 41.5028 160.872 40.7839C160.319 40.6137 159.727 40.6137 159.173 40.7839C158.904 40.8853 158.682 41.0845 158.552 41.3417C158.423 41.599 158.395 41.8956 158.474 42.1726C157.82 41.7239 157.096 41.3877 156.332 41.1778C155.947 41.0693 155.542 41.0574 155.152 41.1433C154.762 41.2293 154.399 41.4103 154.096 41.6703C153.95 41.804 153.832 41.9658 153.75 42.1459C153.668 42.3261 153.622 42.5209 153.617 42.7189C153.611 42.917 153.646 43.1141 153.718 43.2985C153.79 43.483 153.899 43.651 154.037 43.7927C153.563 43.6169 153.048 43.5845 152.556 43.6995C152.063 43.8144 151.616 44.0717 151.269 44.4392C150.922 44.8067 150.691 45.2682 150.604 45.7662C150.518 46.2642 150.579 46.7767 150.782 47.2397C151.243 48.1881 151.881 49.0391 152.663 49.7463C153.367 50.3963 153.485 51.066 153.367 52.0164" fill="#263238"/>
<path d="M169.658 51.8489L170.545 70.7979C170.581 71.5616 170.462 72.3249 170.195 73.0412C169.927 73.7575 169.517 74.4119 168.989 74.9647C168.46 75.5174 167.825 75.9569 167.122 76.2565C166.418 76.556 165.661 76.7094 164.896 76.7071C163.449 76.6998 162.06 76.1366 161.016 75.1339C159.972 74.1313 159.353 72.7658 159.288 71.3199C159.224 69.8918 159.164 68.7001 159.15 68.5573C159.15 68.5573 154.304 68.3308 153.733 63.5738C153.457 61.2741 153.27 56.4926 153.157 52.164C153.097 49.9221 153.883 47.7398 155.36 46.0517C156.836 44.3635 158.894 43.2932 161.124 43.0539L161.582 43.0047C166.556 42.7585 169.55 46.8556 169.658 51.8489Z" fill="#FFBE9D"/>
<path d="M159.12 68.4883C161.323 68.2937 163.418 67.4467 165.137 66.0557C165.137 66.0557 164.187 69.0349 159.391 69.1186L159.12 68.4883Z" fill="#EB996E"/>
<path d="M154.855 55.2023C154.873 55.3805 154.959 55.5447 155.096 55.6598C155.234 55.7748 155.41 55.8316 155.589 55.8179C155.676 55.8154 155.762 55.7954 155.841 55.7591C155.92 55.7229 155.991 55.671 156.05 55.6067C156.109 55.5424 156.154 55.4669 156.183 55.3847C156.212 55.3026 156.225 55.2154 156.219 55.1284C156.202 54.9512 156.116 54.7877 155.98 54.6728C155.844 54.5579 155.668 54.5005 155.49 54.5129C155.403 54.5161 155.318 54.5364 155.238 54.5729C155.159 54.6093 155.088 54.6611 155.029 54.7252C154.97 54.7893 154.924 54.8645 154.894 54.9463C154.865 55.0282 154.851 55.1152 154.855 55.2023Z" fill="#263238"/>
<path d="M154.416 54.3897C154.51 54.4685 154.982 54.0352 155.716 53.9564C156.45 53.8776 157.021 54.1878 157.09 54.0893C157.159 53.9909 157.026 53.8924 156.77 53.7496C156.43 53.5652 156.041 53.4896 155.657 53.5329C155.276 53.573 154.917 53.7334 154.633 53.9909C154.426 54.1681 154.362 54.3553 154.416 54.3897Z" fill="#263238"/>
<path d="M162.08 54.6607C162.097 54.8379 162.183 55.0014 162.319 55.1163C162.455 55.2312 162.631 55.2886 162.808 55.2762C162.895 55.273 162.981 55.2526 163.06 55.2162C163.139 55.1798 163.211 55.128 163.27 55.0639C163.329 54.9998 163.375 54.9246 163.404 54.8428C163.434 54.7609 163.448 54.6739 163.444 54.5868C163.427 54.409 163.342 54.2448 163.205 54.1296C163.069 54.0145 162.893 53.9576 162.715 53.9712C162.627 53.9731 162.541 53.9926 162.461 54.0285C162.381 54.0645 162.31 54.1163 162.25 54.1806C162.191 54.245 162.145 54.3207 162.116 54.4032C162.087 54.4857 162.074 54.5733 162.08 54.6607Z" fill="#263238"/>
<path d="M161.626 53.7498C161.72 53.8286 162.193 53.3953 162.926 53.3165C163.66 53.2377 164.236 53.5479 164.305 53.4494C164.374 53.351 164.236 53.2574 163.985 53.1097C163.643 52.9258 163.253 52.8502 162.867 52.893C162.487 52.9354 162.129 53.0955 161.843 53.351C161.641 53.5479 161.582 53.7154 161.626 53.7498Z" fill="#263238"/>
<path d="M159.553 59.4669C159.155 59.3844 158.748 59.3546 158.342 59.3783C158.155 59.3783 157.972 59.3783 157.928 59.2404C157.89 59.0496 157.912 58.8515 157.992 58.6741L158.391 57.1968C158.943 55.0891 159.317 53.3607 159.233 53.341C159.149 53.3213 158.632 55.0104 158.081 57.1229C157.953 57.6154 157.825 58.1373 157.707 58.6002C157.62 58.8405 157.62 59.1036 157.707 59.3438C157.74 59.4074 157.787 59.4624 157.845 59.5043C157.903 59.5462 157.971 59.5739 158.041 59.5851C158.148 59.5994 158.255 59.5994 158.361 59.5851C158.762 59.5979 159.163 59.5581 159.553 59.4669Z" fill="#263238"/>
<path d="M161.749 59.7426C161.631 59.7426 161.715 60.5403 161.094 61.1805C160.474 61.8206 159.617 61.8206 159.617 61.9339C159.617 62.0472 159.819 62.0669 160.178 62.0373C160.645 61.9948 161.082 61.787 161.409 61.4513C161.723 61.1321 161.9 60.7026 161.902 60.2547C161.926 59.9198 161.818 59.7327 161.749 59.7426Z" fill="#263238"/>
<path d="M161.129 50.9035C161.223 51.0956 161.942 50.9035 162.813 50.933C163.685 50.9626 164.404 51.1005 164.497 50.933C164.537 50.8395 164.399 50.6671 164.098 50.5046C163.7 50.3032 163.259 50.2002 162.813 50.2042C162.368 50.1999 161.928 50.2994 161.528 50.4948C161.227 50.6376 161.085 50.8099 161.129 50.9035Z" fill="#263238"/>
<path d="M154.457 52.2431C154.605 52.3958 155.087 52.1692 155.693 52.0954C156.299 52.0215 156.825 52.0954 156.924 51.8984C156.968 51.8098 156.87 51.6522 156.629 51.5192C156.309 51.3681 155.952 51.3137 155.602 51.3627C155.252 51.4117 154.924 51.562 154.659 51.795C154.442 51.987 154.393 52.1692 154.457 52.2431Z" fill="#263238"/>
<path d="M169.628 55.4192C169.707 55.3748 172.794 54.0994 173.046 57.3643C173.297 60.6292 169.958 60.2106 169.948 60.117C169.938 60.0235 169.628 55.4192 169.628 55.4192Z" fill="#FFBE9D"/>
<path d="M170.869 58.8024C170.869 58.8024 170.928 58.8369 171.031 58.8763C171.168 58.9291 171.319 58.9291 171.455 58.8763C171.656 58.7263 171.814 58.5254 171.911 58.2943C172.009 58.0632 172.044 57.8103 172.011 57.5615C171.998 57.2809 171.922 57.0068 171.79 56.7588C171.751 56.6598 171.69 56.5715 171.61 56.5012C171.53 56.431 171.435 56.3808 171.332 56.355C171.265 56.3425 171.196 56.3538 171.136 56.3871C171.077 56.4205 171.031 56.4736 171.007 56.5372C170.967 56.6308 171.007 56.6948 170.977 56.6997C170.948 56.7046 170.903 56.6505 170.918 56.5175C170.932 56.435 170.971 56.359 171.031 56.3008C171.117 56.2254 171.228 56.1865 171.342 56.1925C171.478 56.2091 171.607 56.2603 171.717 56.3414C171.828 56.4225 171.915 56.5306 171.972 56.6554C172.134 56.9273 172.225 57.2354 172.238 57.5516C172.278 57.8414 172.231 58.1365 172.103 58.3995C171.975 58.6624 171.772 58.8815 171.519 59.0289C171.433 59.0616 171.34 59.0746 171.248 59.0669C171.156 59.0592 171.067 59.0311 170.987 58.9846C170.884 58.8812 170.859 58.8073 170.869 58.8024Z" fill="#EB996E"/>
<path d="M150.586 46.1563C150.526 50.4208 155.879 51.7898 157.972 49.2488C158.957 48.0719 159.769 46.6291 161.173 46.0283C161.653 45.8417 162.166 45.753 162.681 45.7674C163.196 45.7817 163.703 45.8989 164.172 46.112H164.201C165.6 46.7079 166.516 48.2049 166.841 49.692C167.289 51.7652 167.097 53.6315 167.786 55.5176C167.857 55.8003 168.02 56.0515 168.249 56.2316C168.663 56.4828 169.234 56.1922 169.515 55.8032C169.945 55.1427 170.173 54.3707 170.17 53.5823C170.322 51.8002 170.117 50.0057 169.569 48.3034C169.013 46.5964 167.968 45.0899 166.565 43.9699C164.756 42.635 162.5 42.0542 160.272 42.3498C158.051 42.6601 155.983 43.661 154.363 45.2108C153.579 45.8928 152.978 46.7594 152.614 47.7321" fill="#263238"/>
<path d="M153.871 43.5613C153.717 43.5408 153.562 43.5595 153.418 43.6154C153.017 43.7496 152.662 43.9936 152.393 44.3196C151.978 44.7937 151.735 45.3941 151.704 46.0235C151.698 46.7999 151.981 47.5509 152.497 48.1311C152.992 48.7111 153.641 49.141 154.368 49.372C154.953 49.5595 155.566 49.6477 156.18 49.633C156.59 49.6256 156.999 49.5828 157.401 49.505C157.553 49.4905 157.7 49.447 157.835 49.377C157.835 49.3327 157.199 49.4755 156.185 49.4558C155.592 49.4443 155.004 49.3431 154.442 49.1554C153.762 48.9227 153.157 48.5131 152.689 47.9686C152.213 47.4352 151.948 46.7477 151.94 46.0333C151.955 45.4501 152.161 44.888 152.526 44.4329C152.77 44.1212 153.091 43.8785 153.457 43.7287C153.708 43.6007 153.871 43.5859 153.871 43.5613Z" fill="#455A64"/>
<path d="M155.939 41.8967C155.939 41.8967 155.816 41.8672 155.629 41.9755C155.504 42.0578 155.398 42.1667 155.32 42.2943C155.242 42.422 155.192 42.5653 155.176 42.7142C155.144 43.1522 155.266 43.5876 155.521 43.9453C155.79 44.385 156.121 44.7831 156.505 45.1271C157.205 45.7583 158.052 46.2051 158.968 46.4272C159.338 46.5424 159.729 46.5793 160.115 46.5355C160.115 46.4863 159.682 46.4666 159.017 46.2548C158.154 45.9912 157.359 45.5425 156.688 44.94C156.318 44.6116 155.992 44.2376 155.717 43.8271C155.48 43.5139 155.352 43.1317 155.353 42.7388C155.361 42.609 155.395 42.4822 155.453 42.3655C155.51 42.2489 155.59 42.1448 155.688 42.0593C155.841 41.9411 155.944 41.9164 155.939 41.8967Z" fill="#455A64"/>
<path d="M169.786 88.4274L168.254 77.2293L190.261 81.6613L210.289 74.7031L215.701 80.2677L194.388 91.2441C192.487 92.152 190.345 92.4264 188.277 92.0271L169.786 88.4274Z" fill="#FFBE9D"/>
<path d="M210.289 74.7031C210.289 74.7031 217.946 71.0394 218.439 70.9113C218.818 70.8129 224.599 70.5075 227.234 70.3697C227.44 70.3679 227.64 70.4434 227.794 70.5814C227.947 70.7194 228.044 70.9098 228.064 71.1153C228.084 71.3208 228.027 71.5265 227.904 71.692C227.78 71.8574 227.599 71.9707 227.396 72.0095H227.298C225.82 72.1326 222.59 72.8712 222.59 72.8712L224.067 76.3183C224.139 76.4891 224.151 76.679 224.102 76.8575C224.053 77.0361 223.945 77.193 223.797 77.3032L219.34 80.5976C218.756 80.8629 218.113 80.9698 217.475 80.9076C216.837 80.8454 216.227 80.6161 215.706 80.243L213.736 80.6468L210.289 74.7031Z" fill="#FFBE9D"/>
<path d="M224.082 76.5351C223.944 77.1802 222.407 78.5048 221.24 78.5048C220.983 78.5091 220.733 78.4199 220.536 78.2537C220.443 78.1663 220.378 78.0533 220.349 77.9288C220.32 77.8043 220.328 77.674 220.374 77.5544C220.456 77.4073 220.572 77.2823 220.713 77.19L223.304 75.1562" fill="#FFBE9D"/>
<path d="M223.305 75.1562C222.919 75.3626 222.554 75.6068 222.216 75.8851L221.079 76.737C220.862 76.9044 220.645 77.0472 220.409 77.2639C220.341 77.327 220.287 77.4031 220.248 77.4877C220.21 77.5723 220.19 77.6636 220.188 77.7563C220.187 77.9353 220.248 78.1091 220.36 78.2488C220.473 78.3763 220.614 78.4759 220.772 78.54C220.93 78.604 221.101 78.6308 221.271 78.6181C221.565 78.6031 221.854 78.5329 222.123 78.4113C222.569 78.2192 222.98 77.9546 223.339 77.6283C223.584 77.4119 223.795 77.1595 223.965 76.8798C224.078 76.673 224.083 76.5351 224.068 76.5351C224.053 76.5351 224.014 76.6483 223.881 76.8256C223.688 77.0729 223.467 77.2961 223.221 77.4904C222.862 77.782 222.462 78.0192 222.034 78.1946C221.789 78.2975 221.527 78.3559 221.261 78.3669C221.131 78.3768 221.001 78.3571 220.88 78.3093C220.759 78.2616 220.65 78.187 220.562 78.0912C220.483 78.0013 220.439 77.8858 220.439 77.7662C220.439 77.6466 220.483 77.531 220.562 77.4412C220.749 77.2639 221 77.0915 221.197 76.9487L222.32 76.0279C222.678 75.7735 223.009 75.4813 223.305 75.1562Z" fill="#EB996E"/>
<path d="M217.887 78.5245C217.887 78.5245 218.059 78.4359 218.217 78.1897C218.422 77.8628 218.538 77.4874 218.551 77.1014C218.571 76.7183 218.492 76.3365 218.32 75.9934C218.182 75.7324 218.044 75.6093 218.02 75.629C218.186 76.1046 218.279 76.6027 218.295 77.1063C218.233 77.5973 218.095 78.0756 217.887 78.5245Z" fill="#EB996E"/>
<path d="M220.961 76.7563C220.854 76.9565 220.682 77.114 220.473 77.2021C220.265 77.2901 220.032 77.3035 219.814 77.2398C219.597 77.1762 219.408 77.0395 219.279 76.8527C219.151 76.6659 219.091 76.4406 219.109 76.2146C219.153 75.9402 219.252 75.6776 219.401 75.4431C219.55 75.2085 219.746 75.0069 219.976 74.8506L221.891 73.1172" fill="#FFBE9D"/>
<path d="M221.891 73.0977C221.601 73.2673 221.331 73.4706 221.089 73.7034L220.266 74.4075C219.908 74.6913 219.578 75.0097 219.281 75.3579C219.129 75.557 219.027 75.7903 218.986 76.0375C218.947 76.2768 218.992 76.5222 219.114 76.7319C219.208 76.9095 219.351 77.0571 219.525 77.158C219.699 77.259 219.898 77.3092 220.099 77.3031C220.362 77.2904 220.612 77.1798 220.798 76.9928C220.926 76.8599 220.956 76.7614 220.946 76.7565C220.936 76.7515 220.867 76.8205 220.734 76.919C220.548 77.0533 220.323 77.1241 220.094 77.1209C219.933 77.1155 219.776 77.0669 219.64 76.9803C219.504 76.8937 219.394 76.7722 219.321 76.6284C219.238 76.4467 219.209 76.2447 219.239 76.0471C219.269 75.8494 219.355 75.6647 219.488 75.5155C219.771 75.1856 220.079 74.8778 220.409 74.5947L221.197 73.8462C221.461 73.6294 221.695 73.3775 221.891 73.0977Z" fill="#EB996E"/>
<path d="M217.676 72.8071C219.221 73.1763 220.696 73.7932 222.044 74.6341C222.13 74.6761 222.198 74.7478 222.236 74.836C222.275 74.964 222.177 75.0871 222.073 75.1708C221.649 75.458 221.133 75.5757 220.626 75.5008C220.127 75.4212 219.624 75.3686 219.119 75.3432C218.242 75.3432 217.435 75.7814 216.588 76.0178C215.741 76.2542 214.716 76.2443 214.125 75.5845" fill="#FFBE9D"/>
<path d="M214.135 75.5845C214.135 75.5845 214.135 75.6337 214.213 75.7027C214.307 75.8035 214.415 75.8898 214.533 75.9587C214.984 76.2042 215.503 76.2958 216.011 76.2197C216.734 76.0951 217.443 75.9005 218.128 75.6386C218.525 75.515 218.939 75.4584 219.354 75.4712C219.788 75.4958 220.236 75.6042 220.728 75.6337C221.219 75.6912 221.715 75.5726 222.127 75.2989C222.246 75.2226 222.334 75.1053 222.373 74.9689C222.392 74.8833 222.378 74.7934 222.334 74.7178C222.295 74.6592 222.245 74.6089 222.186 74.5701C221.994 74.4469 221.817 74.3485 221.634 74.245C221.004 73.8846 220.345 73.5766 219.665 73.3242C219.203 73.152 218.731 73.0089 218.251 72.8958C218.077 72.8423 217.897 72.8124 217.715 72.8071C217.715 72.8514 218.458 73.0238 219.601 73.4916C220.268 73.7665 220.916 74.0856 221.541 74.4469C221.713 74.5504 221.9 74.6636 222.068 74.772C222.147 74.831 222.171 74.8655 222.156 74.9148C222.128 74.9911 222.074 75.0553 222.004 75.097C221.637 75.3307 221.2 75.4299 220.768 75.3777C220.31 75.3481 219.852 75.2447 219.394 75.225C218.95 75.212 218.507 75.2753 218.084 75.4121C217.413 75.6795 216.721 75.8904 216.016 76.0424C215.545 76.123 215.061 76.0649 214.622 75.875C214.454 75.7875 214.291 75.6905 214.135 75.5845Z" fill="#EB996E"/>
<path d="M189.922 85.522C190.351 84.2494 190.39 82.8777 190.035 81.5825C189.961 81.5825 190.035 82.4788 190.035 83.5523C190.035 84.6258 189.848 85.5073 189.922 85.522Z" fill="#EB996E"/>
<path d="M170.663 72.0338L176.907 79.0707C176.907 79.0707 180.246 103.373 180.482 105.283C180.718 107.194 181.354 113.29 181.354 114.96C181.354 116.629 182.737 128.561 182.737 128.561C182.737 128.561 156.239 134.066 151.802 128.561L153.186 118.343L151.985 92.9969C151.985 92.9969 150.015 75.4021 159.273 71.3296C159.287 71.3198 165.138 74.8505 170.663 72.0338Z" fill="#FA7C56"/>
<path d="M155.018 73.8116C155.018 73.8116 156.845 72.0093 162.685 73.521C168.835 75.1116 172.081 80.8682 170.564 97.1581C169.303 110.602 163.99 112.532 163.99 112.532C163.99 112.532 166.9 92.2583 166.398 83.7785C165.768 73.068 155.027 75.7321 155.027 75.7321C153.491 75.2495 155.018 73.8116 155.018 73.8116Z" fill="#263238"/>
<path d="M170.663 72.0342L176.06 73.5213L188.203 80.9572L184.747 91.9385L177.616 91.1556L170.663 72.0342Z" fill="#FA7C56"/>
<path d="M177.69 79.6567C177.616 79.6567 177.926 83.5962 178.374 88.4221C178.822 93.248 179.246 97.1777 179.315 97.1678C179.384 97.158 179.078 93.2283 178.63 88.4024C178.182 83.5766 177.759 79.6518 177.69 79.6567Z" fill="#263238"/>
<path d="M152.97 113.788C152.97 113.788 154.693 119.328 160.785 110.178C166.876 101.029 166.024 105.121 166.024 105.121L167.27 106.598C167.27 106.598 160.568 121.691 153.048 119.328L152.97 113.788Z" fill="#263238"/>
<path opacity="0.3" d="M177.936 82.2964L182.737 91.7167L178.768 91.2834L177.936 82.2964Z" fill="black"/>
<g opacity="0.3">
<path d="M180.137 107.307C176.603 111.153 172.43 114.357 167.802 116.777C165.866 117.791 163.724 118.683 161.557 118.402C159.174 118.097 157.125 116.373 156.008 114.251C154.89 112.128 155.023 111.104 154.772 108.72C154.476 106.091 154.476 102.58 154.338 100.182C154.338 99.7581 154.309 99.2657 154.309 98.7979C154.309 98.2913 154.145 97.7982 153.843 97.3919C153.54 96.9856 153.115 96.6877 152.629 96.5425C152.629 96.5425 154.107 95.858 155.057 95.9959C156.008 96.1338 156.766 96.9463 157.273 97.7834C159.977 102.24 158.8 108.775 163.956 111.572C165.66 112.443 167.603 112.728 169.486 112.384C173.706 111.695 176.936 108.937 180.048 106.219" fill="black"/>
</g>
<path d="M174.307 98.084C173.015 98.084 171.968 94.9357 171.968 91.052C171.968 87.1684 173.015 84.02 174.307 84.02C175.599 84.02 176.646 87.1684 176.646 91.052C176.646 94.9357 175.599 98.084 174.307 98.084Z" fill="#FAFAFA"/>
<path d="M173.075 213.354L172.539 224.931C172.539 224.931 184.126 229.363 184.239 231.515L161.754 231.283L161.848 213.211L173.075 213.354Z" fill="#FA7C56"/>
<g opacity="0.6">
<path d="M165.575 223.887C165.359 223.951 165.174 224.093 165.055 224.284C164.936 224.476 164.892 224.704 164.93 224.926C164.986 225.145 165.124 225.335 165.315 225.456C165.507 225.577 165.737 225.62 165.959 225.576C166.188 225.506 166.383 225.354 166.508 225.15C166.633 224.946 166.679 224.704 166.639 224.468C166.555 224.246 166.39 224.065 166.176 223.961C165.963 223.857 165.718 223.84 165.491 223.912" fill="white"/>
</g>
<path opacity="0.6" d="M161.75 231.284V229.481L183.348 230.368C183.348 230.368 184.333 230.811 184.225 231.515L161.75 231.284Z" fill="white"/>
<path d="M172.889 224.823C172.889 224.931 172.332 224.976 171.791 225.315C171.249 225.655 170.953 226.118 170.85 226.074C170.747 226.029 170.919 225.399 171.589 224.99C172.258 224.582 172.913 224.719 172.889 224.823Z" fill="#263238"/>
<path d="M175.232 225.823C175.257 225.931 174.779 226.113 174.405 226.571C174.031 227.029 173.912 227.521 173.804 227.517C173.696 227.512 173.632 226.886 174.109 226.325C174.587 225.763 175.232 225.719 175.232 225.823Z" fill="#263238"/>
<path d="M176.522 228.659C176.424 228.659 176.276 228.132 176.567 227.531C176.857 226.93 177.369 226.699 177.414 226.793C177.458 226.886 177.138 227.201 176.921 227.699C176.704 228.196 176.655 228.649 176.522 228.659Z" fill="#263238"/>
<path d="M172.715 222.169C172.666 222.272 172.164 222.114 171.543 222.169C170.923 222.223 170.44 222.395 170.381 222.302C170.322 222.208 170.795 221.809 171.529 221.785C172.262 221.76 172.77 222.09 172.715 222.169Z" fill="#263238"/>
<path opacity="0.3" d="M172.948 215.649L172.854 217.712L161.804 217.495L161.809 215.634L172.948 215.649Z" fill="black"/>
<path d="M172.78 219.834C172.411 219.936 172.021 219.936 171.652 219.834C171.248 219.756 170.855 219.631 170.48 219.46C170.258 219.358 170.042 219.241 169.835 219.11C169.712 219.037 169.6 218.947 169.5 218.845C169.431 218.765 169.389 218.664 169.381 218.559C169.373 218.453 169.399 218.348 169.456 218.259C169.512 218.181 169.586 218.118 169.672 218.075C169.758 218.032 169.853 218.011 169.948 218.012C170.092 218.011 170.235 218.032 170.372 218.076C170.611 218.134 170.844 218.217 171.066 218.323C171.446 218.495 171.795 218.728 172.1 219.012C172.617 219.504 172.79 219.913 172.75 219.938C172.711 219.962 172.45 219.623 171.923 219.219C171.62 218.987 171.289 218.793 170.938 218.643C170.728 218.559 170.513 218.49 170.293 218.436C170.057 218.372 169.85 218.372 169.801 218.475C169.751 218.579 169.801 218.529 169.825 218.603C169.897 218.68 169.98 218.745 170.072 218.795C170.262 218.923 170.459 219.039 170.663 219.145C171.01 219.32 171.372 219.464 171.746 219.573C172.096 219.636 172.442 219.723 172.78 219.834Z" fill="#263238"/>
<path d="M172.637 219.987C172.425 219.666 172.324 219.283 172.352 218.899C172.336 218.482 172.392 218.065 172.519 217.668C172.592 217.432 172.689 217.204 172.81 216.988C172.872 216.84 172.971 216.711 173.098 216.612C173.224 216.514 173.375 216.45 173.533 216.427C173.634 216.425 173.733 216.454 173.817 216.511C173.901 216.567 173.965 216.648 174.001 216.742C174.059 216.874 174.097 217.013 174.115 217.156C174.154 217.407 174.154 217.663 174.115 217.914C174.048 218.336 173.879 218.735 173.622 219.076C173.179 219.652 172.716 219.78 172.711 219.741C172.706 219.702 173.056 219.48 173.4 218.923C173.597 218.603 173.721 218.243 173.765 217.87C173.794 217.652 173.794 217.432 173.765 217.215C173.73 216.978 173.642 216.781 173.553 216.806C173.464 216.831 173.248 216.983 173.154 217.17C173.041 217.365 172.945 217.569 172.869 217.781C172.742 218.141 172.666 218.518 172.642 218.899C172.583 219.559 172.696 219.972 172.637 219.987Z" fill="#263238"/>
<path d="M151.27 206.332L142.18 213.516C142.18 213.516 146.43 225.172 144.878 226.664L130.312 209.537L144.022 197.753L151.27 206.332Z" fill="#FA7C56"/>
<g opacity="0.6">
<path d="M138.418 207.587C138.228 207.465 137.999 207.417 137.776 207.452C137.552 207.488 137.35 207.604 137.207 207.779C137.078 207.965 137.026 208.193 137.06 208.416C137.093 208.64 137.211 208.842 137.389 208.981C137.592 209.107 137.833 209.155 138.069 209.116C138.305 209.077 138.518 208.954 138.669 208.769C138.785 208.561 138.815 208.317 138.754 208.087C138.692 207.857 138.544 207.66 138.339 207.538" fill="white"/>
</g>
<path opacity="0.6" d="M130.312 209.532L131.677 208.355L145.174 225.246C145.174 225.246 145.489 226.29 144.879 226.659L130.312 209.532Z" fill="white"/>
<path d="M142.504 213.718C142.416 213.787 142.012 213.398 141.401 213.226C140.791 213.053 140.244 213.122 140.214 213.019C140.185 212.915 140.771 212.625 141.515 212.861C142.258 213.098 142.593 213.669 142.504 213.718Z" fill="#263238"/>
<path d="M143.288 216.146C143.224 216.235 142.795 215.993 142.175 216.008C141.554 216.023 141.136 216.264 141.072 216.176C141.008 216.087 141.431 215.634 142.17 215.629C142.909 215.624 143.367 216.077 143.288 216.146Z" fill="#263238"/>
<path d="M142.008 218.992C141.924 218.933 142.245 218.46 142.885 218.288C143.525 218.116 144.037 218.347 143.998 218.441C143.958 218.534 143.505 218.505 142.983 218.657C142.461 218.81 142.087 219.071 142.008 218.992Z" fill="#263238"/>
<path d="M144.391 211.847C144.287 211.877 144.076 211.399 143.642 210.951C143.209 210.503 142.746 210.266 142.78 210.158C142.815 210.05 143.416 210.158 143.918 210.69C144.42 211.222 144.514 211.832 144.391 211.847Z" fill="#263238"/>
<path opacity="0.3" d="M149.467 207.745L147.847 209.03L140.766 200.545L142.174 199.329L149.467 207.745Z" fill="black"/>
<path d="M146.197 210.365C146.168 210.394 145.833 210.109 145.473 209.503C145.264 209.147 145.099 208.767 144.981 208.37C144.914 208.136 144.861 207.897 144.823 207.656C144.802 207.514 144.802 207.37 144.823 207.228C144.838 207.123 144.886 207.026 144.961 206.95C145.035 206.875 145.132 206.825 145.237 206.809C145.329 206.803 145.421 206.818 145.507 206.853C145.592 206.888 145.668 206.942 145.729 207.011C145.823 207.12 145.901 207.241 145.961 207.371C146.069 207.593 146.16 207.824 146.232 208.06C146.347 208.462 146.398 208.879 146.384 209.296C146.41 209.679 146.317 210.061 146.118 210.389C146.054 210.389 146.153 209.961 146.118 209.296C146.08 208.684 145.913 208.086 145.626 207.543C145.518 207.322 145.39 207.169 145.271 207.189C145.153 207.208 145.212 207.189 145.188 207.287C145.174 207.393 145.174 207.501 145.188 207.607C145.219 207.832 145.262 208.056 145.316 208.277C145.41 208.656 145.541 209.025 145.705 209.38C145.895 209.694 146.06 210.024 146.197 210.365Z" fill="#263238"/>
<path d="M145.99 210.36C145.956 210.36 146.114 209.916 146.626 209.429C146.931 209.144 147.282 208.912 147.665 208.744C147.893 208.645 148.131 208.57 148.374 208.518C148.526 208.469 148.689 208.459 148.846 208.491C149.003 208.523 149.149 208.595 149.27 208.7C149.333 208.778 149.373 208.872 149.385 208.971C149.398 209.07 149.382 209.171 149.339 209.261C149.276 209.39 149.194 209.51 149.098 209.616C148.931 209.808 148.737 209.974 148.522 210.108C148.16 210.333 147.749 210.466 147.325 210.497C146.596 210.537 146.197 210.276 146.222 210.241C146.578 210.267 146.935 210.267 147.291 210.241C147.662 210.179 148.017 210.038 148.33 209.828C148.513 209.705 148.679 209.558 148.822 209.39C148.98 209.207 149.068 209.015 148.994 208.961C148.914 208.914 148.825 208.884 148.732 208.874C148.64 208.864 148.546 208.873 148.458 208.902C148.238 208.944 148.022 209.005 147.812 209.084C147.46 209.226 147.129 209.415 146.828 209.646C146.276 210.035 146.04 210.394 145.99 210.36Z" fill="#263238"/>
<path d="M176.478 164.376C176.478 164.376 175.877 136.721 176.478 136.721C177.079 136.721 181.344 134.288 181.344 134.288L186.672 175.382C186.672 175.382 187.164 179.996 181.442 183.261C175.72 186.526 150.207 209.208 150.207 209.208L141.559 198.674C141.559 198.674 158.357 181.168 165.196 175.382C170.613 170.876 176.478 164.376 176.478 164.376Z" fill="#263238"/>
<path d="M160.833 157.93L160.247 153.552C160.247 153.552 156.042 144.688 155.441 140.916C154.84 137.144 155.234 128.97 155.234 128.97H181.801C181.801 128.97 181.688 158.964 178.482 167.38C178.482 167.38 176.857 183.483 176.616 184.832C176.124 187.698 174.336 217.018 174.336 217.018L160.942 216.525C160.942 216.525 159.78 189.569 160.71 181.917C161.168 178.125 161.385 174.087 161.488 170.748C161.615 166.465 161.396 162.178 160.833 157.93Z" fill="#263238"/>
<path d="M181.077 137.72C181.072 137.763 181.072 137.806 181.077 137.848C181.077 137.952 181.077 138.08 181.053 138.237C181.053 138.597 181.013 139.099 180.984 139.715C180.935 141.01 180.836 142.886 180.703 145.2C180.437 149.829 179.94 156.216 179.226 163.253C178.512 170.29 177.709 176.647 177.143 181.252C176.862 183.537 176.65 185.393 176.478 186.703C176.404 187.333 176.345 187.826 176.306 188.18C176.306 188.338 176.276 188.466 176.266 188.569C176.256 188.673 176.266 188.702 176.266 188.702C176.282 188.661 176.294 188.618 176.301 188.574L176.36 188.19L176.581 186.713C176.759 185.408 177.015 183.551 177.33 181.271C177.941 176.672 178.753 170.315 179.487 163.273C180.221 156.231 180.683 149.839 180.905 145.205C181.018 142.886 181.082 141.01 181.102 139.715C181.102 139.079 181.102 138.582 181.127 138.237V137.853C181.115 137.807 181.098 137.763 181.077 137.72Z" fill="#455A64"/>
<path d="M161.513 173.22C161.475 173.362 161.448 173.507 161.434 173.654C161.395 173.959 161.335 174.377 161.262 174.904C161.129 175.998 160.961 177.578 160.809 179.533C160.493 183.448 160.257 188.89 160.168 194.858C160.08 200.826 160.168 206.278 160.405 210.197C160.503 212.167 160.631 213.743 160.735 214.836C160.794 215.363 160.843 215.782 160.877 216.092C160.888 216.239 160.909 216.386 160.942 216.53C160.955 216.383 160.955 216.234 160.942 216.087C160.917 215.777 160.887 215.358 160.848 214.826C160.774 213.733 160.676 212.147 160.597 210.188C160.434 206.273 160.365 200.831 160.439 194.863C160.513 188.895 160.735 183.458 161.006 179.548C161.134 177.578 161.271 176.007 161.375 174.914C161.429 174.387 161.473 173.969 161.503 173.658C161.518 173.513 161.522 173.366 161.513 173.22Z" fill="#455A64"/>
<path d="M156.288 73.1963C156.288 73.1963 151.94 74.3535 151.014 80.834C150.088 87.3145 151.802 89.1661 151.802 89.1661C151.802 89.1661 151.098 77.1013 156.5 75.4566L156.288 73.4327" fill="#263238"/>
<path d="M185.914 94.3611L208.359 93.9229L208.098 95.0111L186.022 95.3362L185.914 94.3611Z" fill="#263238"/>
<path d="M158.696 75.23C159.538 75.0245 160.424 75.1024 161.217 75.4516C163.034 76.2149 166.363 78.4062 166.6 84.6306L166.984 94.6616L152.629 96.5427C152.629 96.5427 151.408 77.1702 158.696 75.23Z" fill="#FA7C56"/>
<path d="M185.115 96.4834L166.895 101.959L166.624 94.6318L155.722 96.2175L156.332 108.134C156.394 109.835 157.013 111.468 158.095 112.782C159.176 114.097 160.659 115.019 162.315 115.408C164.221 115.853 166.224 115.563 167.924 114.595L187.262 103.599L185.115 96.4834Z" fill="#FFBE9D"/>
<path d="M152.63 96.5427C152.63 96.5427 152.63 96.4787 152.63 96.3704C152.63 96.262 152.63 96.0847 152.654 95.8779C152.654 95.4396 152.689 94.8241 152.718 94.0362C152.767 92.4358 152.841 90.1509 152.93 87.3292C152.974 85.9208 153.019 84.3746 153.063 82.72C153.063 82.3063 153.088 81.8828 153.102 81.4544C153.102 81.2476 153.142 81.0358 153.166 80.8192C153.191 80.6025 153.24 80.3957 153.299 80.1839C153.662 78.8103 154.455 77.5887 155.561 76.6974C156.668 75.8062 158.03 75.292 159.45 75.23C160.469 75.2202 161.47 75.5058 162.331 76.0524C163.22 76.6188 163.978 77.3673 164.556 78.2486C165.382 79.5159 165.94 80.9387 166.196 82.4294C166.448 83.8582 166.598 85.303 166.644 86.753C166.723 89.5796 166.797 92.2388 166.866 94.6567L166.959 94.5434L156.584 95.9616L153.669 96.3704L152.886 96.5181L152.615 96.5673L152.886 96.5181L153.639 96.4344L156.539 96.0798L167.004 94.7699H167.097V94.6714C167.038 92.2486 166.994 89.5944 166.9 86.7629C166.861 85.2998 166.715 83.8416 166.462 82.3999C166.201 80.875 165.63 79.4201 164.783 78.1255C164.185 77.2136 163.399 76.4397 162.478 75.8554C161.577 75.2819 160.528 74.9841 159.46 74.9985C158.459 75.0411 157.48 75.3021 156.591 75.7632C155.702 76.2243 154.925 76.8743 154.314 77.6676C153.742 78.3959 153.327 79.234 153.092 80.1297C153.038 80.3464 153.004 80.568 152.959 80.7896C152.915 81.0112 152.915 81.2279 152.895 81.4495C152.895 81.8779 152.895 82.3063 152.866 82.7249C152.831 84.3992 152.802 85.9602 152.772 87.3834C152.723 90.21 152.684 92.4998 152.654 94.1002C152.654 94.8733 152.654 95.484 152.63 95.9124V96.4048C152.625 96.4507 152.625 96.4969 152.63 96.5427Z" fill="#263238"/>
<path d="M184.746 96.7002L189.119 93.4649C189.916 92.874 191.157 92.9725 192.147 92.9085C194.117 92.7312 197.333 93.8933 197.456 94.1199L196.136 95.1737L204.635 94.9127C204.344 95.4911 203.901 95.9797 203.354 96.3265C202.807 96.6734 202.176 96.8655 201.528 96.8824C201.528 96.8824 201.257 98.8029 198.79 99.1673C198.79 99.1673 198.15 100.723 196.776 101.176C196.776 101.176 196.505 102.915 194.314 102.821L186.863 103.653L184.746 96.7002Z" fill="#FFBE9D"/>
<path d="M196.22 97.1827C197.117 97.2608 198.019 97.2509 198.914 97.1532C199.812 97.147 200.708 97.0513 201.588 96.8676C200.692 96.7952 199.792 96.8051 198.899 96.8971C197.999 96.9099 197.102 97.0055 196.22 97.1827Z" fill="#EB996E"/>
<path d="M194.063 99.2313C194.84 99.3576 195.629 99.4006 196.416 99.3593C197.203 99.4006 197.992 99.3576 198.77 99.2313C197.993 99.102 197.203 99.0591 196.416 99.1032C195.629 99.0591 194.84 99.102 194.063 99.2313Z" fill="#EB996E"/>
<path d="M191.753 101.162C192.53 101.291 193.32 101.334 194.107 101.29C194.892 101.334 195.68 101.291 196.456 101.162C195.68 101.035 194.892 100.992 194.107 101.034C193.32 100.993 192.531 101.035 191.753 101.162Z" fill="#EB996E"/>
<path d="M165.689 105.677C166.048 105.126 166.321 104.523 166.497 103.89C166.761 103.286 166.927 102.645 166.989 101.989C166.689 102.568 166.449 103.177 166.275 103.806C166.014 104.407 165.817 105.034 165.689 105.677Z" fill="#EB996E"/>
<path d="M164.393 104.968C164.899 104.499 165.36 103.983 165.767 103.427C166.242 102.928 166.665 102.384 167.033 101.802C166.468 102.216 165.969 102.714 165.556 103.279C165.088 103.782 164.696 104.351 164.393 104.968Z" fill="#EB996E"/>
</svg>
