<svg width="49" height="43" viewBox="0 0 49 43" fill="none" xmlns="http://www.w3.org/2000/svg">
<path d="M48.9978 5.85391C47.2246 6.70044 45.3198 7.27011 43.3205 7.52706C45.3624 6.21244 46.9281 4.13097 47.6656 1.64913C45.7571 2.86615 43.6411 3.75052 41.388 4.22857C39.5851 2.16303 37.017 0.872314 34.1747 0.872314C28.7161 0.872314 24.2914 5.63082 24.2914 11.4968C24.2914 12.3294 24.3803 13.1421 24.5471 13.9169C16.3332 13.4747 9.05134 9.24402 4.17453 2.81436C3.32591 4.38393 2.8386 6.20846 2.8386 8.15847C2.8386 11.8434 4.58217 15.0961 7.23365 17.0003C5.61423 16.9445 4.0893 16.4664 2.75707 15.6717C2.75707 15.7175 2.75707 15.7593 2.75707 15.8051C2.75707 20.9541 6.16268 25.2485 10.6856 26.2225C9.85734 26.4655 8.98278 26.595 8.08042 26.595C7.44488 26.595 6.82416 26.5272 6.22197 26.4057C7.48009 30.6264 11.1303 33.6998 15.4549 33.7855C12.0734 36.6358 7.81175 38.3349 3.17953 38.3349C2.38279 38.3349 1.59531 38.2851 0.820801 38.1855C5.19547 41.1991 10.3891 42.9579 15.9719 42.9579C34.1524 42.9579 44.0913 26.7682 44.0913 12.7278C44.0913 12.2676 44.0821 11.8095 44.0635 11.3534C45.9961 9.85353 47.673 7.98319 48.9978 5.85391Z" fill="white"/>
</svg>
